G04 (created by PCBNEW (2013-07-07 BZR 4022)-stable) date 18/12/2013 15:58:04*
%MOIN*%
G04 Gerber Fmt 3.4, Leading zero omitted, Abs format*
%FSLAX34Y34*%
G01*
G70*
G90*
G04 APERTURE LIST*
%ADD10C,0.00590551*%
%ADD11C,0.00787402*%
%ADD12C,0.011811*%
%ADD13R,0.0612992X0.0612992*%
%ADD14C,0.0612992*%
%ADD15R,0.0662992X0.0662992*%
%ADD16C,0.0662992*%
%ADD17C,0.0712992*%
G04 APERTURE END LIST*
G54D10*
G54D11*
X40678Y-33400D02*
X40903Y-33400D01*
X40948Y-33385D01*
X40978Y-33355D01*
X40993Y-33310D01*
X40993Y-33280D01*
X40783Y-33685D02*
X40993Y-33685D01*
X40783Y-33550D02*
X40948Y-33550D01*
X40978Y-33565D01*
X40993Y-33595D01*
X40993Y-33640D01*
X40978Y-33670D01*
X40963Y-33685D01*
X40993Y-33835D02*
X40783Y-33835D01*
X40813Y-33835D02*
X40798Y-33850D01*
X40783Y-33880D01*
X40783Y-33925D01*
X40798Y-33955D01*
X40828Y-33970D01*
X40993Y-33970D01*
X40828Y-33970D02*
X40798Y-33985D01*
X40783Y-34015D01*
X40783Y-34060D01*
X40798Y-34090D01*
X40828Y-34105D01*
X40993Y-34105D01*
X40783Y-34255D02*
X41098Y-34255D01*
X40798Y-34255D02*
X40783Y-34285D01*
X40783Y-34345D01*
X40798Y-34375D01*
X40813Y-34390D01*
X40843Y-34405D01*
X40933Y-34405D01*
X40963Y-34390D01*
X40978Y-34375D01*
X40993Y-34345D01*
X40993Y-34285D01*
X40978Y-34255D01*
X40978Y-34660D02*
X40993Y-34630D01*
X40993Y-34570D01*
X40978Y-34540D01*
X40948Y-34525D01*
X40828Y-34525D01*
X40798Y-34540D01*
X40783Y-34570D01*
X40783Y-34630D01*
X40798Y-34660D01*
X40828Y-34675D01*
X40858Y-34675D01*
X40888Y-34525D01*
X40993Y-34810D02*
X40783Y-34810D01*
X40843Y-34810D02*
X40813Y-34825D01*
X40798Y-34840D01*
X40783Y-34870D01*
X40783Y-34900D01*
X40783Y-35200D02*
X40783Y-35320D01*
X40678Y-35245D02*
X40948Y-35245D01*
X40978Y-35260D01*
X40993Y-35290D01*
X40993Y-35320D01*
X40993Y-35425D02*
X40678Y-35425D01*
X40993Y-35560D02*
X40828Y-35560D01*
X40798Y-35545D01*
X40783Y-35515D01*
X40783Y-35470D01*
X40798Y-35440D01*
X40813Y-35425D01*
X40978Y-35830D02*
X40993Y-35800D01*
X40993Y-35740D01*
X40978Y-35710D01*
X40948Y-35695D01*
X40828Y-35695D01*
X40798Y-35710D01*
X40783Y-35740D01*
X40783Y-35800D01*
X40798Y-35830D01*
X40828Y-35845D01*
X40858Y-35845D01*
X40888Y-35695D01*
X40678Y-36205D02*
X40738Y-36205D01*
X40678Y-36325D02*
X40738Y-36325D01*
X40828Y-36565D02*
X40843Y-36610D01*
X40858Y-36625D01*
X40888Y-36640D01*
X40933Y-36640D01*
X40963Y-36625D01*
X40978Y-36610D01*
X40993Y-36580D01*
X40993Y-36460D01*
X40678Y-36460D01*
X40678Y-36565D01*
X40693Y-36595D01*
X40708Y-36610D01*
X40738Y-36625D01*
X40768Y-36625D01*
X40798Y-36610D01*
X40813Y-36595D01*
X40828Y-36565D01*
X40828Y-36460D01*
X40783Y-36745D02*
X40993Y-36820D01*
X40783Y-36895D02*
X40993Y-36820D01*
X41068Y-36790D01*
X41083Y-36775D01*
X41098Y-36745D01*
X40783Y-37015D02*
X41098Y-37015D01*
X40798Y-37015D02*
X40783Y-37045D01*
X40783Y-37105D01*
X40798Y-37135D01*
X40813Y-37150D01*
X40843Y-37165D01*
X40933Y-37165D01*
X40963Y-37150D01*
X40978Y-37135D01*
X40993Y-37105D01*
X40993Y-37045D01*
X40978Y-37015D01*
X40993Y-37435D02*
X40828Y-37435D01*
X40798Y-37420D01*
X40783Y-37390D01*
X40783Y-37330D01*
X40798Y-37300D01*
X40978Y-37435D02*
X40993Y-37405D01*
X40993Y-37330D01*
X40978Y-37300D01*
X40948Y-37285D01*
X40918Y-37285D01*
X40888Y-37300D01*
X40873Y-37330D01*
X40873Y-37405D01*
X40858Y-37435D01*
X40978Y-37570D02*
X40993Y-37600D01*
X40993Y-37660D01*
X40978Y-37690D01*
X40948Y-37705D01*
X40933Y-37705D01*
X40903Y-37690D01*
X40888Y-37660D01*
X40888Y-37615D01*
X40873Y-37585D01*
X40843Y-37570D01*
X40828Y-37570D01*
X40798Y-37585D01*
X40783Y-37615D01*
X40783Y-37660D01*
X40798Y-37690D01*
X40978Y-37825D02*
X40993Y-37855D01*
X40993Y-37915D01*
X40978Y-37945D01*
X40948Y-37960D01*
X40933Y-37960D01*
X40903Y-37945D01*
X40888Y-37915D01*
X40888Y-37870D01*
X40873Y-37840D01*
X40843Y-37825D01*
X40828Y-37825D01*
X40798Y-37840D01*
X40783Y-37870D01*
X40783Y-37915D01*
X40798Y-37945D01*
X40678Y-38080D02*
X40738Y-38080D01*
X40678Y-38200D02*
X40738Y-38200D01*
X41498Y-33670D02*
X41513Y-33640D01*
X41513Y-33580D01*
X41498Y-33550D01*
X41483Y-33535D01*
X41453Y-33520D01*
X41363Y-33520D01*
X41333Y-33535D01*
X41318Y-33550D01*
X41303Y-33580D01*
X41303Y-33640D01*
X41318Y-33670D01*
X41513Y-33850D02*
X41498Y-33820D01*
X41483Y-33805D01*
X41453Y-33790D01*
X41363Y-33790D01*
X41333Y-33805D01*
X41318Y-33820D01*
X41303Y-33850D01*
X41303Y-33895D01*
X41318Y-33925D01*
X41333Y-33940D01*
X41363Y-33955D01*
X41453Y-33955D01*
X41483Y-33940D01*
X41498Y-33925D01*
X41513Y-33895D01*
X41513Y-33850D01*
X41303Y-34090D02*
X41513Y-34090D01*
X41333Y-34090D02*
X41318Y-34105D01*
X41303Y-34135D01*
X41303Y-34180D01*
X41318Y-34210D01*
X41348Y-34225D01*
X41513Y-34225D01*
X41303Y-34375D02*
X41513Y-34375D01*
X41333Y-34375D02*
X41318Y-34390D01*
X41303Y-34420D01*
X41303Y-34465D01*
X41318Y-34495D01*
X41348Y-34510D01*
X41513Y-34510D01*
X41498Y-34780D02*
X41513Y-34750D01*
X41513Y-34690D01*
X41498Y-34660D01*
X41468Y-34645D01*
X41348Y-34645D01*
X41318Y-34660D01*
X41303Y-34690D01*
X41303Y-34750D01*
X41318Y-34780D01*
X41348Y-34795D01*
X41378Y-34795D01*
X41408Y-34645D01*
X41498Y-35065D02*
X41513Y-35035D01*
X41513Y-34975D01*
X41498Y-34945D01*
X41483Y-34930D01*
X41453Y-34915D01*
X41363Y-34915D01*
X41333Y-34930D01*
X41318Y-34945D01*
X41303Y-34975D01*
X41303Y-35035D01*
X41318Y-35065D01*
X41303Y-35155D02*
X41303Y-35275D01*
X41198Y-35200D02*
X41468Y-35200D01*
X41498Y-35215D01*
X41513Y-35245D01*
X41513Y-35275D01*
X41513Y-35425D02*
X41498Y-35395D01*
X41483Y-35380D01*
X41453Y-35365D01*
X41363Y-35365D01*
X41333Y-35380D01*
X41318Y-35395D01*
X41303Y-35425D01*
X41303Y-35470D01*
X41318Y-35500D01*
X41333Y-35515D01*
X41363Y-35530D01*
X41453Y-35530D01*
X41483Y-35515D01*
X41498Y-35500D01*
X41513Y-35470D01*
X41513Y-35425D01*
X41513Y-35665D02*
X41303Y-35665D01*
X41363Y-35665D02*
X41333Y-35680D01*
X41318Y-35695D01*
X41303Y-35725D01*
X41303Y-35755D01*
X41498Y-35845D02*
X41513Y-35875D01*
X41513Y-35935D01*
X41498Y-35965D01*
X41468Y-35980D01*
X41453Y-35980D01*
X41423Y-35965D01*
X41408Y-35935D01*
X41408Y-35890D01*
X41393Y-35860D01*
X41363Y-35845D01*
X41348Y-35845D01*
X41318Y-35860D01*
X41303Y-35890D01*
X41303Y-35935D01*
X41318Y-35965D01*
X41303Y-36490D02*
X41513Y-36490D01*
X41303Y-36355D02*
X41468Y-36355D01*
X41498Y-36370D01*
X41513Y-36400D01*
X41513Y-36445D01*
X41498Y-36475D01*
X41483Y-36490D01*
X41303Y-36640D02*
X41513Y-36640D01*
X41333Y-36640D02*
X41318Y-36655D01*
X41303Y-36685D01*
X41303Y-36730D01*
X41318Y-36760D01*
X41348Y-36775D01*
X41513Y-36775D01*
X41513Y-36970D02*
X41498Y-36940D01*
X41468Y-36925D01*
X41198Y-36925D01*
X41498Y-37210D02*
X41513Y-37180D01*
X41513Y-37120D01*
X41498Y-37090D01*
X41468Y-37075D01*
X41348Y-37075D01*
X41318Y-37090D01*
X41303Y-37120D01*
X41303Y-37180D01*
X41318Y-37210D01*
X41348Y-37225D01*
X41378Y-37225D01*
X41408Y-37075D01*
X41498Y-37345D02*
X41513Y-37375D01*
X41513Y-37435D01*
X41498Y-37465D01*
X41468Y-37480D01*
X41453Y-37480D01*
X41423Y-37465D01*
X41408Y-37435D01*
X41408Y-37390D01*
X41393Y-37360D01*
X41363Y-37345D01*
X41348Y-37345D01*
X41318Y-37360D01*
X41303Y-37390D01*
X41303Y-37435D01*
X41318Y-37465D01*
X41498Y-37600D02*
X41513Y-37630D01*
X41513Y-37690D01*
X41498Y-37720D01*
X41468Y-37735D01*
X41453Y-37735D01*
X41423Y-37720D01*
X41408Y-37690D01*
X41408Y-37645D01*
X41393Y-37615D01*
X41363Y-37600D01*
X41348Y-37600D01*
X41318Y-37615D01*
X41303Y-37645D01*
X41303Y-37690D01*
X41318Y-37720D01*
X41823Y-33220D02*
X42032Y-33295D01*
X41823Y-33370D02*
X42032Y-33295D01*
X42107Y-33265D01*
X42122Y-33250D01*
X42137Y-33220D01*
X42032Y-33535D02*
X42017Y-33505D01*
X42002Y-33490D01*
X41973Y-33475D01*
X41883Y-33475D01*
X41853Y-33490D01*
X41838Y-33505D01*
X41823Y-33535D01*
X41823Y-33580D01*
X41838Y-33610D01*
X41853Y-33625D01*
X41883Y-33640D01*
X41973Y-33640D01*
X42002Y-33625D01*
X42017Y-33610D01*
X42032Y-33580D01*
X42032Y-33535D01*
X41823Y-33910D02*
X42032Y-33910D01*
X41823Y-33775D02*
X41988Y-33775D01*
X42017Y-33790D01*
X42032Y-33820D01*
X42032Y-33865D01*
X42017Y-33895D01*
X42002Y-33910D01*
X42032Y-34300D02*
X41718Y-34300D01*
X42032Y-34435D02*
X41868Y-34435D01*
X41838Y-34420D01*
X41823Y-34390D01*
X41823Y-34345D01*
X41838Y-34315D01*
X41853Y-34300D01*
X42032Y-34720D02*
X41868Y-34720D01*
X41838Y-34705D01*
X41823Y-34675D01*
X41823Y-34615D01*
X41838Y-34585D01*
X42017Y-34720D02*
X42032Y-34690D01*
X42032Y-34615D01*
X42017Y-34585D01*
X41988Y-34570D01*
X41958Y-34570D01*
X41928Y-34585D01*
X41913Y-34615D01*
X41913Y-34690D01*
X41898Y-34720D01*
X41823Y-34840D02*
X42032Y-34915D01*
X41823Y-34990D01*
X42017Y-35230D02*
X42032Y-35200D01*
X42032Y-35140D01*
X42017Y-35110D01*
X41988Y-35095D01*
X41868Y-35095D01*
X41838Y-35110D01*
X41823Y-35140D01*
X41823Y-35200D01*
X41838Y-35230D01*
X41868Y-35245D01*
X41898Y-35245D01*
X41928Y-35095D01*
X42032Y-35620D02*
X41823Y-35620D01*
X41883Y-35620D02*
X41853Y-35635D01*
X41838Y-35650D01*
X41823Y-35680D01*
X41823Y-35710D01*
X42017Y-35935D02*
X42032Y-35905D01*
X42032Y-35845D01*
X42017Y-35815D01*
X41988Y-35800D01*
X41868Y-35800D01*
X41838Y-35815D01*
X41823Y-35845D01*
X41823Y-35905D01*
X41838Y-35935D01*
X41868Y-35950D01*
X41898Y-35950D01*
X41928Y-35800D01*
X42032Y-36085D02*
X41823Y-36085D01*
X41853Y-36085D02*
X41838Y-36100D01*
X41823Y-36130D01*
X41823Y-36175D01*
X41838Y-36205D01*
X41868Y-36220D01*
X42032Y-36220D01*
X41868Y-36220D02*
X41838Y-36235D01*
X41823Y-36265D01*
X41823Y-36310D01*
X41838Y-36340D01*
X41868Y-36355D01*
X42032Y-36355D01*
X42032Y-36550D02*
X42017Y-36520D01*
X42002Y-36505D01*
X41973Y-36490D01*
X41883Y-36490D01*
X41853Y-36505D01*
X41838Y-36520D01*
X41823Y-36550D01*
X41823Y-36595D01*
X41838Y-36625D01*
X41853Y-36640D01*
X41883Y-36655D01*
X41973Y-36655D01*
X42002Y-36640D01*
X42017Y-36625D01*
X42032Y-36595D01*
X42032Y-36550D01*
X41823Y-36760D02*
X42032Y-36835D01*
X41823Y-36910D01*
X42017Y-37150D02*
X42032Y-37120D01*
X42032Y-37060D01*
X42017Y-37030D01*
X41988Y-37015D01*
X41868Y-37015D01*
X41838Y-37030D01*
X41823Y-37060D01*
X41823Y-37120D01*
X41838Y-37150D01*
X41868Y-37165D01*
X41898Y-37165D01*
X41928Y-37015D01*
X42032Y-37435D02*
X41718Y-37435D01*
X42017Y-37435D02*
X42032Y-37405D01*
X42032Y-37345D01*
X42017Y-37315D01*
X42002Y-37300D01*
X41973Y-37285D01*
X41883Y-37285D01*
X41853Y-37300D01*
X41838Y-37315D01*
X41823Y-37345D01*
X41823Y-37405D01*
X41838Y-37435D01*
X42032Y-37960D02*
X41868Y-37960D01*
X41838Y-37945D01*
X41823Y-37915D01*
X41823Y-37855D01*
X41838Y-37825D01*
X42017Y-37960D02*
X42032Y-37930D01*
X42032Y-37855D01*
X42017Y-37825D01*
X41988Y-37810D01*
X41958Y-37810D01*
X41928Y-37825D01*
X41913Y-37855D01*
X41913Y-37930D01*
X41898Y-37960D01*
X41823Y-38110D02*
X42032Y-38110D01*
X41853Y-38110D02*
X41838Y-38125D01*
X41823Y-38155D01*
X41823Y-38200D01*
X41838Y-38230D01*
X41868Y-38245D01*
X42032Y-38245D01*
X42552Y-33558D02*
X42342Y-33558D01*
X42237Y-33558D02*
X42252Y-33543D01*
X42267Y-33558D01*
X42252Y-33573D01*
X42237Y-33558D01*
X42267Y-33558D01*
X42342Y-33708D02*
X42552Y-33708D01*
X42372Y-33708D02*
X42357Y-33723D01*
X42342Y-33753D01*
X42342Y-33798D01*
X42357Y-33828D01*
X42387Y-33843D01*
X42552Y-33843D01*
X42552Y-34128D02*
X42237Y-34128D01*
X42537Y-34128D02*
X42552Y-34098D01*
X42552Y-34038D01*
X42537Y-34008D01*
X42522Y-33993D01*
X42492Y-33978D01*
X42402Y-33978D01*
X42372Y-33993D01*
X42357Y-34008D01*
X42342Y-34038D01*
X42342Y-34098D01*
X42357Y-34128D01*
X42342Y-34413D02*
X42552Y-34413D01*
X42342Y-34278D02*
X42507Y-34278D01*
X42537Y-34293D01*
X42552Y-34323D01*
X42552Y-34368D01*
X42537Y-34398D01*
X42522Y-34413D01*
X42537Y-34698D02*
X42552Y-34668D01*
X42552Y-34608D01*
X42537Y-34578D01*
X42522Y-34563D01*
X42492Y-34548D01*
X42402Y-34548D01*
X42372Y-34563D01*
X42357Y-34578D01*
X42342Y-34608D01*
X42342Y-34668D01*
X42357Y-34698D01*
X42342Y-34788D02*
X42342Y-34908D01*
X42237Y-34833D02*
X42507Y-34833D01*
X42537Y-34848D01*
X42552Y-34878D01*
X42552Y-34908D01*
X42552Y-35058D02*
X42537Y-35028D01*
X42522Y-35013D01*
X42492Y-34998D01*
X42402Y-34998D01*
X42372Y-35013D01*
X42357Y-35028D01*
X42342Y-35058D01*
X42342Y-35103D01*
X42357Y-35133D01*
X42372Y-35148D01*
X42402Y-35163D01*
X42492Y-35163D01*
X42522Y-35148D01*
X42537Y-35133D01*
X42552Y-35103D01*
X42552Y-35058D01*
X42552Y-35298D02*
X42342Y-35298D01*
X42402Y-35298D02*
X42372Y-35313D01*
X42357Y-35328D01*
X42342Y-35358D01*
X42342Y-35388D01*
X42342Y-35688D02*
X42342Y-35808D01*
X42552Y-35733D02*
X42282Y-35733D01*
X42252Y-35748D01*
X42237Y-35778D01*
X42237Y-35808D01*
X42552Y-35913D02*
X42342Y-35913D01*
X42402Y-35913D02*
X42372Y-35928D01*
X42357Y-35943D01*
X42342Y-35973D01*
X42342Y-36003D01*
X42552Y-36152D02*
X42537Y-36122D01*
X42522Y-36107D01*
X42492Y-36092D01*
X42402Y-36092D01*
X42372Y-36107D01*
X42357Y-36122D01*
X42342Y-36152D01*
X42342Y-36197D01*
X42357Y-36227D01*
X42372Y-36242D01*
X42402Y-36257D01*
X42492Y-36257D01*
X42522Y-36242D01*
X42537Y-36227D01*
X42552Y-36197D01*
X42552Y-36152D01*
X42552Y-36392D02*
X42342Y-36392D01*
X42372Y-36392D02*
X42357Y-36407D01*
X42342Y-36437D01*
X42342Y-36482D01*
X42357Y-36512D01*
X42387Y-36527D01*
X42552Y-36527D01*
X42387Y-36527D02*
X42357Y-36542D01*
X42342Y-36572D01*
X42342Y-36617D01*
X42357Y-36647D01*
X42387Y-36662D01*
X42552Y-36662D01*
X42552Y-37052D02*
X42237Y-37052D01*
X42237Y-37127D01*
X42252Y-37172D01*
X42282Y-37202D01*
X42312Y-37217D01*
X42372Y-37232D01*
X42417Y-37232D01*
X42477Y-37217D01*
X42507Y-37202D01*
X42537Y-37172D01*
X42552Y-37127D01*
X42552Y-37052D01*
X42237Y-37367D02*
X42492Y-37367D01*
X42522Y-37382D01*
X42537Y-37397D01*
X42552Y-37427D01*
X42552Y-37487D01*
X42537Y-37517D01*
X42522Y-37532D01*
X42492Y-37547D01*
X42237Y-37547D01*
X42237Y-37652D02*
X42237Y-37832D01*
X42552Y-37742D02*
X42237Y-37742D01*
X42522Y-37937D02*
X42537Y-37952D01*
X42552Y-37937D01*
X42537Y-37922D01*
X42522Y-37937D01*
X42552Y-37937D01*
X42854Y-36279D02*
X42854Y-38228D01*
X43779Y-36259D02*
X42854Y-36259D01*
X43779Y-38228D02*
X43779Y-36259D01*
X42854Y-38228D02*
X43779Y-38228D01*
G54D12*
X43565Y-35095D02*
X42975Y-35095D01*
X42975Y-35320D01*
X43003Y-35376D01*
X43031Y-35404D01*
X43087Y-35433D01*
X43172Y-35433D01*
X43228Y-35404D01*
X43256Y-35376D01*
X43284Y-35320D01*
X43284Y-35095D01*
X42975Y-35967D02*
X42975Y-35686D01*
X43256Y-35658D01*
X43228Y-35686D01*
X43200Y-35742D01*
X43200Y-35883D01*
X43228Y-35939D01*
X43256Y-35967D01*
X43312Y-35995D01*
X43453Y-35995D01*
X43509Y-35967D01*
X43537Y-35939D01*
X43565Y-35883D01*
X43565Y-35742D01*
X43537Y-35686D01*
X43509Y-35658D01*
G54D11*
X47710Y-42076D02*
X47677Y-42076D01*
X47643Y-42091D01*
X47626Y-42106D01*
X47609Y-42136D01*
X47592Y-42196D01*
X47592Y-42271D01*
X47609Y-42331D01*
X47626Y-42361D01*
X47643Y-42376D01*
X47677Y-42391D01*
X47710Y-42391D01*
X47744Y-42376D01*
X47761Y-42361D01*
X47778Y-42331D01*
X47795Y-42271D01*
X47795Y-42196D01*
X47778Y-42136D01*
X47761Y-42106D01*
X47744Y-42091D01*
X47710Y-42076D01*
X47238Y-42391D02*
X47356Y-42241D01*
X47440Y-42391D02*
X47440Y-42076D01*
X47305Y-42076D01*
X47272Y-42091D01*
X47255Y-42106D01*
X47238Y-42136D01*
X47238Y-42181D01*
X47255Y-42211D01*
X47272Y-42226D01*
X47305Y-42241D01*
X47440Y-42241D01*
X47019Y-42076D02*
X46985Y-42076D01*
X46951Y-42091D01*
X46934Y-42106D01*
X46917Y-42136D01*
X46901Y-42196D01*
X46901Y-42271D01*
X46917Y-42331D01*
X46934Y-42361D01*
X46951Y-42376D01*
X46985Y-42391D01*
X47019Y-42391D01*
X47052Y-42376D01*
X47069Y-42361D01*
X47086Y-42331D01*
X47103Y-42271D01*
X47103Y-42196D01*
X47086Y-42136D01*
X47069Y-42106D01*
X47052Y-42091D01*
X47019Y-42076D01*
X46580Y-42076D02*
X46749Y-42076D01*
X46766Y-42226D01*
X46749Y-42211D01*
X46715Y-42196D01*
X46631Y-42196D01*
X46597Y-42211D01*
X46580Y-42226D01*
X46563Y-42256D01*
X46563Y-42331D01*
X46580Y-42361D01*
X46597Y-42376D01*
X46631Y-42391D01*
X46715Y-42391D01*
X46749Y-42376D01*
X46766Y-42361D01*
X46074Y-42076D02*
X46040Y-42076D01*
X46006Y-42091D01*
X45989Y-42106D01*
X45973Y-42136D01*
X45956Y-42196D01*
X45956Y-42271D01*
X45973Y-42331D01*
X45989Y-42361D01*
X46006Y-42376D01*
X46040Y-42391D01*
X46074Y-42391D01*
X46107Y-42376D01*
X46124Y-42361D01*
X46141Y-42331D01*
X46158Y-42271D01*
X46158Y-42196D01*
X46141Y-42136D01*
X46124Y-42106D01*
X46107Y-42091D01*
X46074Y-42076D01*
X45601Y-42391D02*
X45719Y-42241D01*
X45804Y-42391D02*
X45804Y-42076D01*
X45669Y-42076D01*
X45635Y-42091D01*
X45618Y-42106D01*
X45601Y-42136D01*
X45601Y-42181D01*
X45618Y-42211D01*
X45635Y-42226D01*
X45669Y-42241D01*
X45804Y-42241D01*
X45281Y-42076D02*
X45449Y-42076D01*
X45466Y-42226D01*
X45449Y-42211D01*
X45416Y-42196D01*
X45331Y-42196D01*
X45298Y-42211D01*
X45281Y-42226D01*
X45264Y-42256D01*
X45264Y-42331D01*
X45281Y-42361D01*
X45298Y-42376D01*
X45331Y-42391D01*
X45416Y-42391D01*
X45449Y-42376D01*
X45466Y-42361D01*
X44656Y-42391D02*
X44859Y-42391D01*
X44758Y-42391D02*
X44758Y-42076D01*
X44791Y-42121D01*
X44825Y-42151D01*
X44859Y-42166D01*
X44302Y-42391D02*
X44420Y-42241D01*
X44505Y-42391D02*
X44505Y-42076D01*
X44370Y-42076D01*
X44336Y-42091D01*
X44319Y-42106D01*
X44302Y-42136D01*
X44302Y-42181D01*
X44319Y-42211D01*
X44336Y-42226D01*
X44370Y-42241D01*
X44505Y-42241D01*
X43712Y-42076D02*
X43880Y-42076D01*
X43897Y-42226D01*
X43880Y-42211D01*
X43847Y-42196D01*
X43762Y-42196D01*
X43728Y-42211D01*
X43712Y-42226D01*
X43695Y-42256D01*
X43695Y-42331D01*
X43712Y-42361D01*
X43728Y-42376D01*
X43762Y-42391D01*
X43847Y-42391D01*
X43880Y-42376D01*
X43897Y-42361D01*
X43340Y-42391D02*
X43458Y-42241D01*
X43543Y-42391D02*
X43543Y-42076D01*
X43408Y-42076D01*
X43374Y-42091D01*
X43357Y-42106D01*
X43340Y-42136D01*
X43340Y-42181D01*
X43357Y-42211D01*
X43374Y-42226D01*
X43408Y-42241D01*
X43543Y-42241D01*
X42919Y-42076D02*
X42919Y-42331D01*
X42902Y-42361D01*
X42885Y-42376D01*
X42851Y-42391D01*
X42784Y-42391D01*
X42750Y-42376D01*
X42733Y-42361D01*
X42716Y-42331D01*
X42716Y-42076D01*
X42564Y-42376D02*
X42530Y-42391D01*
X42463Y-42391D01*
X42429Y-42376D01*
X42412Y-42346D01*
X42412Y-42331D01*
X42429Y-42301D01*
X42463Y-42286D01*
X42514Y-42286D01*
X42547Y-42271D01*
X42564Y-42241D01*
X42564Y-42226D01*
X42547Y-42196D01*
X42514Y-42181D01*
X42463Y-42181D01*
X42429Y-42196D01*
X42125Y-42376D02*
X42159Y-42391D01*
X42227Y-42391D01*
X42260Y-42376D01*
X42277Y-42346D01*
X42277Y-42226D01*
X42260Y-42196D01*
X42227Y-42181D01*
X42159Y-42181D01*
X42125Y-42196D01*
X42109Y-42226D01*
X42109Y-42256D01*
X42277Y-42286D01*
X41957Y-42391D02*
X41957Y-42181D01*
X41957Y-42241D02*
X41940Y-42211D01*
X41923Y-42196D01*
X41889Y-42181D01*
X41856Y-42181D01*
X57109Y-34848D02*
X57109Y-35134D01*
X57094Y-35168D01*
X57079Y-35185D01*
X57049Y-35202D01*
X56989Y-35202D01*
X56959Y-35185D01*
X56944Y-35168D01*
X56929Y-35134D01*
X56929Y-34848D01*
X56794Y-35185D02*
X56764Y-35202D01*
X56704Y-35202D01*
X56674Y-35185D01*
X56659Y-35151D01*
X56659Y-35134D01*
X56674Y-35101D01*
X56704Y-35084D01*
X56749Y-35084D01*
X56779Y-35067D01*
X56794Y-35033D01*
X56794Y-35016D01*
X56779Y-34983D01*
X56749Y-34966D01*
X56704Y-34966D01*
X56674Y-34983D01*
X56404Y-35185D02*
X56434Y-35202D01*
X56494Y-35202D01*
X56524Y-35185D01*
X56539Y-35151D01*
X56539Y-35016D01*
X56524Y-34983D01*
X56494Y-34966D01*
X56434Y-34966D01*
X56404Y-34983D01*
X56389Y-35016D01*
X56389Y-35050D01*
X56539Y-35084D01*
X56254Y-35202D02*
X56254Y-34966D01*
X56254Y-35033D02*
X56239Y-35000D01*
X56224Y-34983D01*
X56194Y-34966D01*
X56164Y-34966D01*
X55669Y-34848D02*
X55819Y-34848D01*
X55834Y-35016D01*
X55819Y-35000D01*
X55789Y-34983D01*
X55714Y-34983D01*
X55684Y-35000D01*
X55669Y-35016D01*
X55654Y-35050D01*
X55654Y-35134D01*
X55669Y-35168D01*
X55684Y-35185D01*
X55714Y-35202D01*
X55789Y-35202D01*
X55819Y-35185D01*
X55834Y-35168D01*
X55339Y-35202D02*
X55444Y-35033D01*
X55519Y-35202D02*
X55519Y-34848D01*
X55399Y-34848D01*
X55369Y-34865D01*
X55354Y-34881D01*
X55339Y-34915D01*
X55339Y-34966D01*
X55354Y-35000D01*
X55369Y-35016D01*
X55399Y-35033D01*
X55519Y-35033D01*
X54559Y-35202D02*
X54739Y-35202D01*
X54649Y-35202D02*
X54649Y-34848D01*
X54679Y-34898D01*
X54709Y-34932D01*
X54739Y-34949D01*
X54244Y-35202D02*
X54349Y-35033D01*
X54424Y-35202D02*
X54424Y-34848D01*
X54304Y-34848D01*
X54274Y-34865D01*
X54259Y-34881D01*
X54244Y-34915D01*
X54244Y-34966D01*
X54259Y-35000D01*
X54274Y-35016D01*
X54304Y-35033D01*
X54424Y-35033D01*
X53809Y-34848D02*
X53779Y-34848D01*
X53750Y-34865D01*
X53735Y-34881D01*
X53720Y-34915D01*
X53705Y-34983D01*
X53705Y-35067D01*
X53720Y-35134D01*
X53735Y-35168D01*
X53750Y-35185D01*
X53779Y-35202D01*
X53809Y-35202D01*
X53839Y-35185D01*
X53854Y-35168D01*
X53869Y-35134D01*
X53884Y-35067D01*
X53884Y-34983D01*
X53869Y-34915D01*
X53854Y-34881D01*
X53839Y-34865D01*
X53809Y-34848D01*
X53390Y-35202D02*
X53495Y-35033D01*
X53570Y-35202D02*
X53570Y-34848D01*
X53450Y-34848D01*
X53420Y-34865D01*
X53405Y-34881D01*
X53390Y-34915D01*
X53390Y-34966D01*
X53405Y-35000D01*
X53420Y-35016D01*
X53450Y-35033D01*
X53570Y-35033D01*
X53105Y-34848D02*
X53255Y-34848D01*
X53270Y-35016D01*
X53255Y-35000D01*
X53225Y-34983D01*
X53150Y-34983D01*
X53120Y-35000D01*
X53105Y-35016D01*
X53090Y-35050D01*
X53090Y-35134D01*
X53105Y-35168D01*
X53120Y-35185D01*
X53150Y-35202D01*
X53225Y-35202D01*
X53255Y-35185D01*
X53270Y-35168D01*
X52655Y-34848D02*
X52625Y-34848D01*
X52595Y-34865D01*
X52580Y-34881D01*
X52565Y-34915D01*
X52550Y-34983D01*
X52550Y-35067D01*
X52565Y-35134D01*
X52580Y-35168D01*
X52595Y-35185D01*
X52625Y-35202D01*
X52655Y-35202D01*
X52685Y-35185D01*
X52700Y-35168D01*
X52715Y-35134D01*
X52730Y-35067D01*
X52730Y-34983D01*
X52715Y-34915D01*
X52700Y-34881D01*
X52685Y-34865D01*
X52655Y-34848D01*
X52235Y-35202D02*
X52340Y-35033D01*
X52415Y-35202D02*
X52415Y-34848D01*
X52295Y-34848D01*
X52265Y-34865D01*
X52250Y-34881D01*
X52235Y-34915D01*
X52235Y-34966D01*
X52250Y-35000D01*
X52265Y-35016D01*
X52295Y-35033D01*
X52415Y-35033D01*
X52040Y-34848D02*
X52010Y-34848D01*
X51980Y-34865D01*
X51965Y-34881D01*
X51950Y-34915D01*
X51935Y-34983D01*
X51935Y-35067D01*
X51950Y-35134D01*
X51965Y-35168D01*
X51980Y-35185D01*
X52010Y-35202D01*
X52040Y-35202D01*
X52070Y-35185D01*
X52085Y-35168D01*
X52100Y-35134D01*
X52115Y-35067D01*
X52115Y-34983D01*
X52100Y-34915D01*
X52085Y-34881D01*
X52070Y-34865D01*
X52040Y-34848D01*
X51650Y-34848D02*
X51800Y-34848D01*
X51815Y-35016D01*
X51800Y-35000D01*
X51770Y-34983D01*
X51695Y-34983D01*
X51665Y-35000D01*
X51650Y-35016D01*
X51635Y-35050D01*
X51635Y-35134D01*
X51650Y-35168D01*
X51665Y-35185D01*
X51695Y-35202D01*
X51770Y-35202D01*
X51800Y-35185D01*
X51815Y-35168D01*
X57119Y-42092D02*
X57119Y-42379D01*
X57104Y-42412D01*
X57089Y-42429D01*
X57059Y-42446D01*
X56999Y-42446D01*
X56969Y-42429D01*
X56954Y-42412D01*
X56939Y-42379D01*
X56939Y-42092D01*
X56804Y-42429D02*
X56774Y-42446D01*
X56714Y-42446D01*
X56684Y-42429D01*
X56669Y-42395D01*
X56669Y-42379D01*
X56684Y-42345D01*
X56714Y-42328D01*
X56759Y-42328D01*
X56789Y-42311D01*
X56804Y-42277D01*
X56804Y-42260D01*
X56789Y-42227D01*
X56759Y-42210D01*
X56714Y-42210D01*
X56684Y-42227D01*
X56414Y-42429D02*
X56444Y-42446D01*
X56504Y-42446D01*
X56534Y-42429D01*
X56549Y-42395D01*
X56549Y-42260D01*
X56534Y-42227D01*
X56504Y-42210D01*
X56444Y-42210D01*
X56414Y-42227D01*
X56399Y-42260D01*
X56399Y-42294D01*
X56549Y-42328D01*
X56264Y-42446D02*
X56264Y-42210D01*
X56264Y-42277D02*
X56249Y-42244D01*
X56234Y-42227D01*
X56204Y-42210D01*
X56174Y-42210D01*
X55679Y-42092D02*
X55829Y-42092D01*
X55844Y-42260D01*
X55829Y-42244D01*
X55799Y-42227D01*
X55724Y-42227D01*
X55694Y-42244D01*
X55679Y-42260D01*
X55664Y-42294D01*
X55664Y-42379D01*
X55679Y-42412D01*
X55694Y-42429D01*
X55724Y-42446D01*
X55799Y-42446D01*
X55829Y-42429D01*
X55844Y-42412D01*
X55349Y-42446D02*
X55454Y-42277D01*
X55529Y-42446D02*
X55529Y-42092D01*
X55409Y-42092D01*
X55379Y-42109D01*
X55364Y-42125D01*
X55349Y-42159D01*
X55349Y-42210D01*
X55364Y-42244D01*
X55379Y-42260D01*
X55409Y-42277D01*
X55529Y-42277D01*
X54569Y-42446D02*
X54749Y-42446D01*
X54659Y-42446D02*
X54659Y-42092D01*
X54689Y-42142D01*
X54719Y-42176D01*
X54749Y-42193D01*
X54254Y-42446D02*
X54359Y-42277D01*
X54434Y-42446D02*
X54434Y-42092D01*
X54314Y-42092D01*
X54284Y-42109D01*
X54269Y-42125D01*
X54254Y-42159D01*
X54254Y-42210D01*
X54269Y-42244D01*
X54284Y-42260D01*
X54314Y-42277D01*
X54434Y-42277D01*
X53819Y-42092D02*
X53789Y-42092D01*
X53759Y-42109D01*
X53744Y-42125D01*
X53729Y-42159D01*
X53714Y-42227D01*
X53714Y-42311D01*
X53729Y-42379D01*
X53744Y-42412D01*
X53759Y-42429D01*
X53789Y-42446D01*
X53819Y-42446D01*
X53849Y-42429D01*
X53864Y-42412D01*
X53879Y-42379D01*
X53894Y-42311D01*
X53894Y-42227D01*
X53879Y-42159D01*
X53864Y-42125D01*
X53849Y-42109D01*
X53819Y-42092D01*
X53399Y-42446D02*
X53504Y-42277D01*
X53579Y-42446D02*
X53579Y-42092D01*
X53459Y-42092D01*
X53429Y-42109D01*
X53414Y-42125D01*
X53399Y-42159D01*
X53399Y-42210D01*
X53414Y-42244D01*
X53429Y-42260D01*
X53459Y-42277D01*
X53579Y-42277D01*
X53114Y-42092D02*
X53264Y-42092D01*
X53279Y-42260D01*
X53264Y-42244D01*
X53234Y-42227D01*
X53159Y-42227D01*
X53129Y-42244D01*
X53114Y-42260D01*
X53099Y-42294D01*
X53099Y-42379D01*
X53114Y-42412D01*
X53129Y-42429D01*
X53159Y-42446D01*
X53234Y-42446D01*
X53264Y-42429D01*
X53279Y-42412D01*
X52664Y-42092D02*
X52634Y-42092D01*
X52604Y-42109D01*
X52589Y-42125D01*
X52574Y-42159D01*
X52559Y-42227D01*
X52559Y-42311D01*
X52574Y-42379D01*
X52589Y-42412D01*
X52604Y-42429D01*
X52634Y-42446D01*
X52664Y-42446D01*
X52694Y-42429D01*
X52709Y-42412D01*
X52724Y-42379D01*
X52739Y-42311D01*
X52739Y-42227D01*
X52724Y-42159D01*
X52709Y-42125D01*
X52694Y-42109D01*
X52664Y-42092D01*
X52245Y-42446D02*
X52350Y-42277D01*
X52425Y-42446D02*
X52425Y-42092D01*
X52305Y-42092D01*
X52275Y-42109D01*
X52260Y-42125D01*
X52245Y-42159D01*
X52245Y-42210D01*
X52260Y-42244D01*
X52275Y-42260D01*
X52305Y-42277D01*
X52425Y-42277D01*
X52050Y-42092D02*
X52020Y-42092D01*
X51990Y-42109D01*
X51975Y-42125D01*
X51960Y-42159D01*
X51945Y-42227D01*
X51945Y-42311D01*
X51960Y-42379D01*
X51975Y-42412D01*
X51990Y-42429D01*
X52020Y-42446D01*
X52050Y-42446D01*
X52080Y-42429D01*
X52095Y-42412D01*
X52110Y-42379D01*
X52125Y-42311D01*
X52125Y-42227D01*
X52110Y-42159D01*
X52095Y-42125D01*
X52080Y-42109D01*
X52050Y-42092D01*
X51660Y-42092D02*
X51810Y-42092D01*
X51825Y-42260D01*
X51810Y-42244D01*
X51780Y-42227D01*
X51705Y-42227D01*
X51675Y-42244D01*
X51660Y-42260D01*
X51645Y-42294D01*
X51645Y-42379D01*
X51660Y-42412D01*
X51675Y-42429D01*
X51705Y-42446D01*
X51780Y-42446D01*
X51810Y-42429D01*
X51825Y-42412D01*
X56868Y-37986D02*
X56885Y-38004D01*
X56936Y-38023D01*
X56969Y-38023D01*
X57020Y-38004D01*
X57054Y-37967D01*
X57071Y-37929D01*
X57088Y-37854D01*
X57088Y-37798D01*
X57071Y-37723D01*
X57054Y-37686D01*
X57020Y-37648D01*
X56969Y-37629D01*
X56936Y-37629D01*
X56885Y-37648D01*
X56868Y-37667D01*
X56564Y-37761D02*
X56564Y-38023D01*
X56716Y-37761D02*
X56716Y-37967D01*
X56699Y-38004D01*
X56666Y-38023D01*
X56615Y-38023D01*
X56581Y-38004D01*
X56564Y-37986D01*
X56396Y-38023D02*
X56396Y-37761D01*
X56396Y-37836D02*
X56379Y-37798D01*
X56362Y-37779D01*
X56328Y-37761D01*
X56294Y-37761D01*
X56176Y-38023D02*
X56176Y-37761D01*
X56176Y-37836D02*
X56160Y-37798D01*
X56143Y-37779D01*
X56109Y-37761D01*
X56075Y-37761D01*
X55822Y-38004D02*
X55856Y-38023D01*
X55923Y-38023D01*
X55957Y-38004D01*
X55974Y-37967D01*
X55974Y-37817D01*
X55957Y-37779D01*
X55923Y-37761D01*
X55856Y-37761D01*
X55822Y-37779D01*
X55805Y-37817D01*
X55805Y-37854D01*
X55974Y-37892D01*
X55653Y-37761D02*
X55653Y-38023D01*
X55653Y-37798D02*
X55636Y-37779D01*
X55603Y-37761D01*
X55552Y-37761D01*
X55518Y-37779D01*
X55501Y-37817D01*
X55501Y-38023D01*
X55383Y-37761D02*
X55248Y-37761D01*
X55333Y-37629D02*
X55333Y-37967D01*
X55316Y-38004D01*
X55282Y-38023D01*
X55248Y-38023D01*
X54860Y-38023D02*
X54860Y-37761D01*
X54860Y-37798D02*
X54843Y-37779D01*
X54810Y-37761D01*
X54759Y-37761D01*
X54725Y-37779D01*
X54708Y-37817D01*
X54708Y-38023D01*
X54708Y-37817D02*
X54692Y-37779D01*
X54658Y-37761D01*
X54607Y-37761D01*
X54573Y-37779D01*
X54557Y-37817D01*
X54557Y-38023D01*
X54253Y-38004D02*
X54287Y-38023D01*
X54354Y-38023D01*
X54388Y-38004D01*
X54405Y-37967D01*
X54405Y-37817D01*
X54388Y-37779D01*
X54354Y-37761D01*
X54287Y-37761D01*
X54253Y-37779D01*
X54236Y-37817D01*
X54236Y-37854D01*
X54405Y-37892D01*
X53932Y-38023D02*
X53932Y-37817D01*
X53949Y-37779D01*
X53983Y-37761D01*
X54050Y-37761D01*
X54084Y-37779D01*
X53932Y-38004D02*
X53966Y-38023D01*
X54050Y-38023D01*
X54084Y-38004D01*
X54101Y-37967D01*
X54101Y-37929D01*
X54084Y-37892D01*
X54050Y-37873D01*
X53966Y-37873D01*
X53932Y-37854D01*
X53780Y-38004D02*
X53747Y-38023D01*
X53679Y-38023D01*
X53645Y-38004D01*
X53629Y-37967D01*
X53629Y-37948D01*
X53645Y-37911D01*
X53679Y-37892D01*
X53730Y-37892D01*
X53764Y-37873D01*
X53780Y-37836D01*
X53780Y-37817D01*
X53764Y-37779D01*
X53730Y-37761D01*
X53679Y-37761D01*
X53645Y-37779D01*
X53325Y-37761D02*
X53325Y-38023D01*
X53477Y-37761D02*
X53477Y-37967D01*
X53460Y-38004D01*
X53426Y-38023D01*
X53375Y-38023D01*
X53342Y-38004D01*
X53325Y-37986D01*
X53156Y-38023D02*
X53156Y-37761D01*
X53156Y-37836D02*
X53139Y-37798D01*
X53122Y-37779D01*
X53089Y-37761D01*
X53055Y-37761D01*
X52802Y-38004D02*
X52836Y-38023D01*
X52903Y-38023D01*
X52937Y-38004D01*
X52954Y-37967D01*
X52954Y-37817D01*
X52937Y-37779D01*
X52903Y-37761D01*
X52836Y-37761D01*
X52802Y-37779D01*
X52785Y-37817D01*
X52785Y-37854D01*
X52954Y-37892D01*
X52633Y-38023D02*
X52633Y-37761D01*
X52633Y-37798D02*
X52616Y-37779D01*
X52582Y-37761D01*
X52532Y-37761D01*
X52498Y-37779D01*
X52481Y-37817D01*
X52481Y-38023D01*
X52481Y-37817D02*
X52464Y-37779D01*
X52431Y-37761D01*
X52380Y-37761D01*
X52346Y-37779D01*
X52329Y-37817D01*
X52329Y-38023D01*
X52026Y-38004D02*
X52059Y-38023D01*
X52127Y-38023D01*
X52161Y-38004D01*
X52178Y-37967D01*
X52178Y-37817D01*
X52161Y-37779D01*
X52127Y-37761D01*
X52059Y-37761D01*
X52026Y-37779D01*
X52009Y-37817D01*
X52009Y-37854D01*
X52178Y-37892D01*
X51857Y-37761D02*
X51857Y-38023D01*
X51857Y-37798D02*
X51840Y-37779D01*
X51806Y-37761D01*
X51756Y-37761D01*
X51722Y-37779D01*
X51705Y-37817D01*
X51705Y-38023D01*
X51587Y-37761D02*
X51452Y-37761D01*
X51536Y-37629D02*
X51536Y-37967D01*
X51519Y-38004D01*
X51486Y-38023D01*
X51452Y-38023D01*
X51351Y-38004D02*
X51317Y-38023D01*
X51249Y-38023D01*
X51216Y-38004D01*
X51199Y-37967D01*
X51199Y-37948D01*
X51216Y-37911D01*
X51249Y-37892D01*
X51300Y-37892D01*
X51334Y-37873D01*
X51351Y-37836D01*
X51351Y-37817D01*
X51334Y-37779D01*
X51300Y-37761D01*
X51249Y-37761D01*
X51216Y-37779D01*
X56919Y-38653D02*
X56919Y-38447D01*
X56936Y-38409D01*
X56969Y-38390D01*
X57037Y-38390D01*
X57071Y-38409D01*
X56919Y-38634D02*
X56953Y-38653D01*
X57037Y-38653D01*
X57071Y-38634D01*
X57088Y-38597D01*
X57088Y-38559D01*
X57071Y-38522D01*
X57037Y-38503D01*
X56953Y-38503D01*
X56919Y-38484D01*
X56750Y-38653D02*
X56750Y-38390D01*
X56750Y-38465D02*
X56733Y-38428D01*
X56716Y-38409D01*
X56683Y-38390D01*
X56649Y-38390D01*
X56396Y-38634D02*
X56429Y-38653D01*
X56497Y-38653D01*
X56531Y-38634D01*
X56548Y-38597D01*
X56548Y-38447D01*
X56531Y-38409D01*
X56497Y-38390D01*
X56429Y-38390D01*
X56396Y-38409D01*
X56379Y-38447D01*
X56379Y-38484D01*
X56548Y-38522D01*
X56244Y-38634D02*
X56210Y-38653D01*
X56143Y-38653D01*
X56109Y-38634D01*
X56092Y-38597D01*
X56092Y-38578D01*
X56109Y-38540D01*
X56143Y-38522D01*
X56193Y-38522D01*
X56227Y-38503D01*
X56244Y-38465D01*
X56244Y-38447D01*
X56227Y-38409D01*
X56193Y-38390D01*
X56143Y-38390D01*
X56109Y-38409D01*
X55788Y-38634D02*
X55822Y-38653D01*
X55890Y-38653D01*
X55923Y-38634D01*
X55940Y-38615D01*
X55957Y-38578D01*
X55957Y-38465D01*
X55940Y-38428D01*
X55923Y-38409D01*
X55890Y-38390D01*
X55822Y-38390D01*
X55788Y-38409D01*
X55485Y-38653D02*
X55485Y-38447D01*
X55501Y-38409D01*
X55535Y-38390D01*
X55603Y-38390D01*
X55636Y-38409D01*
X55485Y-38634D02*
X55518Y-38653D01*
X55603Y-38653D01*
X55636Y-38634D01*
X55653Y-38597D01*
X55653Y-38559D01*
X55636Y-38522D01*
X55603Y-38503D01*
X55518Y-38503D01*
X55485Y-38484D01*
X55265Y-38653D02*
X55299Y-38634D01*
X55316Y-38597D01*
X55316Y-38259D01*
X54995Y-38634D02*
X55029Y-38653D01*
X55097Y-38653D01*
X55130Y-38634D01*
X55147Y-38597D01*
X55147Y-38447D01*
X55130Y-38409D01*
X55097Y-38390D01*
X55029Y-38390D01*
X54995Y-38409D01*
X54978Y-38447D01*
X54978Y-38484D01*
X55147Y-38522D01*
X54675Y-38653D02*
X54675Y-38259D01*
X54675Y-38634D02*
X54708Y-38653D01*
X54776Y-38653D01*
X54810Y-38634D01*
X54827Y-38615D01*
X54843Y-38578D01*
X54843Y-38465D01*
X54827Y-38428D01*
X54810Y-38409D01*
X54776Y-38390D01*
X54708Y-38390D01*
X54675Y-38409D01*
X54236Y-38653D02*
X54236Y-38259D01*
X54236Y-38409D02*
X54202Y-38390D01*
X54135Y-38390D01*
X54101Y-38409D01*
X54084Y-38428D01*
X54067Y-38465D01*
X54067Y-38578D01*
X54084Y-38615D01*
X54101Y-38634D01*
X54135Y-38653D01*
X54202Y-38653D01*
X54236Y-38634D01*
X53949Y-38390D02*
X53865Y-38653D01*
X53780Y-38390D02*
X53865Y-38653D01*
X53899Y-38747D01*
X53915Y-38765D01*
X53949Y-38784D01*
X53375Y-38503D02*
X53106Y-38503D01*
X53241Y-38653D02*
X53241Y-38353D01*
X52768Y-38259D02*
X52937Y-38259D01*
X52954Y-38447D01*
X52937Y-38428D01*
X52903Y-38409D01*
X52819Y-38409D01*
X52785Y-38428D01*
X52768Y-38447D01*
X52751Y-38484D01*
X52751Y-38578D01*
X52768Y-38615D01*
X52785Y-38634D01*
X52819Y-38653D01*
X52903Y-38653D01*
X52937Y-38634D01*
X52954Y-38615D01*
X52532Y-38259D02*
X52498Y-38259D01*
X52464Y-38278D01*
X52447Y-38297D01*
X52431Y-38334D01*
X52414Y-38409D01*
X52414Y-38503D01*
X52431Y-38578D01*
X52447Y-38615D01*
X52464Y-38634D01*
X52498Y-38653D01*
X52532Y-38653D01*
X52566Y-38634D01*
X52582Y-38615D01*
X52599Y-38578D01*
X52616Y-38503D01*
X52616Y-38409D01*
X52599Y-38334D01*
X52582Y-38297D01*
X52566Y-38278D01*
X52532Y-38259D01*
X52296Y-38653D02*
X52110Y-38390D01*
X52296Y-38390D02*
X52110Y-38653D01*
X56919Y-39283D02*
X56919Y-39077D01*
X56936Y-39039D01*
X56969Y-39020D01*
X57037Y-39020D01*
X57071Y-39039D01*
X56919Y-39264D02*
X56953Y-39283D01*
X57037Y-39283D01*
X57071Y-39264D01*
X57088Y-39227D01*
X57088Y-39189D01*
X57071Y-39152D01*
X57037Y-39133D01*
X56953Y-39133D01*
X56919Y-39114D01*
X56750Y-39020D02*
X56750Y-39283D01*
X56750Y-39058D02*
X56733Y-39039D01*
X56699Y-39020D01*
X56649Y-39020D01*
X56615Y-39039D01*
X56598Y-39077D01*
X56598Y-39283D01*
X56278Y-39283D02*
X56278Y-38889D01*
X56278Y-39264D02*
X56311Y-39283D01*
X56379Y-39283D01*
X56413Y-39264D01*
X56429Y-39245D01*
X56446Y-39208D01*
X56446Y-39095D01*
X56429Y-39058D01*
X56413Y-39039D01*
X56379Y-39020D01*
X56311Y-39020D01*
X56278Y-39039D01*
X55873Y-39020D02*
X55788Y-39283D01*
X55704Y-39020D01*
X55518Y-39283D02*
X55552Y-39264D01*
X55569Y-39245D01*
X55586Y-39208D01*
X55586Y-39095D01*
X55569Y-39058D01*
X55552Y-39039D01*
X55518Y-39020D01*
X55468Y-39020D01*
X55434Y-39039D01*
X55417Y-39058D01*
X55400Y-39095D01*
X55400Y-39208D01*
X55417Y-39245D01*
X55434Y-39264D01*
X55468Y-39283D01*
X55518Y-39283D01*
X55198Y-39283D02*
X55232Y-39264D01*
X55248Y-39227D01*
X55248Y-38889D01*
X55113Y-39020D02*
X54978Y-39020D01*
X55063Y-38889D02*
X55063Y-39227D01*
X55046Y-39264D01*
X55012Y-39283D01*
X54978Y-39283D01*
X54708Y-39283D02*
X54708Y-39077D01*
X54725Y-39039D01*
X54759Y-39020D01*
X54827Y-39020D01*
X54860Y-39039D01*
X54708Y-39264D02*
X54742Y-39283D01*
X54827Y-39283D01*
X54860Y-39264D01*
X54877Y-39227D01*
X54877Y-39189D01*
X54860Y-39152D01*
X54827Y-39133D01*
X54742Y-39133D01*
X54708Y-39114D01*
X54388Y-39020D02*
X54388Y-39339D01*
X54405Y-39377D01*
X54422Y-39395D01*
X54455Y-39414D01*
X54506Y-39414D01*
X54540Y-39395D01*
X54388Y-39264D02*
X54422Y-39283D01*
X54489Y-39283D01*
X54523Y-39264D01*
X54540Y-39245D01*
X54557Y-39208D01*
X54557Y-39095D01*
X54540Y-39058D01*
X54523Y-39039D01*
X54489Y-39020D01*
X54422Y-39020D01*
X54388Y-39039D01*
X54084Y-39264D02*
X54118Y-39283D01*
X54185Y-39283D01*
X54219Y-39264D01*
X54236Y-39227D01*
X54236Y-39077D01*
X54219Y-39039D01*
X54185Y-39020D01*
X54118Y-39020D01*
X54084Y-39039D01*
X54067Y-39077D01*
X54067Y-39114D01*
X54236Y-39152D01*
X53932Y-39264D02*
X53899Y-39283D01*
X53831Y-39283D01*
X53797Y-39264D01*
X53780Y-39227D01*
X53780Y-39208D01*
X53797Y-39170D01*
X53831Y-39152D01*
X53882Y-39152D01*
X53915Y-39133D01*
X53932Y-39095D01*
X53932Y-39077D01*
X53915Y-39039D01*
X53882Y-39020D01*
X53831Y-39020D01*
X53797Y-39039D01*
X53207Y-39283D02*
X53207Y-39077D01*
X53224Y-39039D01*
X53257Y-39020D01*
X53325Y-39020D01*
X53359Y-39039D01*
X53207Y-39264D02*
X53241Y-39283D01*
X53325Y-39283D01*
X53359Y-39264D01*
X53375Y-39227D01*
X53375Y-39189D01*
X53359Y-39152D01*
X53325Y-39133D01*
X53241Y-39133D01*
X53207Y-39114D01*
X53038Y-39283D02*
X53038Y-39020D01*
X53038Y-39095D02*
X53021Y-39058D01*
X53004Y-39039D01*
X52971Y-39020D01*
X52937Y-39020D01*
X52684Y-39264D02*
X52717Y-39283D01*
X52785Y-39283D01*
X52819Y-39264D01*
X52836Y-39227D01*
X52836Y-39077D01*
X52819Y-39039D01*
X52785Y-39020D01*
X52717Y-39020D01*
X52684Y-39039D01*
X52667Y-39077D01*
X52667Y-39114D01*
X52836Y-39152D01*
X57088Y-39894D02*
X57054Y-39913D01*
X56986Y-39913D01*
X56953Y-39894D01*
X56936Y-39857D01*
X56936Y-39838D01*
X56953Y-39800D01*
X56986Y-39782D01*
X57037Y-39782D01*
X57071Y-39763D01*
X57088Y-39725D01*
X57088Y-39707D01*
X57071Y-39669D01*
X57037Y-39650D01*
X56986Y-39650D01*
X56953Y-39669D01*
X56632Y-39894D02*
X56666Y-39913D01*
X56733Y-39913D01*
X56767Y-39894D01*
X56784Y-39875D01*
X56801Y-39838D01*
X56801Y-39725D01*
X56784Y-39688D01*
X56767Y-39669D01*
X56733Y-39650D01*
X56666Y-39650D01*
X56632Y-39669D01*
X56328Y-39913D02*
X56328Y-39707D01*
X56345Y-39669D01*
X56379Y-39650D01*
X56446Y-39650D01*
X56480Y-39669D01*
X56328Y-39894D02*
X56362Y-39913D01*
X56446Y-39913D01*
X56480Y-39894D01*
X56497Y-39857D01*
X56497Y-39819D01*
X56480Y-39782D01*
X56446Y-39763D01*
X56362Y-39763D01*
X56328Y-39744D01*
X56109Y-39913D02*
X56143Y-39894D01*
X56160Y-39857D01*
X56160Y-39519D01*
X55839Y-39894D02*
X55873Y-39913D01*
X55940Y-39913D01*
X55974Y-39894D01*
X55991Y-39857D01*
X55991Y-39707D01*
X55974Y-39669D01*
X55940Y-39650D01*
X55873Y-39650D01*
X55839Y-39669D01*
X55822Y-39707D01*
X55822Y-39744D01*
X55991Y-39782D01*
X55518Y-39913D02*
X55518Y-39519D01*
X55518Y-39894D02*
X55552Y-39913D01*
X55620Y-39913D01*
X55653Y-39894D01*
X55670Y-39875D01*
X55687Y-39838D01*
X55687Y-39725D01*
X55670Y-39688D01*
X55653Y-39669D01*
X55620Y-39650D01*
X55552Y-39650D01*
X55518Y-39669D01*
X55080Y-39913D02*
X55080Y-39519D01*
X55080Y-39669D02*
X55046Y-39650D01*
X54978Y-39650D01*
X54945Y-39669D01*
X54928Y-39688D01*
X54911Y-39725D01*
X54911Y-39838D01*
X54928Y-39875D01*
X54945Y-39894D01*
X54978Y-39913D01*
X55046Y-39913D01*
X55080Y-39894D01*
X54793Y-39650D02*
X54708Y-39913D01*
X54624Y-39650D02*
X54708Y-39913D01*
X54742Y-40007D01*
X54759Y-40025D01*
X54793Y-40044D01*
X54219Y-39763D02*
X53949Y-39763D01*
X54084Y-39913D02*
X54084Y-39613D01*
X53713Y-39519D02*
X53679Y-39519D01*
X53645Y-39538D01*
X53629Y-39557D01*
X53612Y-39594D01*
X53595Y-39669D01*
X53595Y-39763D01*
X53612Y-39838D01*
X53629Y-39875D01*
X53645Y-39894D01*
X53679Y-39913D01*
X53713Y-39913D01*
X53747Y-39894D01*
X53764Y-39875D01*
X53780Y-39838D01*
X53797Y-39763D01*
X53797Y-39669D01*
X53780Y-39594D01*
X53764Y-39557D01*
X53747Y-39538D01*
X53713Y-39519D01*
X53443Y-39875D02*
X53426Y-39894D01*
X53443Y-39913D01*
X53460Y-39894D01*
X53443Y-39875D01*
X53443Y-39913D01*
X53106Y-39519D02*
X53274Y-39519D01*
X53291Y-39707D01*
X53274Y-39688D01*
X53241Y-39669D01*
X53156Y-39669D01*
X53122Y-39688D01*
X53106Y-39707D01*
X53089Y-39744D01*
X53089Y-39838D01*
X53106Y-39875D01*
X53122Y-39894D01*
X53156Y-39913D01*
X53241Y-39913D01*
X53274Y-39894D01*
X53291Y-39875D01*
X52971Y-39913D02*
X52785Y-39650D01*
X52971Y-39650D02*
X52785Y-39913D01*
X51864Y-33604D02*
X51864Y-33210D01*
X51771Y-33210D01*
X51714Y-33229D01*
X51677Y-33266D01*
X51658Y-33304D01*
X51639Y-33379D01*
X51639Y-33435D01*
X51658Y-33510D01*
X51677Y-33547D01*
X51714Y-33585D01*
X51771Y-33604D01*
X51864Y-33604D01*
X51471Y-33604D02*
X51471Y-33341D01*
X51471Y-33210D02*
X51489Y-33229D01*
X51471Y-33248D01*
X51452Y-33229D01*
X51471Y-33210D01*
X51471Y-33248D01*
X51302Y-33585D02*
X51264Y-33604D01*
X51190Y-33604D01*
X51152Y-33585D01*
X51133Y-33547D01*
X51133Y-33529D01*
X51152Y-33491D01*
X51190Y-33473D01*
X51246Y-33473D01*
X51283Y-33454D01*
X51302Y-33416D01*
X51302Y-33398D01*
X51283Y-33360D01*
X51246Y-33341D01*
X51190Y-33341D01*
X51152Y-33360D01*
X50796Y-33585D02*
X50833Y-33604D01*
X50908Y-33604D01*
X50946Y-33585D01*
X50965Y-33566D01*
X50983Y-33529D01*
X50983Y-33416D01*
X50965Y-33379D01*
X50946Y-33360D01*
X50908Y-33341D01*
X50833Y-33341D01*
X50796Y-33360D01*
X50571Y-33604D02*
X50608Y-33585D01*
X50627Y-33566D01*
X50646Y-33529D01*
X50646Y-33416D01*
X50627Y-33379D01*
X50608Y-33360D01*
X50571Y-33341D01*
X50515Y-33341D01*
X50477Y-33360D01*
X50458Y-33379D01*
X50440Y-33416D01*
X50440Y-33529D01*
X50458Y-33566D01*
X50477Y-33585D01*
X50515Y-33604D01*
X50571Y-33604D01*
X50308Y-33341D02*
X50215Y-33604D01*
X50121Y-33341D01*
X49821Y-33585D02*
X49858Y-33604D01*
X49933Y-33604D01*
X49971Y-33585D01*
X49990Y-33547D01*
X49990Y-33398D01*
X49971Y-33360D01*
X49933Y-33341D01*
X49858Y-33341D01*
X49821Y-33360D01*
X49802Y-33398D01*
X49802Y-33435D01*
X49990Y-33473D01*
X49633Y-33604D02*
X49633Y-33341D01*
X49633Y-33416D02*
X49615Y-33379D01*
X49596Y-33360D01*
X49558Y-33341D01*
X49521Y-33341D01*
X49427Y-33341D02*
X49333Y-33604D01*
X49240Y-33341D02*
X49333Y-33604D01*
X49371Y-33697D01*
X49390Y-33716D01*
X49427Y-33735D01*
X48659Y-33398D02*
X48602Y-33416D01*
X48584Y-33435D01*
X48565Y-33473D01*
X48565Y-33529D01*
X48584Y-33566D01*
X48602Y-33585D01*
X48640Y-33604D01*
X48790Y-33604D01*
X48790Y-33210D01*
X48659Y-33210D01*
X48621Y-33229D01*
X48602Y-33248D01*
X48584Y-33285D01*
X48584Y-33323D01*
X48602Y-33360D01*
X48621Y-33379D01*
X48659Y-33398D01*
X48790Y-33398D01*
X48340Y-33604D02*
X48377Y-33585D01*
X48396Y-33566D01*
X48415Y-33529D01*
X48415Y-33416D01*
X48396Y-33379D01*
X48377Y-33360D01*
X48340Y-33341D01*
X48284Y-33341D01*
X48246Y-33360D01*
X48227Y-33379D01*
X48209Y-33416D01*
X48209Y-33529D01*
X48227Y-33566D01*
X48246Y-33585D01*
X48284Y-33604D01*
X48340Y-33604D01*
X47871Y-33604D02*
X47871Y-33398D01*
X47890Y-33360D01*
X47927Y-33341D01*
X48002Y-33341D01*
X48040Y-33360D01*
X47871Y-33585D02*
X47909Y-33604D01*
X48002Y-33604D01*
X48040Y-33585D01*
X48059Y-33547D01*
X48059Y-33510D01*
X48040Y-33473D01*
X48002Y-33454D01*
X47909Y-33454D01*
X47871Y-33435D01*
X47684Y-33604D02*
X47684Y-33341D01*
X47684Y-33416D02*
X47665Y-33379D01*
X47646Y-33360D01*
X47609Y-33341D01*
X47571Y-33341D01*
X47271Y-33604D02*
X47271Y-33210D01*
X47271Y-33585D02*
X47309Y-33604D01*
X47384Y-33604D01*
X47421Y-33585D01*
X47440Y-33566D01*
X47459Y-33529D01*
X47459Y-33416D01*
X47440Y-33379D01*
X47421Y-33360D01*
X47384Y-33341D01*
X47309Y-33341D01*
X47271Y-33360D01*
X46559Y-33566D02*
X46578Y-33585D01*
X46634Y-33604D01*
X46671Y-33604D01*
X46728Y-33585D01*
X46765Y-33547D01*
X46784Y-33510D01*
X46803Y-33435D01*
X46803Y-33379D01*
X46784Y-33304D01*
X46765Y-33266D01*
X46728Y-33229D01*
X46671Y-33210D01*
X46634Y-33210D01*
X46578Y-33229D01*
X46559Y-33248D01*
X46334Y-33604D02*
X46371Y-33585D01*
X46390Y-33566D01*
X46409Y-33529D01*
X46409Y-33416D01*
X46390Y-33379D01*
X46371Y-33360D01*
X46334Y-33341D01*
X46278Y-33341D01*
X46240Y-33360D01*
X46221Y-33379D01*
X46203Y-33416D01*
X46203Y-33529D01*
X46221Y-33566D01*
X46240Y-33585D01*
X46278Y-33604D01*
X46334Y-33604D01*
X46034Y-33341D02*
X46034Y-33604D01*
X46034Y-33379D02*
X46015Y-33360D01*
X45978Y-33341D01*
X45921Y-33341D01*
X45884Y-33360D01*
X45865Y-33398D01*
X45865Y-33604D01*
X45678Y-33341D02*
X45678Y-33604D01*
X45678Y-33379D02*
X45659Y-33360D01*
X45621Y-33341D01*
X45565Y-33341D01*
X45528Y-33360D01*
X45509Y-33398D01*
X45509Y-33604D01*
X45172Y-33585D02*
X45209Y-33604D01*
X45284Y-33604D01*
X45321Y-33585D01*
X45340Y-33547D01*
X45340Y-33398D01*
X45321Y-33360D01*
X45284Y-33341D01*
X45209Y-33341D01*
X45172Y-33360D01*
X45153Y-33398D01*
X45153Y-33435D01*
X45340Y-33473D01*
X44815Y-33585D02*
X44853Y-33604D01*
X44928Y-33604D01*
X44965Y-33585D01*
X44984Y-33566D01*
X45003Y-33529D01*
X45003Y-33416D01*
X44984Y-33379D01*
X44965Y-33360D01*
X44928Y-33341D01*
X44853Y-33341D01*
X44815Y-33360D01*
X44703Y-33341D02*
X44553Y-33341D01*
X44647Y-33210D02*
X44647Y-33547D01*
X44628Y-33585D01*
X44590Y-33604D01*
X44553Y-33604D01*
X44422Y-33604D02*
X44422Y-33341D01*
X44422Y-33210D02*
X44440Y-33229D01*
X44422Y-33248D01*
X44403Y-33229D01*
X44422Y-33210D01*
X44422Y-33248D01*
X44178Y-33604D02*
X44215Y-33585D01*
X44234Y-33566D01*
X44253Y-33529D01*
X44253Y-33416D01*
X44234Y-33379D01*
X44215Y-33360D01*
X44178Y-33341D01*
X44122Y-33341D01*
X44084Y-33360D01*
X44065Y-33379D01*
X44047Y-33416D01*
X44047Y-33529D01*
X44065Y-33566D01*
X44084Y-33585D01*
X44122Y-33604D01*
X44178Y-33604D01*
X43878Y-33341D02*
X43878Y-33604D01*
X43878Y-33379D02*
X43859Y-33360D01*
X43822Y-33341D01*
X43765Y-33341D01*
X43728Y-33360D01*
X43709Y-33398D01*
X43709Y-33604D01*
X43540Y-33585D02*
X43503Y-33604D01*
X43428Y-33604D01*
X43390Y-33585D01*
X43372Y-33547D01*
X43372Y-33529D01*
X43390Y-33491D01*
X43428Y-33473D01*
X43484Y-33473D01*
X43522Y-33454D01*
X43540Y-33416D01*
X43540Y-33398D01*
X43522Y-33360D01*
X43484Y-33341D01*
X43428Y-33341D01*
X43390Y-33360D01*
X51921Y-34084D02*
X51621Y-34084D01*
X51433Y-34084D02*
X51133Y-34084D01*
X50946Y-34084D02*
X50646Y-34084D01*
X50458Y-34084D02*
X50158Y-34084D01*
X49971Y-34084D02*
X49671Y-34084D01*
X49483Y-34084D02*
X49184Y-34084D01*
X48996Y-34084D02*
X48696Y-34084D01*
X48509Y-34084D02*
X48209Y-34084D01*
X48021Y-34084D02*
X47721Y-34084D01*
X47534Y-34084D02*
X47234Y-34084D01*
X47046Y-34084D02*
X46746Y-34084D01*
X46559Y-34084D02*
X46259Y-34084D01*
X46071Y-34084D02*
X45771Y-34084D01*
X45584Y-34084D02*
X45284Y-34084D01*
X45097Y-34084D02*
X44797Y-34084D01*
X44609Y-34084D02*
X44309Y-34084D01*
X44122Y-34084D02*
X43822Y-34084D01*
X43634Y-34084D02*
X43334Y-34084D01*
X50665Y-35494D02*
X50665Y-35100D01*
X50477Y-35231D02*
X50477Y-35494D01*
X50477Y-35269D02*
X50458Y-35250D01*
X50421Y-35231D01*
X50365Y-35231D01*
X50327Y-35250D01*
X50308Y-35287D01*
X50308Y-35494D01*
X50121Y-35231D02*
X50121Y-35625D01*
X50121Y-35250D02*
X50083Y-35231D01*
X50008Y-35231D01*
X49971Y-35250D01*
X49952Y-35269D01*
X49933Y-35306D01*
X49933Y-35419D01*
X49952Y-35456D01*
X49971Y-35475D01*
X50008Y-35494D01*
X50083Y-35494D01*
X50121Y-35475D01*
X49596Y-35231D02*
X49596Y-35494D01*
X49765Y-35231D02*
X49765Y-35437D01*
X49746Y-35475D01*
X49708Y-35494D01*
X49652Y-35494D01*
X49615Y-35475D01*
X49596Y-35456D01*
X49465Y-35231D02*
X49315Y-35231D01*
X49408Y-35100D02*
X49408Y-35437D01*
X49390Y-35475D01*
X49352Y-35494D01*
X49315Y-35494D01*
X48677Y-35494D02*
X48902Y-35494D01*
X48790Y-35494D02*
X48790Y-35100D01*
X48827Y-35156D01*
X48865Y-35194D01*
X48902Y-35212D01*
X47984Y-35456D02*
X48002Y-35475D01*
X48059Y-35494D01*
X48096Y-35494D01*
X48152Y-35475D01*
X48190Y-35437D01*
X48209Y-35400D01*
X48227Y-35325D01*
X48227Y-35269D01*
X48209Y-35194D01*
X48190Y-35156D01*
X48152Y-35119D01*
X48096Y-35100D01*
X48059Y-35100D01*
X48002Y-35119D01*
X47984Y-35137D01*
X47646Y-35231D02*
X47646Y-35494D01*
X47815Y-35231D02*
X47815Y-35437D01*
X47796Y-35475D01*
X47759Y-35494D01*
X47702Y-35494D01*
X47665Y-35475D01*
X47646Y-35456D01*
X47459Y-35494D02*
X47459Y-35231D01*
X47459Y-35306D02*
X47440Y-35269D01*
X47421Y-35250D01*
X47384Y-35231D01*
X47346Y-35231D01*
X47215Y-35494D02*
X47215Y-35231D01*
X47215Y-35306D02*
X47196Y-35269D01*
X47178Y-35250D01*
X47140Y-35231D01*
X47103Y-35231D01*
X46821Y-35475D02*
X46859Y-35494D01*
X46934Y-35494D01*
X46971Y-35475D01*
X46990Y-35437D01*
X46990Y-35287D01*
X46971Y-35250D01*
X46934Y-35231D01*
X46859Y-35231D01*
X46821Y-35250D01*
X46803Y-35287D01*
X46803Y-35325D01*
X46990Y-35362D01*
X46634Y-35231D02*
X46634Y-35494D01*
X46634Y-35269D02*
X46615Y-35250D01*
X46578Y-35231D01*
X46521Y-35231D01*
X46484Y-35250D01*
X46465Y-35287D01*
X46465Y-35494D01*
X46334Y-35231D02*
X46184Y-35231D01*
X46278Y-35100D02*
X46278Y-35437D01*
X46259Y-35475D01*
X46221Y-35494D01*
X46184Y-35494D01*
X46053Y-35456D02*
X46034Y-35475D01*
X46053Y-35494D01*
X46071Y-35475D01*
X46053Y-35456D01*
X46053Y-35494D01*
X46053Y-35250D02*
X46034Y-35269D01*
X46053Y-35287D01*
X46071Y-35269D01*
X46053Y-35250D01*
X46053Y-35287D01*
X45565Y-35494D02*
X45565Y-35100D01*
X45415Y-35100D01*
X45378Y-35119D01*
X45359Y-35137D01*
X45340Y-35175D01*
X45340Y-35231D01*
X45359Y-35269D01*
X45378Y-35287D01*
X45415Y-35306D01*
X45565Y-35306D01*
X44947Y-35456D02*
X44965Y-35475D01*
X45022Y-35494D01*
X45059Y-35494D01*
X45115Y-35475D01*
X45153Y-35437D01*
X45172Y-35400D01*
X45190Y-35325D01*
X45190Y-35269D01*
X45172Y-35194D01*
X45153Y-35156D01*
X45115Y-35119D01*
X45059Y-35100D01*
X45022Y-35100D01*
X44965Y-35119D01*
X44947Y-35137D01*
X44797Y-35137D02*
X44778Y-35119D01*
X44740Y-35100D01*
X44647Y-35100D01*
X44609Y-35119D01*
X44590Y-35137D01*
X44572Y-35175D01*
X44572Y-35212D01*
X44590Y-35269D01*
X44815Y-35494D01*
X44572Y-35494D01*
X50646Y-36123D02*
X50646Y-35730D01*
X50458Y-35861D02*
X50458Y-36123D01*
X50458Y-35898D02*
X50440Y-35880D01*
X50402Y-35861D01*
X50346Y-35861D01*
X50308Y-35880D01*
X50290Y-35917D01*
X50290Y-36123D01*
X50102Y-35861D02*
X50102Y-36255D01*
X50102Y-35880D02*
X50065Y-35861D01*
X49990Y-35861D01*
X49952Y-35880D01*
X49933Y-35898D01*
X49915Y-35936D01*
X49915Y-36048D01*
X49933Y-36086D01*
X49952Y-36105D01*
X49990Y-36123D01*
X50065Y-36123D01*
X50102Y-36105D01*
X49577Y-35861D02*
X49577Y-36123D01*
X49746Y-35861D02*
X49746Y-36067D01*
X49727Y-36105D01*
X49690Y-36123D01*
X49633Y-36123D01*
X49596Y-36105D01*
X49577Y-36086D01*
X49446Y-35861D02*
X49296Y-35861D01*
X49390Y-35730D02*
X49390Y-36067D01*
X49371Y-36105D01*
X49333Y-36123D01*
X49296Y-36123D01*
X48659Y-36123D02*
X48884Y-36123D01*
X48771Y-36123D02*
X48771Y-35730D01*
X48809Y-35786D01*
X48846Y-35823D01*
X48884Y-35842D01*
X48246Y-35730D02*
X48115Y-36123D01*
X47984Y-35730D01*
X47796Y-36123D02*
X47834Y-36105D01*
X47852Y-36086D01*
X47871Y-36048D01*
X47871Y-35936D01*
X47852Y-35898D01*
X47834Y-35880D01*
X47796Y-35861D01*
X47740Y-35861D01*
X47702Y-35880D01*
X47684Y-35898D01*
X47665Y-35936D01*
X47665Y-36048D01*
X47684Y-36086D01*
X47702Y-36105D01*
X47740Y-36123D01*
X47796Y-36123D01*
X47440Y-36123D02*
X47477Y-36105D01*
X47496Y-36067D01*
X47496Y-35730D01*
X47346Y-35861D02*
X47196Y-35861D01*
X47290Y-35730D02*
X47290Y-36067D01*
X47271Y-36105D01*
X47234Y-36123D01*
X47196Y-36123D01*
X46896Y-36123D02*
X46896Y-35917D01*
X46915Y-35880D01*
X46953Y-35861D01*
X47028Y-35861D01*
X47065Y-35880D01*
X46896Y-36105D02*
X46934Y-36123D01*
X47028Y-36123D01*
X47065Y-36105D01*
X47084Y-36067D01*
X47084Y-36030D01*
X47065Y-35992D01*
X47028Y-35973D01*
X46934Y-35973D01*
X46896Y-35955D01*
X46540Y-35861D02*
X46540Y-36180D01*
X46559Y-36217D01*
X46578Y-36236D01*
X46615Y-36255D01*
X46671Y-36255D01*
X46709Y-36236D01*
X46540Y-36105D02*
X46578Y-36123D01*
X46653Y-36123D01*
X46690Y-36105D01*
X46709Y-36086D01*
X46728Y-36048D01*
X46728Y-35936D01*
X46709Y-35898D01*
X46690Y-35880D01*
X46653Y-35861D01*
X46578Y-35861D01*
X46540Y-35880D01*
X46203Y-36105D02*
X46240Y-36123D01*
X46315Y-36123D01*
X46353Y-36105D01*
X46371Y-36067D01*
X46371Y-35917D01*
X46353Y-35880D01*
X46315Y-35861D01*
X46240Y-35861D01*
X46203Y-35880D01*
X46184Y-35917D01*
X46184Y-35955D01*
X46371Y-35992D01*
X46015Y-36086D02*
X45996Y-36105D01*
X46015Y-36123D01*
X46034Y-36105D01*
X46015Y-36086D01*
X46015Y-36123D01*
X46015Y-35880D02*
X45996Y-35898D01*
X46015Y-35917D01*
X46034Y-35898D01*
X46015Y-35880D01*
X46015Y-35917D01*
X45528Y-36123D02*
X45528Y-35730D01*
X45378Y-35730D01*
X45340Y-35748D01*
X45321Y-35767D01*
X45303Y-35805D01*
X45303Y-35861D01*
X45321Y-35898D01*
X45340Y-35917D01*
X45378Y-35936D01*
X45528Y-35936D01*
X45153Y-36011D02*
X44965Y-36011D01*
X45190Y-36123D02*
X45059Y-35730D01*
X44928Y-36123D01*
X44815Y-35767D02*
X44797Y-35748D01*
X44759Y-35730D01*
X44665Y-35730D01*
X44628Y-35748D01*
X44609Y-35767D01*
X44590Y-35805D01*
X44590Y-35842D01*
X44609Y-35898D01*
X44834Y-36123D01*
X44590Y-36123D01*
X50636Y-36753D02*
X50636Y-36360D01*
X50449Y-36491D02*
X50449Y-36753D01*
X50449Y-36528D02*
X50430Y-36510D01*
X50393Y-36491D01*
X50336Y-36491D01*
X50299Y-36510D01*
X50280Y-36547D01*
X50280Y-36753D01*
X50093Y-36491D02*
X50093Y-36885D01*
X50093Y-36510D02*
X50055Y-36491D01*
X49980Y-36491D01*
X49943Y-36510D01*
X49924Y-36528D01*
X49905Y-36566D01*
X49905Y-36678D01*
X49924Y-36716D01*
X49943Y-36735D01*
X49980Y-36753D01*
X50055Y-36753D01*
X50093Y-36735D01*
X49568Y-36491D02*
X49568Y-36753D01*
X49737Y-36491D02*
X49737Y-36697D01*
X49718Y-36735D01*
X49680Y-36753D01*
X49624Y-36753D01*
X49587Y-36735D01*
X49568Y-36716D01*
X49437Y-36491D02*
X49287Y-36491D01*
X49380Y-36360D02*
X49380Y-36697D01*
X49362Y-36735D01*
X49324Y-36753D01*
X49287Y-36753D01*
X48874Y-36397D02*
X48855Y-36378D01*
X48818Y-36360D01*
X48724Y-36360D01*
X48687Y-36378D01*
X48668Y-36397D01*
X48649Y-36435D01*
X48649Y-36472D01*
X48668Y-36528D01*
X48893Y-36753D01*
X48649Y-36753D01*
X47956Y-36716D02*
X47974Y-36735D01*
X48031Y-36753D01*
X48068Y-36753D01*
X48124Y-36735D01*
X48162Y-36697D01*
X48181Y-36660D01*
X48199Y-36585D01*
X48199Y-36528D01*
X48181Y-36453D01*
X48162Y-36416D01*
X48124Y-36378D01*
X48068Y-36360D01*
X48031Y-36360D01*
X47974Y-36378D01*
X47956Y-36397D01*
X47618Y-36491D02*
X47618Y-36753D01*
X47787Y-36491D02*
X47787Y-36697D01*
X47768Y-36735D01*
X47731Y-36753D01*
X47674Y-36753D01*
X47637Y-36735D01*
X47618Y-36716D01*
X47431Y-36753D02*
X47431Y-36491D01*
X47431Y-36566D02*
X47412Y-36528D01*
X47393Y-36510D01*
X47356Y-36491D01*
X47318Y-36491D01*
X47187Y-36753D02*
X47187Y-36491D01*
X47187Y-36566D02*
X47168Y-36528D01*
X47149Y-36510D01*
X47112Y-36491D01*
X47074Y-36491D01*
X46793Y-36735D02*
X46831Y-36753D01*
X46906Y-36753D01*
X46943Y-36735D01*
X46962Y-36697D01*
X46962Y-36547D01*
X46943Y-36510D01*
X46906Y-36491D01*
X46831Y-36491D01*
X46793Y-36510D01*
X46774Y-36547D01*
X46774Y-36585D01*
X46962Y-36622D01*
X46606Y-36491D02*
X46606Y-36753D01*
X46606Y-36528D02*
X46587Y-36510D01*
X46549Y-36491D01*
X46493Y-36491D01*
X46456Y-36510D01*
X46437Y-36547D01*
X46437Y-36753D01*
X46306Y-36491D02*
X46156Y-36491D01*
X46249Y-36360D02*
X46249Y-36697D01*
X46231Y-36735D01*
X46193Y-36753D01*
X46156Y-36753D01*
X46025Y-36716D02*
X46006Y-36735D01*
X46025Y-36753D01*
X46043Y-36735D01*
X46025Y-36716D01*
X46025Y-36753D01*
X46025Y-36510D02*
X46006Y-36528D01*
X46025Y-36547D01*
X46043Y-36528D01*
X46025Y-36510D01*
X46025Y-36547D01*
X45537Y-36753D02*
X45537Y-36360D01*
X45387Y-36360D01*
X45350Y-36378D01*
X45331Y-36397D01*
X45312Y-36435D01*
X45312Y-36491D01*
X45331Y-36528D01*
X45350Y-36547D01*
X45387Y-36566D01*
X45537Y-36566D01*
X45162Y-36641D02*
X44975Y-36641D01*
X45200Y-36753D02*
X45068Y-36360D01*
X44937Y-36753D01*
X44600Y-36753D02*
X44825Y-36753D01*
X44712Y-36753D02*
X44712Y-36360D01*
X44750Y-36416D01*
X44787Y-36453D01*
X44825Y-36472D01*
X50646Y-37383D02*
X50646Y-36990D01*
X50458Y-37121D02*
X50458Y-37383D01*
X50458Y-37158D02*
X50440Y-37140D01*
X50402Y-37121D01*
X50346Y-37121D01*
X50308Y-37140D01*
X50290Y-37177D01*
X50290Y-37383D01*
X50102Y-37121D02*
X50102Y-37514D01*
X50102Y-37140D02*
X50065Y-37121D01*
X49990Y-37121D01*
X49952Y-37140D01*
X49933Y-37158D01*
X49915Y-37196D01*
X49915Y-37308D01*
X49933Y-37346D01*
X49952Y-37365D01*
X49990Y-37383D01*
X50065Y-37383D01*
X50102Y-37365D01*
X49577Y-37121D02*
X49577Y-37383D01*
X49746Y-37121D02*
X49746Y-37327D01*
X49727Y-37365D01*
X49690Y-37383D01*
X49633Y-37383D01*
X49596Y-37365D01*
X49577Y-37346D01*
X49446Y-37121D02*
X49296Y-37121D01*
X49390Y-36990D02*
X49390Y-37327D01*
X49371Y-37365D01*
X49333Y-37383D01*
X49296Y-37383D01*
X48884Y-37027D02*
X48865Y-37008D01*
X48827Y-36990D01*
X48734Y-36990D01*
X48696Y-37008D01*
X48677Y-37027D01*
X48659Y-37065D01*
X48659Y-37102D01*
X48677Y-37158D01*
X48902Y-37383D01*
X48659Y-37383D01*
X48246Y-36990D02*
X48115Y-37383D01*
X47984Y-36990D01*
X47796Y-37383D02*
X47834Y-37365D01*
X47852Y-37346D01*
X47871Y-37308D01*
X47871Y-37196D01*
X47852Y-37158D01*
X47834Y-37140D01*
X47796Y-37121D01*
X47740Y-37121D01*
X47702Y-37140D01*
X47684Y-37158D01*
X47665Y-37196D01*
X47665Y-37308D01*
X47684Y-37346D01*
X47702Y-37365D01*
X47740Y-37383D01*
X47796Y-37383D01*
X47440Y-37383D02*
X47477Y-37365D01*
X47496Y-37327D01*
X47496Y-36990D01*
X47346Y-37121D02*
X47196Y-37121D01*
X47290Y-36990D02*
X47290Y-37327D01*
X47271Y-37365D01*
X47234Y-37383D01*
X47196Y-37383D01*
X46896Y-37383D02*
X46896Y-37177D01*
X46915Y-37140D01*
X46953Y-37121D01*
X47028Y-37121D01*
X47065Y-37140D01*
X46896Y-37365D02*
X46934Y-37383D01*
X47028Y-37383D01*
X47065Y-37365D01*
X47084Y-37327D01*
X47084Y-37290D01*
X47065Y-37252D01*
X47028Y-37233D01*
X46934Y-37233D01*
X46896Y-37215D01*
X46540Y-37121D02*
X46540Y-37440D01*
X46559Y-37477D01*
X46578Y-37496D01*
X46615Y-37514D01*
X46671Y-37514D01*
X46709Y-37496D01*
X46540Y-37365D02*
X46578Y-37383D01*
X46653Y-37383D01*
X46690Y-37365D01*
X46709Y-37346D01*
X46728Y-37308D01*
X46728Y-37196D01*
X46709Y-37158D01*
X46690Y-37140D01*
X46653Y-37121D01*
X46578Y-37121D01*
X46540Y-37140D01*
X46203Y-37365D02*
X46240Y-37383D01*
X46315Y-37383D01*
X46353Y-37365D01*
X46371Y-37327D01*
X46371Y-37177D01*
X46353Y-37140D01*
X46315Y-37121D01*
X46240Y-37121D01*
X46203Y-37140D01*
X46184Y-37177D01*
X46184Y-37215D01*
X46371Y-37252D01*
X46015Y-37346D02*
X45996Y-37365D01*
X46015Y-37383D01*
X46034Y-37365D01*
X46015Y-37346D01*
X46015Y-37383D01*
X46015Y-37140D02*
X45996Y-37158D01*
X46015Y-37177D01*
X46034Y-37158D01*
X46015Y-37140D01*
X46015Y-37177D01*
X45528Y-37383D02*
X45528Y-36990D01*
X45378Y-36990D01*
X45340Y-37008D01*
X45321Y-37027D01*
X45303Y-37065D01*
X45303Y-37121D01*
X45321Y-37158D01*
X45340Y-37177D01*
X45378Y-37196D01*
X45528Y-37196D01*
X45153Y-37271D02*
X44965Y-37271D01*
X45190Y-37383D02*
X45059Y-36990D01*
X44928Y-37383D01*
X44834Y-36990D02*
X44590Y-36990D01*
X44722Y-37140D01*
X44665Y-37140D01*
X44628Y-37158D01*
X44609Y-37177D01*
X44590Y-37215D01*
X44590Y-37308D01*
X44609Y-37346D01*
X44628Y-37365D01*
X44665Y-37383D01*
X44778Y-37383D01*
X44815Y-37365D01*
X44834Y-37346D01*
X50665Y-38013D02*
X50665Y-37619D01*
X50477Y-37751D02*
X50477Y-38013D01*
X50477Y-37788D02*
X50458Y-37769D01*
X50421Y-37751D01*
X50365Y-37751D01*
X50327Y-37769D01*
X50308Y-37807D01*
X50308Y-38013D01*
X50121Y-37751D02*
X50121Y-38144D01*
X50121Y-37769D02*
X50083Y-37751D01*
X50008Y-37751D01*
X49971Y-37769D01*
X49952Y-37788D01*
X49933Y-37826D01*
X49933Y-37938D01*
X49952Y-37976D01*
X49971Y-37994D01*
X50008Y-38013D01*
X50083Y-38013D01*
X50121Y-37994D01*
X49596Y-37751D02*
X49596Y-38013D01*
X49765Y-37751D02*
X49765Y-37957D01*
X49746Y-37994D01*
X49708Y-38013D01*
X49652Y-38013D01*
X49615Y-37994D01*
X49596Y-37976D01*
X49465Y-37751D02*
X49315Y-37751D01*
X49408Y-37619D02*
X49408Y-37957D01*
X49390Y-37994D01*
X49352Y-38013D01*
X49315Y-38013D01*
X48921Y-37619D02*
X48677Y-37619D01*
X48809Y-37769D01*
X48752Y-37769D01*
X48715Y-37788D01*
X48696Y-37807D01*
X48677Y-37844D01*
X48677Y-37938D01*
X48696Y-37976D01*
X48715Y-37994D01*
X48752Y-38013D01*
X48865Y-38013D01*
X48902Y-37994D01*
X48921Y-37976D01*
X47984Y-37976D02*
X48002Y-37994D01*
X48059Y-38013D01*
X48096Y-38013D01*
X48152Y-37994D01*
X48190Y-37957D01*
X48209Y-37919D01*
X48227Y-37844D01*
X48227Y-37788D01*
X48209Y-37713D01*
X48190Y-37676D01*
X48152Y-37638D01*
X48096Y-37619D01*
X48059Y-37619D01*
X48002Y-37638D01*
X47984Y-37657D01*
X47646Y-37751D02*
X47646Y-38013D01*
X47815Y-37751D02*
X47815Y-37957D01*
X47796Y-37994D01*
X47759Y-38013D01*
X47702Y-38013D01*
X47665Y-37994D01*
X47646Y-37976D01*
X47459Y-38013D02*
X47459Y-37751D01*
X47459Y-37826D02*
X47440Y-37788D01*
X47421Y-37769D01*
X47384Y-37751D01*
X47346Y-37751D01*
X47215Y-38013D02*
X47215Y-37751D01*
X47215Y-37826D02*
X47196Y-37788D01*
X47178Y-37769D01*
X47140Y-37751D01*
X47103Y-37751D01*
X46821Y-37994D02*
X46859Y-38013D01*
X46934Y-38013D01*
X46971Y-37994D01*
X46990Y-37957D01*
X46990Y-37807D01*
X46971Y-37769D01*
X46934Y-37751D01*
X46859Y-37751D01*
X46821Y-37769D01*
X46803Y-37807D01*
X46803Y-37844D01*
X46990Y-37882D01*
X46634Y-37751D02*
X46634Y-38013D01*
X46634Y-37788D02*
X46615Y-37769D01*
X46578Y-37751D01*
X46521Y-37751D01*
X46484Y-37769D01*
X46465Y-37807D01*
X46465Y-38013D01*
X46334Y-37751D02*
X46184Y-37751D01*
X46278Y-37619D02*
X46278Y-37957D01*
X46259Y-37994D01*
X46221Y-38013D01*
X46184Y-38013D01*
X46053Y-37976D02*
X46034Y-37994D01*
X46053Y-38013D01*
X46071Y-37994D01*
X46053Y-37976D01*
X46053Y-38013D01*
X46053Y-37769D02*
X46034Y-37788D01*
X46053Y-37807D01*
X46071Y-37788D01*
X46053Y-37769D01*
X46053Y-37807D01*
X45565Y-38013D02*
X45565Y-37619D01*
X45415Y-37619D01*
X45378Y-37638D01*
X45359Y-37657D01*
X45340Y-37694D01*
X45340Y-37751D01*
X45359Y-37788D01*
X45378Y-37807D01*
X45415Y-37826D01*
X45565Y-37826D01*
X44947Y-37976D02*
X44965Y-37994D01*
X45022Y-38013D01*
X45059Y-38013D01*
X45115Y-37994D01*
X45153Y-37957D01*
X45172Y-37919D01*
X45190Y-37844D01*
X45190Y-37788D01*
X45172Y-37713D01*
X45153Y-37676D01*
X45115Y-37638D01*
X45059Y-37619D01*
X45022Y-37619D01*
X44965Y-37638D01*
X44947Y-37657D01*
X44590Y-37619D02*
X44778Y-37619D01*
X44797Y-37807D01*
X44778Y-37788D01*
X44740Y-37769D01*
X44647Y-37769D01*
X44609Y-37788D01*
X44590Y-37807D01*
X44572Y-37844D01*
X44572Y-37938D01*
X44590Y-37976D01*
X44609Y-37994D01*
X44647Y-38013D01*
X44740Y-38013D01*
X44778Y-37994D01*
X44797Y-37976D01*
X50674Y-38643D02*
X50674Y-38249D01*
X50486Y-38381D02*
X50486Y-38643D01*
X50486Y-38418D02*
X50468Y-38399D01*
X50430Y-38381D01*
X50374Y-38381D01*
X50336Y-38399D01*
X50318Y-38437D01*
X50318Y-38643D01*
X50130Y-38381D02*
X50130Y-38774D01*
X50130Y-38399D02*
X50093Y-38381D01*
X50018Y-38381D01*
X49980Y-38399D01*
X49962Y-38418D01*
X49943Y-38456D01*
X49943Y-38568D01*
X49962Y-38606D01*
X49980Y-38624D01*
X50018Y-38643D01*
X50093Y-38643D01*
X50130Y-38624D01*
X49605Y-38381D02*
X49605Y-38643D01*
X49774Y-38381D02*
X49774Y-38587D01*
X49755Y-38624D01*
X49718Y-38643D01*
X49662Y-38643D01*
X49624Y-38624D01*
X49605Y-38606D01*
X49474Y-38381D02*
X49324Y-38381D01*
X49418Y-38249D02*
X49418Y-38587D01*
X49399Y-38624D01*
X49362Y-38643D01*
X49324Y-38643D01*
X48930Y-38249D02*
X48687Y-38249D01*
X48818Y-38399D01*
X48762Y-38399D01*
X48724Y-38418D01*
X48705Y-38437D01*
X48687Y-38474D01*
X48687Y-38568D01*
X48705Y-38606D01*
X48724Y-38624D01*
X48762Y-38643D01*
X48874Y-38643D01*
X48912Y-38624D01*
X48930Y-38606D01*
X48274Y-38249D02*
X48143Y-38643D01*
X48012Y-38249D01*
X47824Y-38643D02*
X47862Y-38624D01*
X47881Y-38606D01*
X47899Y-38568D01*
X47899Y-38456D01*
X47881Y-38418D01*
X47862Y-38399D01*
X47824Y-38381D01*
X47768Y-38381D01*
X47731Y-38399D01*
X47712Y-38418D01*
X47693Y-38456D01*
X47693Y-38568D01*
X47712Y-38606D01*
X47731Y-38624D01*
X47768Y-38643D01*
X47824Y-38643D01*
X47468Y-38643D02*
X47506Y-38624D01*
X47524Y-38587D01*
X47524Y-38249D01*
X47374Y-38381D02*
X47224Y-38381D01*
X47318Y-38249D02*
X47318Y-38587D01*
X47299Y-38624D01*
X47262Y-38643D01*
X47224Y-38643D01*
X46924Y-38643D02*
X46924Y-38437D01*
X46943Y-38399D01*
X46981Y-38381D01*
X47056Y-38381D01*
X47093Y-38399D01*
X46924Y-38624D02*
X46962Y-38643D01*
X47056Y-38643D01*
X47093Y-38624D01*
X47112Y-38587D01*
X47112Y-38549D01*
X47093Y-38512D01*
X47056Y-38493D01*
X46962Y-38493D01*
X46924Y-38474D01*
X46568Y-38381D02*
X46568Y-38699D01*
X46587Y-38737D01*
X46606Y-38756D01*
X46643Y-38774D01*
X46699Y-38774D01*
X46737Y-38756D01*
X46568Y-38624D02*
X46606Y-38643D01*
X46681Y-38643D01*
X46718Y-38624D01*
X46737Y-38606D01*
X46756Y-38568D01*
X46756Y-38456D01*
X46737Y-38418D01*
X46718Y-38399D01*
X46681Y-38381D01*
X46606Y-38381D01*
X46568Y-38399D01*
X46231Y-38624D02*
X46268Y-38643D01*
X46343Y-38643D01*
X46381Y-38624D01*
X46399Y-38587D01*
X46399Y-38437D01*
X46381Y-38399D01*
X46343Y-38381D01*
X46268Y-38381D01*
X46231Y-38399D01*
X46212Y-38437D01*
X46212Y-38474D01*
X46399Y-38512D01*
X46043Y-38606D02*
X46025Y-38624D01*
X46043Y-38643D01*
X46062Y-38624D01*
X46043Y-38606D01*
X46043Y-38643D01*
X46043Y-38399D02*
X46025Y-38418D01*
X46043Y-38437D01*
X46062Y-38418D01*
X46043Y-38399D01*
X46043Y-38437D01*
X45556Y-38643D02*
X45556Y-38249D01*
X45406Y-38249D01*
X45368Y-38268D01*
X45350Y-38287D01*
X45331Y-38324D01*
X45331Y-38381D01*
X45350Y-38418D01*
X45368Y-38437D01*
X45406Y-38456D01*
X45556Y-38456D01*
X45031Y-38437D02*
X44975Y-38456D01*
X44956Y-38474D01*
X44937Y-38512D01*
X44937Y-38568D01*
X44956Y-38606D01*
X44975Y-38624D01*
X45012Y-38643D01*
X45162Y-38643D01*
X45162Y-38249D01*
X45031Y-38249D01*
X44993Y-38268D01*
X44975Y-38287D01*
X44956Y-38324D01*
X44956Y-38362D01*
X44975Y-38399D01*
X44993Y-38418D01*
X45031Y-38437D01*
X45162Y-38437D01*
X44562Y-38643D02*
X44787Y-38643D01*
X44675Y-38643D02*
X44675Y-38249D01*
X44712Y-38306D01*
X44750Y-38343D01*
X44787Y-38362D01*
X50711Y-39254D02*
X50655Y-39273D01*
X50561Y-39273D01*
X50524Y-39254D01*
X50505Y-39236D01*
X50486Y-39198D01*
X50486Y-39161D01*
X50505Y-39123D01*
X50524Y-39104D01*
X50561Y-39086D01*
X50636Y-39067D01*
X50674Y-39048D01*
X50693Y-39029D01*
X50711Y-38992D01*
X50711Y-38954D01*
X50693Y-38917D01*
X50674Y-38898D01*
X50636Y-38879D01*
X50543Y-38879D01*
X50486Y-38898D01*
X50374Y-38879D02*
X50149Y-38879D01*
X50261Y-39273D02*
X50261Y-38879D01*
X50018Y-39273D02*
X50018Y-38879D01*
X49887Y-39161D01*
X49755Y-38879D01*
X49755Y-39273D01*
X49605Y-38879D02*
X49362Y-38879D01*
X49493Y-39029D01*
X49437Y-39029D01*
X49399Y-39048D01*
X49380Y-39067D01*
X49362Y-39104D01*
X49362Y-39198D01*
X49380Y-39236D01*
X49399Y-39254D01*
X49437Y-39273D01*
X49549Y-39273D01*
X49587Y-39254D01*
X49605Y-39236D01*
X49212Y-38917D02*
X49193Y-38898D01*
X49155Y-38879D01*
X49062Y-38879D01*
X49024Y-38898D01*
X49005Y-38917D01*
X48987Y-38954D01*
X48987Y-38992D01*
X49005Y-39048D01*
X49230Y-39273D01*
X48987Y-39273D01*
X48687Y-39067D02*
X48818Y-39067D01*
X48818Y-39273D02*
X48818Y-38879D01*
X48630Y-38879D01*
X47956Y-39236D02*
X47974Y-39254D01*
X48031Y-39273D01*
X48068Y-39273D01*
X48124Y-39254D01*
X48162Y-39217D01*
X48181Y-39179D01*
X48199Y-39104D01*
X48199Y-39048D01*
X48181Y-38973D01*
X48162Y-38936D01*
X48124Y-38898D01*
X48068Y-38879D01*
X48031Y-38879D01*
X47974Y-38898D01*
X47956Y-38917D01*
X47618Y-39011D02*
X47618Y-39273D01*
X47787Y-39011D02*
X47787Y-39217D01*
X47768Y-39254D01*
X47731Y-39273D01*
X47674Y-39273D01*
X47637Y-39254D01*
X47618Y-39236D01*
X47431Y-39273D02*
X47431Y-39011D01*
X47431Y-39086D02*
X47412Y-39048D01*
X47393Y-39029D01*
X47356Y-39011D01*
X47318Y-39011D01*
X47187Y-39273D02*
X47187Y-39011D01*
X47187Y-39086D02*
X47168Y-39048D01*
X47149Y-39029D01*
X47112Y-39011D01*
X47074Y-39011D01*
X46793Y-39254D02*
X46831Y-39273D01*
X46906Y-39273D01*
X46943Y-39254D01*
X46962Y-39217D01*
X46962Y-39067D01*
X46943Y-39029D01*
X46906Y-39011D01*
X46831Y-39011D01*
X46793Y-39029D01*
X46774Y-39067D01*
X46774Y-39104D01*
X46962Y-39142D01*
X46606Y-39011D02*
X46606Y-39273D01*
X46606Y-39048D02*
X46587Y-39029D01*
X46549Y-39011D01*
X46493Y-39011D01*
X46456Y-39029D01*
X46437Y-39067D01*
X46437Y-39273D01*
X46306Y-39011D02*
X46156Y-39011D01*
X46249Y-38879D02*
X46249Y-39217D01*
X46231Y-39254D01*
X46193Y-39273D01*
X46156Y-39273D01*
X46025Y-39236D02*
X46006Y-39254D01*
X46025Y-39273D01*
X46043Y-39254D01*
X46025Y-39236D01*
X46025Y-39273D01*
X46025Y-39029D02*
X46006Y-39048D01*
X46025Y-39067D01*
X46043Y-39048D01*
X46025Y-39029D01*
X46025Y-39067D01*
X45537Y-39273D02*
X45537Y-38879D01*
X45387Y-38879D01*
X45350Y-38898D01*
X45331Y-38917D01*
X45312Y-38954D01*
X45312Y-39011D01*
X45331Y-39048D01*
X45350Y-39067D01*
X45387Y-39086D01*
X45537Y-39086D01*
X44918Y-39236D02*
X44937Y-39254D01*
X44993Y-39273D01*
X45031Y-39273D01*
X45087Y-39254D01*
X45125Y-39217D01*
X45143Y-39179D01*
X45162Y-39104D01*
X45162Y-39048D01*
X45143Y-38973D01*
X45125Y-38936D01*
X45087Y-38898D01*
X45031Y-38879D01*
X44993Y-38879D01*
X44937Y-38898D01*
X44918Y-38917D01*
X44581Y-39011D02*
X44581Y-39273D01*
X44675Y-38861D02*
X44768Y-39142D01*
X44525Y-39142D01*
X50721Y-39884D02*
X50665Y-39903D01*
X50571Y-39903D01*
X50533Y-39884D01*
X50515Y-39865D01*
X50496Y-39828D01*
X50496Y-39790D01*
X50515Y-39753D01*
X50533Y-39734D01*
X50571Y-39715D01*
X50646Y-39697D01*
X50683Y-39678D01*
X50702Y-39659D01*
X50721Y-39622D01*
X50721Y-39584D01*
X50702Y-39547D01*
X50683Y-39528D01*
X50646Y-39509D01*
X50552Y-39509D01*
X50496Y-39528D01*
X50383Y-39509D02*
X50158Y-39509D01*
X50271Y-39903D02*
X50271Y-39509D01*
X50027Y-39903D02*
X50027Y-39509D01*
X49896Y-39790D01*
X49765Y-39509D01*
X49765Y-39903D01*
X49615Y-39509D02*
X49371Y-39509D01*
X49502Y-39659D01*
X49446Y-39659D01*
X49408Y-39678D01*
X49390Y-39697D01*
X49371Y-39734D01*
X49371Y-39828D01*
X49390Y-39865D01*
X49408Y-39884D01*
X49446Y-39903D01*
X49558Y-39903D01*
X49596Y-39884D01*
X49615Y-39865D01*
X49221Y-39547D02*
X49202Y-39528D01*
X49165Y-39509D01*
X49071Y-39509D01*
X49034Y-39528D01*
X49015Y-39547D01*
X48996Y-39584D01*
X48996Y-39622D01*
X49015Y-39678D01*
X49240Y-39903D01*
X48996Y-39903D01*
X48696Y-39697D02*
X48827Y-39697D01*
X48827Y-39903D02*
X48827Y-39509D01*
X48640Y-39509D01*
X48246Y-39509D02*
X48115Y-39903D01*
X47984Y-39509D01*
X47796Y-39903D02*
X47834Y-39884D01*
X47852Y-39865D01*
X47871Y-39828D01*
X47871Y-39715D01*
X47852Y-39678D01*
X47834Y-39659D01*
X47796Y-39640D01*
X47740Y-39640D01*
X47702Y-39659D01*
X47684Y-39678D01*
X47665Y-39715D01*
X47665Y-39828D01*
X47684Y-39865D01*
X47702Y-39884D01*
X47740Y-39903D01*
X47796Y-39903D01*
X47440Y-39903D02*
X47477Y-39884D01*
X47496Y-39847D01*
X47496Y-39509D01*
X47346Y-39640D02*
X47196Y-39640D01*
X47290Y-39509D02*
X47290Y-39847D01*
X47271Y-39884D01*
X47234Y-39903D01*
X47196Y-39903D01*
X46896Y-39903D02*
X46896Y-39697D01*
X46915Y-39659D01*
X46953Y-39640D01*
X47028Y-39640D01*
X47065Y-39659D01*
X46896Y-39884D02*
X46934Y-39903D01*
X47028Y-39903D01*
X47065Y-39884D01*
X47084Y-39847D01*
X47084Y-39809D01*
X47065Y-39772D01*
X47028Y-39753D01*
X46934Y-39753D01*
X46896Y-39734D01*
X46540Y-39640D02*
X46540Y-39959D01*
X46559Y-39997D01*
X46578Y-40015D01*
X46615Y-40034D01*
X46671Y-40034D01*
X46709Y-40015D01*
X46540Y-39884D02*
X46578Y-39903D01*
X46653Y-39903D01*
X46690Y-39884D01*
X46709Y-39865D01*
X46728Y-39828D01*
X46728Y-39715D01*
X46709Y-39678D01*
X46690Y-39659D01*
X46653Y-39640D01*
X46578Y-39640D01*
X46540Y-39659D01*
X46203Y-39884D02*
X46240Y-39903D01*
X46315Y-39903D01*
X46353Y-39884D01*
X46371Y-39847D01*
X46371Y-39697D01*
X46353Y-39659D01*
X46315Y-39640D01*
X46240Y-39640D01*
X46203Y-39659D01*
X46184Y-39697D01*
X46184Y-39734D01*
X46371Y-39772D01*
X46015Y-39865D02*
X45996Y-39884D01*
X46015Y-39903D01*
X46034Y-39884D01*
X46015Y-39865D01*
X46015Y-39903D01*
X46015Y-39659D02*
X45996Y-39678D01*
X46015Y-39697D01*
X46034Y-39678D01*
X46015Y-39659D01*
X46015Y-39697D01*
X45528Y-39903D02*
X45528Y-39509D01*
X45378Y-39509D01*
X45340Y-39528D01*
X45321Y-39547D01*
X45303Y-39584D01*
X45303Y-39640D01*
X45321Y-39678D01*
X45340Y-39697D01*
X45378Y-39715D01*
X45528Y-39715D01*
X45003Y-39697D02*
X44947Y-39715D01*
X44928Y-39734D01*
X44909Y-39772D01*
X44909Y-39828D01*
X44928Y-39865D01*
X44947Y-39884D01*
X44984Y-39903D01*
X45134Y-39903D01*
X45134Y-39509D01*
X45003Y-39509D01*
X44965Y-39528D01*
X44947Y-39547D01*
X44928Y-39584D01*
X44928Y-39622D01*
X44947Y-39659D01*
X44965Y-39678D01*
X45003Y-39697D01*
X45134Y-39697D01*
X44665Y-39509D02*
X44628Y-39509D01*
X44590Y-39528D01*
X44572Y-39547D01*
X44553Y-39584D01*
X44534Y-39659D01*
X44534Y-39753D01*
X44553Y-39828D01*
X44572Y-39865D01*
X44590Y-39884D01*
X44628Y-39903D01*
X44665Y-39903D01*
X44703Y-39884D01*
X44722Y-39865D01*
X44740Y-39828D01*
X44759Y-39753D01*
X44759Y-39659D01*
X44740Y-39584D01*
X44722Y-39547D01*
X44703Y-39528D01*
X44665Y-39509D01*
X58375Y-33375D02*
X58366Y-33375D01*
X58375Y-44370D02*
X58375Y-33375D01*
X60354Y-44370D02*
X58375Y-44370D01*
X60354Y-33375D02*
X60354Y-44370D01*
X58366Y-33375D02*
X60354Y-33375D01*
X38385Y-33385D02*
X38395Y-33385D01*
X38385Y-44360D02*
X38385Y-33385D01*
X40393Y-44360D02*
X38385Y-44360D01*
X40393Y-33385D02*
X40393Y-44360D01*
X38375Y-33385D02*
X40393Y-33385D01*
G54D12*
X57994Y-33318D02*
X57404Y-33318D01*
X57404Y-33543D01*
X57432Y-33599D01*
X57460Y-33627D01*
X57516Y-33655D01*
X57601Y-33655D01*
X57657Y-33627D01*
X57685Y-33599D01*
X57713Y-33543D01*
X57713Y-33318D01*
X57994Y-34218D02*
X57994Y-33880D01*
X57994Y-34049D02*
X57404Y-34049D01*
X57488Y-33993D01*
X57544Y-33937D01*
X57573Y-33880D01*
X57460Y-34443D02*
X57432Y-34471D01*
X57404Y-34527D01*
X57404Y-34668D01*
X57432Y-34724D01*
X57460Y-34752D01*
X57516Y-34780D01*
X57573Y-34780D01*
X57657Y-34752D01*
X57994Y-34415D01*
X57994Y-34780D01*
X38053Y-33501D02*
X37463Y-33501D01*
X37463Y-33726D01*
X37491Y-33782D01*
X37519Y-33810D01*
X37575Y-33838D01*
X37660Y-33838D01*
X37716Y-33810D01*
X37744Y-33782D01*
X37772Y-33726D01*
X37772Y-33501D01*
X38053Y-34401D02*
X38053Y-34063D01*
X38053Y-34232D02*
X37463Y-34232D01*
X37547Y-34176D01*
X37604Y-34119D01*
X37632Y-34063D01*
X28388Y-41199D02*
X28473Y-41227D01*
X28501Y-41255D01*
X28529Y-41311D01*
X28529Y-41396D01*
X28501Y-41452D01*
X28473Y-41480D01*
X28416Y-41508D01*
X28191Y-41508D01*
X28191Y-40918D01*
X28388Y-40918D01*
X28444Y-40946D01*
X28473Y-40974D01*
X28501Y-41030D01*
X28501Y-41086D01*
X28473Y-41143D01*
X28444Y-41171D01*
X28388Y-41199D01*
X28191Y-41199D01*
X29035Y-41508D02*
X29035Y-41199D01*
X29007Y-41143D01*
X28951Y-41115D01*
X28838Y-41115D01*
X28782Y-41143D01*
X29035Y-41480D02*
X28979Y-41508D01*
X28838Y-41508D01*
X28782Y-41480D01*
X28754Y-41424D01*
X28754Y-41368D01*
X28782Y-41311D01*
X28838Y-41283D01*
X28979Y-41283D01*
X29035Y-41255D01*
X29569Y-41480D02*
X29513Y-41508D01*
X29401Y-41508D01*
X29344Y-41480D01*
X29316Y-41452D01*
X29288Y-41396D01*
X29288Y-41227D01*
X29316Y-41171D01*
X29344Y-41143D01*
X29401Y-41115D01*
X29513Y-41115D01*
X29569Y-41143D01*
X29822Y-41508D02*
X29822Y-40918D01*
X29879Y-41283D02*
X30047Y-41508D01*
X30047Y-41115D02*
X29822Y-41339D01*
X30722Y-41480D02*
X30807Y-41508D01*
X30947Y-41508D01*
X31003Y-41480D01*
X31032Y-41452D01*
X31060Y-41396D01*
X31060Y-41339D01*
X31032Y-41283D01*
X31003Y-41255D01*
X30947Y-41227D01*
X30835Y-41199D01*
X30778Y-41171D01*
X30750Y-41143D01*
X30722Y-41086D01*
X30722Y-41030D01*
X30750Y-40974D01*
X30778Y-40946D01*
X30835Y-40918D01*
X30975Y-40918D01*
X31060Y-40946D01*
X31313Y-41508D02*
X31313Y-41115D01*
X31313Y-40918D02*
X31285Y-40946D01*
X31313Y-40974D01*
X31341Y-40946D01*
X31313Y-40918D01*
X31313Y-40974D01*
X31678Y-41508D02*
X31622Y-41480D01*
X31594Y-41424D01*
X31594Y-40918D01*
X31903Y-41508D02*
X31903Y-40918D01*
X31960Y-41283D02*
X32128Y-41508D01*
X32128Y-41115D02*
X31903Y-41339D01*
X32353Y-41480D02*
X32410Y-41508D01*
X32522Y-41508D01*
X32578Y-41480D01*
X32606Y-41424D01*
X32606Y-41396D01*
X32578Y-41339D01*
X32522Y-41311D01*
X32438Y-41311D01*
X32381Y-41283D01*
X32353Y-41227D01*
X32353Y-41199D01*
X32381Y-41143D01*
X32438Y-41115D01*
X32522Y-41115D01*
X32578Y-41143D01*
X33113Y-41480D02*
X33056Y-41508D01*
X32944Y-41508D01*
X32888Y-41480D01*
X32859Y-41452D01*
X32831Y-41396D01*
X32831Y-41227D01*
X32859Y-41171D01*
X32888Y-41143D01*
X32944Y-41115D01*
X33056Y-41115D01*
X33113Y-41143D01*
X33366Y-41508D02*
X33366Y-41115D01*
X33366Y-41227D02*
X33394Y-41171D01*
X33422Y-41143D01*
X33478Y-41115D01*
X33534Y-41115D01*
X33956Y-41480D02*
X33900Y-41508D01*
X33787Y-41508D01*
X33731Y-41480D01*
X33703Y-41424D01*
X33703Y-41199D01*
X33731Y-41143D01*
X33787Y-41115D01*
X33900Y-41115D01*
X33956Y-41143D01*
X33984Y-41199D01*
X33984Y-41255D01*
X33703Y-41311D01*
X34462Y-41480D02*
X34406Y-41508D01*
X34294Y-41508D01*
X34237Y-41480D01*
X34209Y-41424D01*
X34209Y-41199D01*
X34237Y-41143D01*
X34294Y-41115D01*
X34406Y-41115D01*
X34462Y-41143D01*
X34491Y-41199D01*
X34491Y-41255D01*
X34209Y-41311D01*
X34744Y-41115D02*
X34744Y-41508D01*
X34744Y-41171D02*
X34772Y-41143D01*
X34828Y-41115D01*
X34912Y-41115D01*
X34969Y-41143D01*
X34997Y-41199D01*
X34997Y-41508D01*
G54D11*
X37797Y-35313D02*
X37797Y-35182D01*
X38003Y-35182D02*
X37610Y-35182D01*
X37610Y-35369D01*
X38003Y-35576D02*
X37985Y-35538D01*
X37966Y-35519D01*
X37928Y-35501D01*
X37816Y-35501D01*
X37778Y-35519D01*
X37760Y-35538D01*
X37741Y-35576D01*
X37741Y-35632D01*
X37760Y-35669D01*
X37778Y-35688D01*
X37816Y-35707D01*
X37928Y-35707D01*
X37966Y-35688D01*
X37985Y-35669D01*
X38003Y-35632D01*
X38003Y-35576D01*
X38003Y-35875D02*
X37741Y-35875D01*
X37816Y-35875D02*
X37778Y-35894D01*
X37760Y-35913D01*
X37741Y-35950D01*
X37741Y-35988D01*
X37985Y-36400D02*
X38003Y-36457D01*
X38003Y-36550D01*
X37985Y-36588D01*
X37966Y-36607D01*
X37928Y-36625D01*
X37891Y-36625D01*
X37853Y-36607D01*
X37835Y-36588D01*
X37816Y-36550D01*
X37797Y-36475D01*
X37778Y-36438D01*
X37760Y-36419D01*
X37722Y-36400D01*
X37685Y-36400D01*
X37647Y-36419D01*
X37628Y-36438D01*
X37610Y-36475D01*
X37610Y-36569D01*
X37628Y-36625D01*
X37610Y-36738D02*
X37610Y-36963D01*
X38003Y-36850D02*
X37610Y-36850D01*
X38003Y-37394D02*
X37610Y-37394D01*
X37610Y-37488D01*
X37628Y-37544D01*
X37666Y-37582D01*
X37703Y-37600D01*
X37778Y-37619D01*
X37835Y-37619D01*
X37910Y-37600D01*
X37947Y-37582D01*
X37985Y-37544D01*
X38003Y-37488D01*
X38003Y-37394D01*
X38003Y-37788D02*
X37741Y-37788D01*
X37610Y-37788D02*
X37628Y-37769D01*
X37647Y-37788D01*
X37628Y-37806D01*
X37610Y-37788D01*
X37647Y-37788D01*
X37985Y-37956D02*
X38003Y-37994D01*
X38003Y-38069D01*
X37985Y-38106D01*
X37947Y-38125D01*
X37928Y-38125D01*
X37891Y-38106D01*
X37872Y-38069D01*
X37872Y-38013D01*
X37853Y-37975D01*
X37816Y-37956D01*
X37797Y-37956D01*
X37760Y-37975D01*
X37741Y-38013D01*
X37741Y-38069D01*
X37760Y-38106D01*
X37985Y-38463D02*
X38003Y-38425D01*
X38003Y-38350D01*
X37985Y-38313D01*
X37966Y-38294D01*
X37928Y-38275D01*
X37816Y-38275D01*
X37778Y-38294D01*
X37760Y-38313D01*
X37741Y-38350D01*
X37741Y-38425D01*
X37760Y-38463D01*
X38003Y-38688D02*
X37985Y-38650D01*
X37966Y-38631D01*
X37928Y-38613D01*
X37816Y-38613D01*
X37778Y-38631D01*
X37760Y-38650D01*
X37741Y-38688D01*
X37741Y-38744D01*
X37760Y-38781D01*
X37778Y-38800D01*
X37816Y-38819D01*
X37928Y-38819D01*
X37966Y-38800D01*
X37985Y-38781D01*
X38003Y-38744D01*
X38003Y-38688D01*
X37741Y-38950D02*
X38003Y-39044D01*
X37741Y-39138D01*
X37985Y-39438D02*
X38003Y-39400D01*
X38003Y-39325D01*
X37985Y-39288D01*
X37947Y-39269D01*
X37797Y-39269D01*
X37760Y-39288D01*
X37741Y-39325D01*
X37741Y-39400D01*
X37760Y-39438D01*
X37797Y-39456D01*
X37835Y-39456D01*
X37872Y-39269D01*
X38003Y-39625D02*
X37741Y-39625D01*
X37816Y-39625D02*
X37778Y-39644D01*
X37760Y-39663D01*
X37741Y-39700D01*
X37741Y-39738D01*
X37741Y-39831D02*
X38003Y-39925D01*
X37741Y-40019D02*
X38003Y-39925D01*
X38097Y-39887D01*
X38116Y-39869D01*
X38135Y-39831D01*
X37985Y-40450D02*
X38003Y-40506D01*
X38003Y-40600D01*
X37985Y-40637D01*
X37966Y-40656D01*
X37928Y-40675D01*
X37891Y-40675D01*
X37853Y-40656D01*
X37835Y-40637D01*
X37816Y-40600D01*
X37797Y-40525D01*
X37778Y-40487D01*
X37760Y-40469D01*
X37722Y-40450D01*
X37685Y-40450D01*
X37647Y-40469D01*
X37628Y-40487D01*
X37610Y-40525D01*
X37610Y-40619D01*
X37628Y-40675D01*
X37610Y-40787D02*
X37610Y-41012D01*
X38003Y-40900D02*
X37610Y-40900D01*
X38003Y-41144D02*
X37610Y-41144D01*
X37891Y-41275D01*
X37610Y-41406D01*
X38003Y-41406D01*
X37610Y-41556D02*
X37610Y-41800D01*
X37760Y-41669D01*
X37760Y-41725D01*
X37778Y-41762D01*
X37797Y-41781D01*
X37835Y-41800D01*
X37928Y-41800D01*
X37966Y-41781D01*
X37985Y-41762D01*
X38003Y-41725D01*
X38003Y-41612D01*
X37985Y-41575D01*
X37966Y-41556D01*
X37647Y-41950D02*
X37628Y-41968D01*
X37610Y-42006D01*
X37610Y-42100D01*
X37628Y-42137D01*
X37647Y-42156D01*
X37685Y-42175D01*
X37722Y-42175D01*
X37778Y-42156D01*
X38003Y-41931D01*
X38003Y-42175D01*
X37797Y-42475D02*
X37797Y-42343D01*
X38003Y-42343D02*
X37610Y-42343D01*
X37610Y-42531D01*
X37741Y-42850D02*
X38003Y-42850D01*
X37591Y-42756D02*
X37872Y-42662D01*
X37872Y-42906D01*
X37610Y-43131D02*
X37610Y-43168D01*
X37628Y-43206D01*
X37647Y-43225D01*
X37685Y-43243D01*
X37760Y-43262D01*
X37853Y-43262D01*
X37928Y-43243D01*
X37966Y-43225D01*
X37985Y-43206D01*
X38003Y-43168D01*
X38003Y-43131D01*
X37985Y-43093D01*
X37966Y-43075D01*
X37928Y-43056D01*
X37853Y-43037D01*
X37760Y-43037D01*
X37685Y-43056D01*
X37647Y-43075D01*
X37628Y-43093D01*
X37610Y-43131D01*
X37610Y-43393D02*
X37610Y-43656D01*
X38003Y-43487D01*
X37610Y-43750D02*
X38003Y-43881D01*
X37610Y-44012D01*
X37628Y-44349D02*
X37610Y-44312D01*
X37610Y-44256D01*
X37628Y-44199D01*
X37666Y-44162D01*
X37703Y-44143D01*
X37778Y-44124D01*
X37835Y-44124D01*
X37910Y-44143D01*
X37947Y-44162D01*
X37985Y-44199D01*
X38003Y-44256D01*
X38003Y-44293D01*
X37985Y-44349D01*
X37966Y-44368D01*
X37835Y-44368D01*
X37835Y-44293D01*
%LPC*%
G54D12*
X28440Y-37459D02*
X28525Y-37487D01*
X28553Y-37515D01*
X28581Y-37571D01*
X28581Y-37656D01*
X28553Y-37712D01*
X28525Y-37740D01*
X28468Y-37768D01*
X28243Y-37768D01*
X28243Y-37178D01*
X28440Y-37178D01*
X28496Y-37206D01*
X28525Y-37234D01*
X28553Y-37290D01*
X28553Y-37346D01*
X28525Y-37402D01*
X28496Y-37431D01*
X28440Y-37459D01*
X28243Y-37459D01*
X29087Y-37768D02*
X29087Y-37459D01*
X29059Y-37402D01*
X29003Y-37374D01*
X28890Y-37374D01*
X28834Y-37402D01*
X29087Y-37740D02*
X29031Y-37768D01*
X28890Y-37768D01*
X28834Y-37740D01*
X28806Y-37684D01*
X28806Y-37627D01*
X28834Y-37571D01*
X28890Y-37543D01*
X29031Y-37543D01*
X29087Y-37515D01*
X29621Y-37740D02*
X29565Y-37768D01*
X29453Y-37768D01*
X29396Y-37740D01*
X29368Y-37712D01*
X29340Y-37656D01*
X29340Y-37487D01*
X29368Y-37431D01*
X29396Y-37402D01*
X29453Y-37374D01*
X29565Y-37374D01*
X29621Y-37402D01*
X29874Y-37768D02*
X29874Y-37178D01*
X29931Y-37543D02*
X30099Y-37768D01*
X30099Y-37374D02*
X29874Y-37599D01*
X30774Y-37740D02*
X30859Y-37768D01*
X30999Y-37768D01*
X31055Y-37740D01*
X31084Y-37712D01*
X31112Y-37656D01*
X31112Y-37599D01*
X31084Y-37543D01*
X31055Y-37515D01*
X30999Y-37487D01*
X30887Y-37459D01*
X30830Y-37431D01*
X30802Y-37402D01*
X30774Y-37346D01*
X30774Y-37290D01*
X30802Y-37234D01*
X30830Y-37206D01*
X30887Y-37178D01*
X31027Y-37178D01*
X31112Y-37206D01*
X31449Y-37768D02*
X31393Y-37740D01*
X31365Y-37712D01*
X31337Y-37656D01*
X31337Y-37487D01*
X31365Y-37431D01*
X31393Y-37402D01*
X31449Y-37374D01*
X31534Y-37374D01*
X31590Y-37402D01*
X31618Y-37431D01*
X31646Y-37487D01*
X31646Y-37656D01*
X31618Y-37712D01*
X31590Y-37740D01*
X31534Y-37768D01*
X31449Y-37768D01*
X31983Y-37768D02*
X31927Y-37740D01*
X31899Y-37684D01*
X31899Y-37178D01*
X32462Y-37768D02*
X32462Y-37178D01*
X32462Y-37740D02*
X32405Y-37768D01*
X32293Y-37768D01*
X32237Y-37740D01*
X32208Y-37712D01*
X32180Y-37656D01*
X32180Y-37487D01*
X32208Y-37431D01*
X32237Y-37402D01*
X32293Y-37374D01*
X32405Y-37374D01*
X32462Y-37402D01*
X32968Y-37740D02*
X32911Y-37768D01*
X32799Y-37768D01*
X32743Y-37740D01*
X32715Y-37684D01*
X32715Y-37459D01*
X32743Y-37402D01*
X32799Y-37374D01*
X32911Y-37374D01*
X32968Y-37402D01*
X32996Y-37459D01*
X32996Y-37515D01*
X32715Y-37571D01*
X33249Y-37768D02*
X33249Y-37374D01*
X33249Y-37487D02*
X33277Y-37431D01*
X33305Y-37402D01*
X33361Y-37374D01*
X33418Y-37374D01*
X34064Y-37768D02*
X34064Y-37178D01*
X34261Y-37599D01*
X34458Y-37178D01*
X34458Y-37768D01*
X34992Y-37768D02*
X34992Y-37459D01*
X34964Y-37402D01*
X34908Y-37374D01*
X34796Y-37374D01*
X34739Y-37402D01*
X34992Y-37740D02*
X34936Y-37768D01*
X34796Y-37768D01*
X34739Y-37740D01*
X34711Y-37684D01*
X34711Y-37627D01*
X34739Y-37571D01*
X34796Y-37543D01*
X34936Y-37543D01*
X34992Y-37515D01*
X35246Y-37740D02*
X35302Y-37768D01*
X35414Y-37768D01*
X35471Y-37740D01*
X35499Y-37684D01*
X35499Y-37656D01*
X35471Y-37599D01*
X35414Y-37571D01*
X35330Y-37571D01*
X35274Y-37543D01*
X35246Y-37487D01*
X35246Y-37459D01*
X35274Y-37402D01*
X35330Y-37374D01*
X35414Y-37374D01*
X35471Y-37402D01*
X35752Y-37768D02*
X35752Y-37178D01*
X35808Y-37543D02*
X35977Y-37768D01*
X35977Y-37374D02*
X35752Y-37599D01*
G54D13*
X43307Y-36724D03*
G54D14*
X43307Y-37724D03*
G54D15*
X38870Y-33870D03*
G54D16*
X39870Y-33870D03*
X38870Y-34870D03*
X39870Y-34870D03*
X38870Y-35870D03*
X39870Y-35870D03*
X38870Y-36870D03*
X39870Y-36870D03*
X38870Y-37870D03*
X39870Y-37870D03*
X38870Y-38870D03*
X39870Y-38870D03*
X38870Y-39870D03*
X39870Y-39870D03*
X38870Y-40870D03*
X39870Y-40870D03*
X38870Y-41870D03*
X39870Y-41870D03*
X38870Y-42870D03*
X39870Y-42870D03*
X38870Y-43870D03*
X39870Y-43870D03*
G54D15*
X58850Y-33870D03*
G54D16*
X59850Y-33870D03*
X58850Y-34870D03*
X59850Y-34870D03*
X58850Y-35870D03*
X59850Y-35870D03*
X58850Y-36870D03*
X59850Y-36870D03*
X58850Y-37870D03*
X59850Y-37870D03*
X58850Y-38870D03*
X59850Y-38870D03*
X58850Y-39870D03*
X59850Y-39870D03*
X58850Y-40870D03*
X59850Y-40870D03*
X58850Y-41870D03*
X59850Y-41870D03*
X58850Y-42870D03*
X59850Y-42870D03*
X58850Y-43870D03*
X59850Y-43870D03*
G54D17*
X57696Y-38291D03*
X57696Y-35291D03*
X41531Y-39429D03*
X41531Y-42429D03*
X57716Y-39208D03*
X57716Y-42208D03*
G54D15*
X52566Y-36582D03*
G54D16*
X52566Y-35582D03*
X53566Y-36582D03*
X53566Y-35582D03*
X54566Y-36582D03*
X54566Y-35582D03*
X55566Y-36582D03*
X55566Y-35582D03*
X56566Y-36582D03*
X56566Y-35582D03*
G54D15*
X46645Y-40681D03*
G54D16*
X46645Y-41681D03*
X45645Y-40681D03*
X45645Y-41681D03*
X44645Y-40681D03*
X44645Y-41681D03*
X43645Y-40681D03*
X43645Y-41681D03*
X42645Y-40681D03*
X42645Y-41681D03*
G54D15*
X56566Y-40700D03*
G54D16*
X56566Y-41700D03*
X55566Y-40700D03*
X55566Y-41700D03*
X54566Y-40700D03*
X54566Y-41700D03*
X53566Y-40700D03*
X53566Y-41700D03*
X52566Y-40700D03*
X52566Y-41700D03*
G54D15*
X54669Y-33464D03*
G54D16*
X55669Y-33464D03*
X56669Y-33464D03*
G54D15*
X54669Y-43838D03*
G54D16*
X55669Y-43838D03*
X56669Y-43838D03*
G54D15*
X44710Y-43769D03*
G54D16*
X43710Y-43809D03*
X42710Y-43769D03*
G54D15*
X53553Y-43846D03*
G54D16*
X53553Y-42846D03*
G54D15*
X53553Y-33456D03*
G54D16*
X53553Y-34456D03*
G54D15*
X45807Y-43767D03*
G54D16*
X45807Y-42767D03*
M02*
