M48
;DRILL file {Pcbnew (2013-07-07 BZR 4022)-stable} date 18/12/2013 15:38:25
;FORMAT={-:-/ absolute / metric / decimal}
FMAT,2
METRIC,TZ
T1C0.300
T2C0.400
T3C0.813
T4C1.016
%
G90
G05
M71
T1
X121.4Y-93.3
T2
X106.02Y-93.1
X107.18Y-101.35
X108.55Y-107.9
X117.475Y-107.1
X118.08Y-97.59
X118.97Y-96.81
X120.9Y-90.56
X121.43Y-100.52
X121.95Y-104.05
X122.85Y-108.125
X124.125Y-91.525
X124.35Y-112.
X126.325Y-102.85
X127.6Y-105.6
X127.75Y-110.525
X127.775Y-108.95
X127.8Y-96.95
X129.28Y-90.56
X144.05Y-107.975
X145.5Y-102.025
T3
X105.49Y-100.15
X105.49Y-107.77
X110.Y-93.28
X110.Y-95.82
X146.55Y-89.64
X146.55Y-97.26
X146.6Y-99.59
X146.6Y-107.21
T4
X98.73Y-86.03
X98.73Y-88.57
X98.73Y-91.11
X98.73Y-93.65
X98.73Y-96.19
X98.73Y-98.73
X98.73Y-101.27
X98.73Y-103.81
X98.73Y-106.35
X98.73Y-108.89
X98.73Y-111.43
X101.27Y-86.03
X101.27Y-88.57
X101.27Y-91.11
X101.27Y-93.65
X101.27Y-96.19
X101.27Y-98.73
X101.27Y-101.27
X101.27Y-103.81
X101.27Y-106.35
X101.27Y-108.89
X101.27Y-111.43
X108.32Y-103.33
X108.32Y-105.87
X108.485Y-111.175
X110.86Y-103.33
X110.86Y-105.87
X111.025Y-111.275
X113.4Y-103.33
X113.4Y-105.87
X113.565Y-111.175
X115.94Y-103.33
X115.94Y-105.87
X116.35Y-108.63
X116.35Y-111.17
X118.48Y-103.33
X118.48Y-105.87
X133.52Y-90.38
X133.52Y-92.92
X133.52Y-103.38
X133.52Y-105.92
X136.025Y-84.98
X136.025Y-87.52
X136.025Y-108.83
X136.025Y-111.37
X136.06Y-90.38
X136.06Y-92.92
X136.06Y-103.38
X136.06Y-105.92
X138.6Y-90.38
X138.6Y-92.92
X138.6Y-103.38
X138.6Y-105.92
X138.86Y-85.
X138.86Y-111.35
X141.14Y-90.38
X141.14Y-92.92
X141.14Y-103.38
X141.14Y-105.92
X141.4Y-85.
X141.4Y-111.35
X143.68Y-90.38
X143.68Y-92.92
X143.68Y-103.38
X143.68Y-105.92
X143.94Y-85.
X143.94Y-111.35
X149.48Y-86.03
X149.48Y-88.57
X149.48Y-91.11
X149.48Y-93.65
X149.48Y-96.19
X149.48Y-98.73
X149.48Y-101.27
X149.48Y-103.81
X149.48Y-106.35
X149.48Y-108.89
X149.48Y-111.43
X152.02Y-86.03
X152.02Y-88.57
X152.02Y-91.11
X152.02Y-93.65
X152.02Y-96.19
X152.02Y-98.73
X152.02Y-101.27
X152.02Y-103.81
X152.02Y-106.35
X152.02Y-108.89
X152.02Y-111.43
T0
M30
