G04 (created by PCBNEW (2013-mar-13)-testing) date Fri 31 May 2013 15:23:22 BST*
%MOIN*%
G04 Gerber Fmt 3.4, Leading zero omitted, Abs format*
%FSLAX34Y34*%
G01*
G70*
G90*
G04 APERTURE LIST*
%ADD10C,0.006000*%
%ADD11C,0.011811*%
%ADD12R,0.060000X0.060000*%
%ADD13C,0.060000*%
%ADD14C,0.065000*%
%ADD15R,0.055000X0.055000*%
%ADD16C,0.055000*%
%ADD17C,0.035433*%
%ADD18C,0.019685*%
%ADD19C,0.007874*%
G04 APERTURE END LIST*
G54D10*
G54D11*
X28430Y-34721D02*
X28515Y-34749D01*
X28543Y-34777D01*
X28571Y-34834D01*
X28571Y-34918D01*
X28543Y-34974D01*
X28515Y-35002D01*
X28458Y-35030D01*
X28233Y-35030D01*
X28233Y-34440D01*
X28430Y-34440D01*
X28487Y-34468D01*
X28515Y-34496D01*
X28543Y-34552D01*
X28543Y-34609D01*
X28515Y-34665D01*
X28487Y-34693D01*
X28430Y-34721D01*
X28233Y-34721D01*
X29077Y-35030D02*
X29077Y-34721D01*
X29049Y-34665D01*
X28993Y-34637D01*
X28880Y-34637D01*
X28824Y-34665D01*
X29077Y-35002D02*
X29021Y-35030D01*
X28880Y-35030D01*
X28824Y-35002D01*
X28796Y-34946D01*
X28796Y-34890D01*
X28824Y-34834D01*
X28880Y-34805D01*
X29021Y-34805D01*
X29077Y-34777D01*
X29611Y-35002D02*
X29555Y-35030D01*
X29443Y-35030D01*
X29386Y-35002D01*
X29358Y-34974D01*
X29330Y-34918D01*
X29330Y-34749D01*
X29358Y-34693D01*
X29386Y-34665D01*
X29443Y-34637D01*
X29555Y-34637D01*
X29611Y-34665D01*
X29865Y-35030D02*
X29865Y-34440D01*
X29921Y-34805D02*
X30089Y-35030D01*
X30089Y-34637D02*
X29865Y-34862D01*
X31130Y-34974D02*
X31102Y-35002D01*
X31017Y-35030D01*
X30961Y-35030D01*
X30877Y-35002D01*
X30821Y-34946D01*
X30793Y-34890D01*
X30764Y-34777D01*
X30764Y-34693D01*
X30793Y-34580D01*
X30821Y-34524D01*
X30877Y-34468D01*
X30961Y-34440D01*
X31017Y-34440D01*
X31102Y-34468D01*
X31130Y-34496D01*
X31467Y-35030D02*
X31411Y-35002D01*
X31383Y-34974D01*
X31355Y-34918D01*
X31355Y-34749D01*
X31383Y-34693D01*
X31411Y-34665D01*
X31467Y-34637D01*
X31552Y-34637D01*
X31608Y-34665D01*
X31636Y-34693D01*
X31664Y-34749D01*
X31664Y-34918D01*
X31636Y-34974D01*
X31608Y-35002D01*
X31552Y-35030D01*
X31467Y-35030D01*
X31917Y-34637D02*
X31917Y-35227D01*
X31917Y-34665D02*
X31974Y-34637D01*
X32086Y-34637D01*
X32142Y-34665D01*
X32170Y-34693D01*
X32199Y-34749D01*
X32199Y-34918D01*
X32170Y-34974D01*
X32142Y-35002D01*
X32086Y-35030D01*
X31974Y-35030D01*
X31917Y-35002D01*
X32452Y-34637D02*
X32452Y-35227D01*
X32452Y-34665D02*
X32508Y-34637D01*
X32620Y-34637D01*
X32677Y-34665D01*
X32705Y-34693D01*
X32733Y-34749D01*
X32733Y-34918D01*
X32705Y-34974D01*
X32677Y-35002D01*
X32620Y-35030D01*
X32508Y-35030D01*
X32452Y-35002D01*
X33211Y-35002D02*
X33155Y-35030D01*
X33042Y-35030D01*
X32986Y-35002D01*
X32958Y-34946D01*
X32958Y-34721D01*
X32986Y-34665D01*
X33042Y-34637D01*
X33155Y-34637D01*
X33211Y-34665D01*
X33239Y-34721D01*
X33239Y-34777D01*
X32958Y-34834D01*
X33492Y-35030D02*
X33492Y-34637D01*
X33492Y-34749D02*
X33520Y-34693D01*
X33548Y-34665D01*
X33605Y-34637D01*
X33661Y-34637D01*
G54D12*
X38870Y-33870D03*
G54D13*
X39870Y-33870D03*
X38870Y-34870D03*
X39870Y-34870D03*
X38870Y-35870D03*
X39870Y-35870D03*
X38870Y-36870D03*
X39870Y-36870D03*
X38870Y-37870D03*
X39870Y-37870D03*
X38870Y-38870D03*
X39870Y-38870D03*
X38870Y-39870D03*
X39870Y-39870D03*
X38870Y-40870D03*
X39870Y-40870D03*
X38870Y-41870D03*
X39870Y-41870D03*
X38870Y-42870D03*
X39870Y-42870D03*
X38870Y-43870D03*
X39870Y-43870D03*
G54D12*
X43307Y-36724D03*
G54D13*
X43307Y-37724D03*
G54D12*
X58850Y-33870D03*
G54D13*
X59850Y-33870D03*
X58850Y-34870D03*
X59850Y-34870D03*
X58850Y-35870D03*
X59850Y-35870D03*
X58850Y-36870D03*
X59850Y-36870D03*
X58850Y-37870D03*
X59850Y-37870D03*
X58850Y-38870D03*
X59850Y-38870D03*
X58850Y-39870D03*
X59850Y-39870D03*
X58850Y-40870D03*
X59850Y-40870D03*
X58850Y-41870D03*
X59850Y-41870D03*
X58850Y-42870D03*
X59850Y-42870D03*
X58850Y-43870D03*
X59850Y-43870D03*
G54D14*
X45590Y-37663D03*
X45590Y-40663D03*
G54D15*
X46417Y-35812D03*
G54D16*
X46417Y-34812D03*
X46417Y-33812D03*
G54D15*
X52265Y-34458D03*
G54D16*
X53265Y-34458D03*
G54D15*
X53267Y-37712D03*
G54D16*
X53267Y-36712D03*
X53267Y-35712D03*
G54D15*
X53277Y-38970D03*
G54D16*
X53277Y-39970D03*
X53277Y-40970D03*
G54D17*
X42706Y-34803D03*
X42706Y-33809D03*
X41624Y-39753D03*
X41624Y-40846D03*
X41624Y-44261D03*
X41624Y-43366D03*
X47480Y-38011D03*
X51555Y-40393D03*
X50088Y-40393D03*
X50029Y-37834D03*
X49202Y-37017D03*
G54D18*
X42706Y-33809D02*
X42706Y-34803D01*
X41624Y-39753D02*
X41624Y-40846D01*
X41624Y-43366D02*
X41624Y-44261D01*
X48474Y-37017D02*
X49202Y-37017D01*
X47480Y-38011D02*
X48474Y-37017D01*
X50088Y-40393D02*
X51555Y-40393D01*
X50019Y-37834D02*
X50029Y-37834D01*
X49202Y-37017D02*
X50019Y-37834D01*
G54D10*
G36*
X60590Y-44458D02*
X60396Y-44458D01*
X60396Y-33846D01*
X60363Y-33682D01*
X60284Y-33648D01*
X60072Y-33860D01*
X60072Y-33435D01*
X60038Y-33356D01*
X59827Y-33323D01*
X59662Y-33356D01*
X59628Y-33435D01*
X59850Y-33657D01*
X60072Y-33435D01*
X60072Y-33860D01*
X60062Y-33870D01*
X60284Y-34092D01*
X60363Y-34057D01*
X60396Y-33846D01*
X60396Y-44458D01*
X60288Y-44458D01*
X60288Y-43783D01*
X60288Y-42783D01*
X60288Y-41783D01*
X60288Y-40783D01*
X60288Y-39783D01*
X60288Y-38783D01*
X60288Y-37783D01*
X60288Y-36783D01*
X60288Y-35783D01*
X60288Y-34783D01*
X60221Y-34622D01*
X60098Y-34499D01*
X60072Y-34488D01*
X60072Y-34304D01*
X59850Y-34082D01*
X59638Y-34294D01*
X59638Y-33870D01*
X59416Y-33648D01*
X59386Y-33660D01*
X59386Y-33523D01*
X59350Y-33436D01*
X59284Y-33369D01*
X59197Y-33333D01*
X59103Y-33333D01*
X59059Y-33333D01*
X59000Y-33392D01*
X59000Y-33720D01*
X59114Y-33720D01*
X59114Y-34020D01*
X59000Y-34020D01*
X59000Y-34347D01*
X59059Y-34406D01*
X59103Y-34406D01*
X59197Y-34406D01*
X59284Y-34370D01*
X59350Y-34303D01*
X59386Y-34216D01*
X59386Y-34079D01*
X59416Y-34092D01*
X59638Y-33870D01*
X59638Y-34294D01*
X59628Y-34304D01*
X59662Y-34383D01*
X59873Y-34416D01*
X60038Y-34383D01*
X60072Y-34304D01*
X60072Y-34488D01*
X59937Y-34432D01*
X59763Y-34432D01*
X59602Y-34498D01*
X59479Y-34621D01*
X59412Y-34782D01*
X59412Y-34956D01*
X59479Y-35117D01*
X59602Y-35241D01*
X59762Y-35307D01*
X59937Y-35307D01*
X60098Y-35241D01*
X60221Y-35118D01*
X60288Y-34957D01*
X60288Y-34783D01*
X60288Y-35783D01*
X60221Y-35622D01*
X60098Y-35499D01*
X59937Y-35432D01*
X59763Y-35432D01*
X59602Y-35498D01*
X59479Y-35621D01*
X59412Y-35782D01*
X59412Y-35956D01*
X59479Y-36117D01*
X59602Y-36241D01*
X59762Y-36307D01*
X59937Y-36307D01*
X60098Y-36241D01*
X60221Y-36118D01*
X60288Y-35957D01*
X60288Y-35783D01*
X60288Y-36783D01*
X60221Y-36622D01*
X60098Y-36499D01*
X59937Y-36432D01*
X59763Y-36432D01*
X59602Y-36498D01*
X59479Y-36621D01*
X59412Y-36782D01*
X59412Y-36956D01*
X59479Y-37117D01*
X59602Y-37241D01*
X59762Y-37307D01*
X59937Y-37307D01*
X60098Y-37241D01*
X60221Y-37118D01*
X60288Y-36957D01*
X60288Y-36783D01*
X60288Y-37783D01*
X60221Y-37622D01*
X60098Y-37499D01*
X59937Y-37432D01*
X59763Y-37432D01*
X59602Y-37498D01*
X59479Y-37621D01*
X59412Y-37782D01*
X59412Y-37956D01*
X59479Y-38117D01*
X59602Y-38241D01*
X59762Y-38307D01*
X59937Y-38307D01*
X60098Y-38241D01*
X60221Y-38118D01*
X60288Y-37957D01*
X60288Y-37783D01*
X60288Y-38783D01*
X60221Y-38622D01*
X60098Y-38499D01*
X59937Y-38432D01*
X59763Y-38432D01*
X59602Y-38498D01*
X59479Y-38621D01*
X59412Y-38782D01*
X59412Y-38956D01*
X59479Y-39117D01*
X59602Y-39241D01*
X59762Y-39307D01*
X59937Y-39307D01*
X60098Y-39241D01*
X60221Y-39118D01*
X60288Y-38957D01*
X60288Y-38783D01*
X60288Y-39783D01*
X60221Y-39622D01*
X60098Y-39499D01*
X59937Y-39432D01*
X59763Y-39432D01*
X59602Y-39498D01*
X59479Y-39621D01*
X59412Y-39782D01*
X59412Y-39956D01*
X59479Y-40117D01*
X59602Y-40241D01*
X59762Y-40307D01*
X59937Y-40307D01*
X60098Y-40241D01*
X60221Y-40118D01*
X60288Y-39957D01*
X60288Y-39783D01*
X60288Y-40783D01*
X60221Y-40622D01*
X60098Y-40499D01*
X59937Y-40432D01*
X59763Y-40432D01*
X59602Y-40498D01*
X59479Y-40621D01*
X59412Y-40782D01*
X59412Y-40956D01*
X59479Y-41117D01*
X59602Y-41241D01*
X59762Y-41307D01*
X59937Y-41307D01*
X60098Y-41241D01*
X60221Y-41118D01*
X60288Y-40957D01*
X60288Y-40783D01*
X60288Y-41783D01*
X60221Y-41622D01*
X60098Y-41499D01*
X59937Y-41432D01*
X59763Y-41432D01*
X59602Y-41498D01*
X59479Y-41621D01*
X59412Y-41782D01*
X59412Y-41956D01*
X59479Y-42117D01*
X59602Y-42241D01*
X59762Y-42307D01*
X59937Y-42307D01*
X60098Y-42241D01*
X60221Y-42118D01*
X60288Y-41957D01*
X60288Y-41783D01*
X60288Y-42783D01*
X60221Y-42622D01*
X60098Y-42499D01*
X59937Y-42432D01*
X59763Y-42432D01*
X59602Y-42498D01*
X59479Y-42621D01*
X59412Y-42782D01*
X59412Y-42956D01*
X59479Y-43117D01*
X59602Y-43241D01*
X59762Y-43307D01*
X59937Y-43307D01*
X60098Y-43241D01*
X60221Y-43118D01*
X60288Y-42957D01*
X60288Y-42783D01*
X60288Y-43783D01*
X60221Y-43622D01*
X60098Y-43499D01*
X59937Y-43432D01*
X59763Y-43432D01*
X59602Y-43498D01*
X59479Y-43621D01*
X59412Y-43782D01*
X59412Y-43956D01*
X59479Y-44117D01*
X59602Y-44241D01*
X59762Y-44307D01*
X59937Y-44307D01*
X60098Y-44241D01*
X60221Y-44118D01*
X60288Y-43957D01*
X60288Y-43783D01*
X60288Y-44458D01*
X59288Y-44458D01*
X59288Y-43783D01*
X59288Y-42783D01*
X59288Y-41783D01*
X59288Y-40783D01*
X59288Y-39783D01*
X59288Y-38783D01*
X59288Y-37783D01*
X59288Y-36783D01*
X59288Y-35783D01*
X59288Y-34783D01*
X59221Y-34622D01*
X59098Y-34499D01*
X58937Y-34432D01*
X58763Y-34432D01*
X58700Y-34458D01*
X58700Y-34347D01*
X58700Y-34020D01*
X58700Y-33720D01*
X58700Y-33392D01*
X58641Y-33333D01*
X58597Y-33333D01*
X58503Y-33333D01*
X58416Y-33369D01*
X58350Y-33436D01*
X58314Y-33523D01*
X58314Y-33661D01*
X58373Y-33720D01*
X58700Y-33720D01*
X58700Y-34020D01*
X58373Y-34020D01*
X58314Y-34079D01*
X58314Y-34216D01*
X58350Y-34303D01*
X58416Y-34370D01*
X58503Y-34406D01*
X58597Y-34406D01*
X58641Y-34406D01*
X58700Y-34347D01*
X58700Y-34458D01*
X58602Y-34498D01*
X58479Y-34621D01*
X58412Y-34782D01*
X58412Y-34956D01*
X58479Y-35117D01*
X58602Y-35241D01*
X58762Y-35307D01*
X58937Y-35307D01*
X59098Y-35241D01*
X59221Y-35118D01*
X59288Y-34957D01*
X59288Y-34783D01*
X59288Y-35783D01*
X59221Y-35622D01*
X59098Y-35499D01*
X58937Y-35432D01*
X58763Y-35432D01*
X58602Y-35498D01*
X58479Y-35621D01*
X58412Y-35782D01*
X58412Y-35956D01*
X58479Y-36117D01*
X58602Y-36241D01*
X58762Y-36307D01*
X58937Y-36307D01*
X59098Y-36241D01*
X59221Y-36118D01*
X59288Y-35957D01*
X59288Y-35783D01*
X59288Y-36783D01*
X59221Y-36622D01*
X59098Y-36499D01*
X58937Y-36432D01*
X58763Y-36432D01*
X58602Y-36498D01*
X58479Y-36621D01*
X58412Y-36782D01*
X58412Y-36956D01*
X58479Y-37117D01*
X58602Y-37241D01*
X58762Y-37307D01*
X58937Y-37307D01*
X59098Y-37241D01*
X59221Y-37118D01*
X59288Y-36957D01*
X59288Y-36783D01*
X59288Y-37783D01*
X59221Y-37622D01*
X59098Y-37499D01*
X58937Y-37432D01*
X58763Y-37432D01*
X58602Y-37498D01*
X58479Y-37621D01*
X58412Y-37782D01*
X58412Y-37956D01*
X58479Y-38117D01*
X58602Y-38241D01*
X58762Y-38307D01*
X58937Y-38307D01*
X59098Y-38241D01*
X59221Y-38118D01*
X59288Y-37957D01*
X59288Y-37783D01*
X59288Y-38783D01*
X59221Y-38622D01*
X59098Y-38499D01*
X58937Y-38432D01*
X58763Y-38432D01*
X58602Y-38498D01*
X58479Y-38621D01*
X58412Y-38782D01*
X58412Y-38956D01*
X58479Y-39117D01*
X58602Y-39241D01*
X58762Y-39307D01*
X58937Y-39307D01*
X59098Y-39241D01*
X59221Y-39118D01*
X59288Y-38957D01*
X59288Y-38783D01*
X59288Y-39783D01*
X59221Y-39622D01*
X59098Y-39499D01*
X58937Y-39432D01*
X58763Y-39432D01*
X58602Y-39498D01*
X58479Y-39621D01*
X58412Y-39782D01*
X58412Y-39956D01*
X58479Y-40117D01*
X58602Y-40241D01*
X58762Y-40307D01*
X58937Y-40307D01*
X59098Y-40241D01*
X59221Y-40118D01*
X59288Y-39957D01*
X59288Y-39783D01*
X59288Y-40783D01*
X59221Y-40622D01*
X59098Y-40499D01*
X58937Y-40432D01*
X58763Y-40432D01*
X58602Y-40498D01*
X58479Y-40621D01*
X58412Y-40782D01*
X58412Y-40956D01*
X58479Y-41117D01*
X58602Y-41241D01*
X58762Y-41307D01*
X58937Y-41307D01*
X59098Y-41241D01*
X59221Y-41118D01*
X59288Y-40957D01*
X59288Y-40783D01*
X59288Y-41783D01*
X59221Y-41622D01*
X59098Y-41499D01*
X58937Y-41432D01*
X58763Y-41432D01*
X58602Y-41498D01*
X58479Y-41621D01*
X58412Y-41782D01*
X58412Y-41956D01*
X58479Y-42117D01*
X58602Y-42241D01*
X58762Y-42307D01*
X58937Y-42307D01*
X59098Y-42241D01*
X59221Y-42118D01*
X59288Y-41957D01*
X59288Y-41783D01*
X59288Y-42783D01*
X59221Y-42622D01*
X59098Y-42499D01*
X58937Y-42432D01*
X58763Y-42432D01*
X58602Y-42498D01*
X58479Y-42621D01*
X58412Y-42782D01*
X58412Y-42956D01*
X58479Y-43117D01*
X58602Y-43241D01*
X58762Y-43307D01*
X58937Y-43307D01*
X59098Y-43241D01*
X59221Y-43118D01*
X59288Y-42957D01*
X59288Y-42783D01*
X59288Y-43783D01*
X59221Y-43622D01*
X59098Y-43499D01*
X58937Y-43432D01*
X58763Y-43432D01*
X58602Y-43498D01*
X58479Y-43621D01*
X58412Y-43782D01*
X58412Y-43956D01*
X58479Y-44117D01*
X58602Y-44241D01*
X58762Y-44307D01*
X58937Y-44307D01*
X59098Y-44241D01*
X59221Y-44118D01*
X59288Y-43957D01*
X59288Y-43783D01*
X59288Y-44458D01*
X53798Y-44458D01*
X53798Y-40954D01*
X53788Y-40904D01*
X53788Y-35696D01*
X53786Y-35686D01*
X53786Y-34442D01*
X53753Y-34274D01*
X53674Y-34243D01*
X53480Y-34438D01*
X53480Y-34049D01*
X53450Y-33971D01*
X53249Y-33937D01*
X53081Y-33971D01*
X53050Y-34049D01*
X53265Y-34264D01*
X53480Y-34049D01*
X53480Y-34438D01*
X53460Y-34458D01*
X53674Y-34673D01*
X53753Y-34642D01*
X53786Y-34442D01*
X53786Y-35686D01*
X53755Y-35528D01*
X53676Y-35497D01*
X53482Y-35692D01*
X53482Y-35303D01*
X53480Y-35298D01*
X53480Y-34867D01*
X53265Y-34653D01*
X53071Y-34847D01*
X53071Y-34458D01*
X52856Y-34243D01*
X52778Y-34274D01*
X52744Y-34474D01*
X52778Y-34642D01*
X52856Y-34673D01*
X53071Y-34458D01*
X53071Y-34847D01*
X53050Y-34867D01*
X53081Y-34946D01*
X53282Y-34979D01*
X53450Y-34946D01*
X53480Y-34867D01*
X53480Y-35298D01*
X53451Y-35225D01*
X53251Y-35191D01*
X53083Y-35225D01*
X53052Y-35303D01*
X53267Y-35518D01*
X53482Y-35303D01*
X53482Y-35692D01*
X53462Y-35712D01*
X53676Y-35927D01*
X53755Y-35896D01*
X53788Y-35696D01*
X53788Y-40904D01*
X53765Y-40786D01*
X53690Y-40757D01*
X53690Y-39888D01*
X53690Y-39888D01*
X53690Y-39218D01*
X53690Y-38668D01*
X53680Y-38644D01*
X53680Y-36630D01*
X53617Y-36479D01*
X53501Y-36362D01*
X53482Y-36354D01*
X53482Y-36121D01*
X53267Y-35907D01*
X53073Y-36101D01*
X53073Y-35712D01*
X52858Y-35497D01*
X52780Y-35528D01*
X52746Y-35728D01*
X52780Y-35896D01*
X52858Y-35927D01*
X53073Y-35712D01*
X53073Y-36101D01*
X53052Y-36121D01*
X53083Y-36200D01*
X53284Y-36233D01*
X53451Y-36200D01*
X53482Y-36121D01*
X53482Y-36354D01*
X53350Y-36299D01*
X53185Y-36299D01*
X53034Y-36362D01*
X52917Y-36478D01*
X52854Y-36630D01*
X52854Y-36794D01*
X52917Y-36946D01*
X53033Y-37062D01*
X53185Y-37125D01*
X53349Y-37125D01*
X53501Y-37062D01*
X53617Y-36946D01*
X53680Y-36795D01*
X53680Y-36630D01*
X53680Y-38644D01*
X53680Y-38644D01*
X53680Y-37960D01*
X53680Y-37410D01*
X53659Y-37359D01*
X53620Y-37320D01*
X53570Y-37299D01*
X53515Y-37299D01*
X52965Y-37299D01*
X52914Y-37320D01*
X52875Y-37359D01*
X52854Y-37410D01*
X52854Y-37464D01*
X52854Y-38014D01*
X52875Y-38065D01*
X52914Y-38104D01*
X52965Y-38125D01*
X53020Y-38125D01*
X53570Y-38125D01*
X53620Y-38104D01*
X53659Y-38065D01*
X53680Y-38015D01*
X53680Y-37960D01*
X53680Y-38644D01*
X53669Y-38617D01*
X53630Y-38578D01*
X53580Y-38557D01*
X53525Y-38557D01*
X52975Y-38557D01*
X52924Y-38578D01*
X52885Y-38617D01*
X52864Y-38667D01*
X52864Y-38722D01*
X52864Y-39272D01*
X52885Y-39323D01*
X52924Y-39362D01*
X52975Y-39383D01*
X53029Y-39383D01*
X53579Y-39383D01*
X53630Y-39362D01*
X53669Y-39323D01*
X53690Y-39273D01*
X53690Y-39218D01*
X53690Y-39888D01*
X53627Y-39736D01*
X53511Y-39620D01*
X53360Y-39557D01*
X53195Y-39557D01*
X53044Y-39620D01*
X52927Y-39736D01*
X52864Y-39888D01*
X52864Y-40052D01*
X52927Y-40203D01*
X53043Y-40320D01*
X53195Y-40383D01*
X53359Y-40383D01*
X53511Y-40320D01*
X53627Y-40204D01*
X53690Y-40052D01*
X53690Y-39888D01*
X53690Y-40757D01*
X53686Y-40755D01*
X53492Y-40950D01*
X53492Y-40561D01*
X53461Y-40482D01*
X53261Y-40449D01*
X53093Y-40482D01*
X53062Y-40561D01*
X53277Y-40776D01*
X53492Y-40561D01*
X53492Y-40950D01*
X53472Y-40970D01*
X53686Y-41185D01*
X53765Y-41154D01*
X53798Y-40954D01*
X53798Y-44458D01*
X53492Y-44458D01*
X53492Y-41379D01*
X53277Y-41164D01*
X53083Y-41359D01*
X53083Y-40970D01*
X52868Y-40755D01*
X52789Y-40786D01*
X52756Y-40986D01*
X52789Y-41154D01*
X52868Y-41185D01*
X53083Y-40970D01*
X53083Y-41359D01*
X53062Y-41379D01*
X53093Y-41458D01*
X53293Y-41491D01*
X53461Y-41458D01*
X53492Y-41379D01*
X53492Y-44458D01*
X52678Y-44458D01*
X52678Y-34706D01*
X52678Y-34156D01*
X52657Y-34105D01*
X52618Y-34066D01*
X52568Y-34045D01*
X52513Y-34045D01*
X51963Y-34045D01*
X51912Y-34066D01*
X51873Y-34105D01*
X51852Y-34156D01*
X51852Y-34210D01*
X51852Y-34760D01*
X51873Y-34811D01*
X51912Y-34850D01*
X51963Y-34871D01*
X52018Y-34871D01*
X52568Y-34871D01*
X52618Y-34850D01*
X52657Y-34811D01*
X52678Y-34761D01*
X52678Y-34706D01*
X52678Y-44458D01*
X46938Y-44458D01*
X46938Y-33796D01*
X46904Y-33628D01*
X46826Y-33598D01*
X46632Y-33792D01*
X46632Y-33403D01*
X46601Y-33325D01*
X46400Y-33292D01*
X46233Y-33325D01*
X46202Y-33403D01*
X46417Y-33618D01*
X46632Y-33403D01*
X46632Y-33792D01*
X46611Y-33812D01*
X46826Y-34027D01*
X46904Y-33997D01*
X46938Y-33796D01*
X46938Y-44458D01*
X46830Y-44458D01*
X46830Y-34731D01*
X46767Y-34579D01*
X46651Y-34463D01*
X46632Y-34455D01*
X46632Y-34222D01*
X46417Y-34007D01*
X46222Y-34201D01*
X46222Y-33812D01*
X46008Y-33598D01*
X45929Y-33628D01*
X45896Y-33829D01*
X45929Y-33997D01*
X46008Y-34027D01*
X46222Y-33812D01*
X46222Y-34201D01*
X46202Y-34222D01*
X46233Y-34300D01*
X46433Y-34333D01*
X46601Y-34300D01*
X46632Y-34222D01*
X46632Y-34455D01*
X46499Y-34400D01*
X46335Y-34400D01*
X46183Y-34462D01*
X46067Y-34578D01*
X46004Y-34730D01*
X46004Y-34894D01*
X46067Y-35046D01*
X46183Y-35162D01*
X46334Y-35225D01*
X46499Y-35225D01*
X46650Y-35163D01*
X46767Y-35047D01*
X46830Y-34895D01*
X46830Y-34731D01*
X46830Y-44458D01*
X46830Y-44458D01*
X46830Y-36060D01*
X46830Y-35510D01*
X46809Y-35460D01*
X46770Y-35421D01*
X46719Y-35400D01*
X46665Y-35400D01*
X46115Y-35400D01*
X46064Y-35421D01*
X46025Y-35459D01*
X46004Y-35510D01*
X46004Y-35565D01*
X46004Y-36115D01*
X46025Y-36165D01*
X46064Y-36204D01*
X46114Y-36225D01*
X46169Y-36225D01*
X46719Y-36225D01*
X46770Y-36204D01*
X46809Y-36166D01*
X46830Y-36115D01*
X46830Y-36060D01*
X46830Y-44458D01*
X46053Y-44458D01*
X46053Y-40571D01*
X46053Y-37571D01*
X45983Y-37401D01*
X45853Y-37271D01*
X45683Y-37200D01*
X45498Y-37200D01*
X45328Y-37270D01*
X45198Y-37400D01*
X45127Y-37570D01*
X45127Y-37755D01*
X45197Y-37925D01*
X45328Y-38055D01*
X45498Y-38126D01*
X45682Y-38126D01*
X45852Y-38055D01*
X45982Y-37925D01*
X46053Y-37755D01*
X46053Y-37571D01*
X46053Y-40571D01*
X45983Y-40401D01*
X45853Y-40271D01*
X45683Y-40200D01*
X45498Y-40200D01*
X45328Y-40270D01*
X45198Y-40400D01*
X45127Y-40570D01*
X45127Y-40755D01*
X45197Y-40925D01*
X45328Y-41055D01*
X45498Y-41126D01*
X45682Y-41126D01*
X45852Y-41055D01*
X45982Y-40925D01*
X46053Y-40755D01*
X46053Y-40571D01*
X46053Y-44458D01*
X43744Y-44458D01*
X43744Y-37637D01*
X43744Y-37637D01*
X43744Y-36997D01*
X43744Y-36397D01*
X43723Y-36346D01*
X43685Y-36307D01*
X43634Y-36286D01*
X43579Y-36286D01*
X42979Y-36286D01*
X42929Y-36307D01*
X42890Y-36346D01*
X42869Y-36396D01*
X42869Y-36451D01*
X42869Y-37051D01*
X42890Y-37102D01*
X42928Y-37141D01*
X42979Y-37162D01*
X43034Y-37162D01*
X43634Y-37162D01*
X43685Y-37141D01*
X43723Y-37102D01*
X43744Y-37051D01*
X43744Y-36997D01*
X43744Y-37637D01*
X43678Y-37476D01*
X43555Y-37353D01*
X43394Y-37286D01*
X43220Y-37286D01*
X43059Y-37353D01*
X42936Y-37476D01*
X42869Y-37636D01*
X42869Y-37811D01*
X42935Y-37972D01*
X43058Y-38095D01*
X43219Y-38162D01*
X43393Y-38162D01*
X43554Y-38095D01*
X43678Y-37972D01*
X43744Y-37811D01*
X43744Y-37637D01*
X43744Y-44458D01*
X40416Y-44458D01*
X40416Y-33846D01*
X40383Y-33682D01*
X40304Y-33648D01*
X40092Y-33860D01*
X40092Y-33435D01*
X40057Y-33356D01*
X39846Y-33323D01*
X39682Y-33356D01*
X39648Y-33435D01*
X39870Y-33657D01*
X40092Y-33435D01*
X40092Y-33860D01*
X40082Y-33870D01*
X40304Y-34092D01*
X40383Y-34057D01*
X40416Y-33846D01*
X40416Y-44458D01*
X40307Y-44458D01*
X40307Y-43783D01*
X40307Y-42783D01*
X40307Y-41783D01*
X40307Y-40783D01*
X40307Y-39783D01*
X40307Y-38783D01*
X40307Y-37783D01*
X40307Y-36783D01*
X40307Y-35783D01*
X40307Y-34783D01*
X40241Y-34622D01*
X40118Y-34499D01*
X40092Y-34488D01*
X40092Y-34304D01*
X39870Y-34082D01*
X39657Y-34294D01*
X39657Y-33870D01*
X39435Y-33648D01*
X39406Y-33660D01*
X39406Y-33523D01*
X39370Y-33436D01*
X39304Y-33369D01*
X39217Y-33333D01*
X39123Y-33333D01*
X39079Y-33333D01*
X39020Y-33392D01*
X39020Y-33720D01*
X39133Y-33720D01*
X39133Y-34020D01*
X39020Y-34020D01*
X39020Y-34347D01*
X39079Y-34406D01*
X39123Y-34406D01*
X39217Y-34406D01*
X39304Y-34370D01*
X39370Y-34303D01*
X39406Y-34216D01*
X39406Y-34079D01*
X39435Y-34092D01*
X39657Y-33870D01*
X39657Y-34294D01*
X39648Y-34304D01*
X39682Y-34383D01*
X39893Y-34416D01*
X40057Y-34383D01*
X40092Y-34304D01*
X40092Y-34488D01*
X39957Y-34432D01*
X39783Y-34432D01*
X39622Y-34498D01*
X39499Y-34621D01*
X39432Y-34782D01*
X39432Y-34956D01*
X39498Y-35117D01*
X39621Y-35241D01*
X39782Y-35307D01*
X39956Y-35307D01*
X40117Y-35241D01*
X40241Y-35118D01*
X40307Y-34957D01*
X40307Y-34783D01*
X40307Y-35783D01*
X40241Y-35622D01*
X40118Y-35499D01*
X39957Y-35432D01*
X39783Y-35432D01*
X39622Y-35498D01*
X39499Y-35621D01*
X39432Y-35782D01*
X39432Y-35956D01*
X39498Y-36117D01*
X39621Y-36241D01*
X39782Y-36307D01*
X39956Y-36307D01*
X40117Y-36241D01*
X40241Y-36118D01*
X40307Y-35957D01*
X40307Y-35783D01*
X40307Y-36783D01*
X40241Y-36622D01*
X40118Y-36499D01*
X39957Y-36432D01*
X39783Y-36432D01*
X39622Y-36498D01*
X39499Y-36621D01*
X39432Y-36782D01*
X39432Y-36956D01*
X39498Y-37117D01*
X39621Y-37241D01*
X39782Y-37307D01*
X39956Y-37307D01*
X40117Y-37241D01*
X40241Y-37118D01*
X40307Y-36957D01*
X40307Y-36783D01*
X40307Y-37783D01*
X40241Y-37622D01*
X40118Y-37499D01*
X39957Y-37432D01*
X39783Y-37432D01*
X39622Y-37498D01*
X39499Y-37621D01*
X39432Y-37782D01*
X39432Y-37956D01*
X39498Y-38117D01*
X39621Y-38241D01*
X39782Y-38307D01*
X39956Y-38307D01*
X40117Y-38241D01*
X40241Y-38118D01*
X40307Y-37957D01*
X40307Y-37783D01*
X40307Y-38783D01*
X40241Y-38622D01*
X40118Y-38499D01*
X39957Y-38432D01*
X39783Y-38432D01*
X39622Y-38498D01*
X39499Y-38621D01*
X39432Y-38782D01*
X39432Y-38956D01*
X39498Y-39117D01*
X39621Y-39241D01*
X39782Y-39307D01*
X39956Y-39307D01*
X40117Y-39241D01*
X40241Y-39118D01*
X40307Y-38957D01*
X40307Y-38783D01*
X40307Y-39783D01*
X40241Y-39622D01*
X40118Y-39499D01*
X39957Y-39432D01*
X39783Y-39432D01*
X39622Y-39498D01*
X39499Y-39621D01*
X39432Y-39782D01*
X39432Y-39956D01*
X39498Y-40117D01*
X39621Y-40241D01*
X39782Y-40307D01*
X39956Y-40307D01*
X40117Y-40241D01*
X40241Y-40118D01*
X40307Y-39957D01*
X40307Y-39783D01*
X40307Y-40783D01*
X40241Y-40622D01*
X40118Y-40499D01*
X39957Y-40432D01*
X39783Y-40432D01*
X39622Y-40498D01*
X39499Y-40621D01*
X39432Y-40782D01*
X39432Y-40956D01*
X39498Y-41117D01*
X39621Y-41241D01*
X39782Y-41307D01*
X39956Y-41307D01*
X40117Y-41241D01*
X40241Y-41118D01*
X40307Y-40957D01*
X40307Y-40783D01*
X40307Y-41783D01*
X40241Y-41622D01*
X40118Y-41499D01*
X39957Y-41432D01*
X39783Y-41432D01*
X39622Y-41498D01*
X39499Y-41621D01*
X39432Y-41782D01*
X39432Y-41956D01*
X39498Y-42117D01*
X39621Y-42241D01*
X39782Y-42307D01*
X39956Y-42307D01*
X40117Y-42241D01*
X40241Y-42118D01*
X40307Y-41957D01*
X40307Y-41783D01*
X40307Y-42783D01*
X40241Y-42622D01*
X40118Y-42499D01*
X39957Y-42432D01*
X39783Y-42432D01*
X39622Y-42498D01*
X39499Y-42621D01*
X39432Y-42782D01*
X39432Y-42956D01*
X39498Y-43117D01*
X39621Y-43241D01*
X39782Y-43307D01*
X39956Y-43307D01*
X40117Y-43241D01*
X40241Y-43118D01*
X40307Y-42957D01*
X40307Y-42783D01*
X40307Y-43783D01*
X40241Y-43622D01*
X40118Y-43499D01*
X39957Y-43432D01*
X39783Y-43432D01*
X39622Y-43498D01*
X39499Y-43621D01*
X39432Y-43782D01*
X39432Y-43956D01*
X39498Y-44117D01*
X39621Y-44241D01*
X39782Y-44307D01*
X39956Y-44307D01*
X40117Y-44241D01*
X40241Y-44118D01*
X40307Y-43957D01*
X40307Y-43783D01*
X40307Y-44458D01*
X39416Y-44458D01*
X39416Y-35846D01*
X39383Y-35682D01*
X39307Y-35649D01*
X39307Y-34783D01*
X39241Y-34622D01*
X39118Y-34499D01*
X38957Y-34432D01*
X38783Y-34432D01*
X38720Y-34458D01*
X38720Y-34347D01*
X38720Y-34020D01*
X38720Y-33720D01*
X38720Y-33392D01*
X38661Y-33333D01*
X38616Y-33333D01*
X38522Y-33333D01*
X38436Y-33369D01*
X38369Y-33436D01*
X38333Y-33523D01*
X38333Y-33661D01*
X38392Y-33720D01*
X38720Y-33720D01*
X38720Y-34020D01*
X38392Y-34020D01*
X38333Y-34079D01*
X38333Y-34216D01*
X38369Y-34303D01*
X38436Y-34370D01*
X38522Y-34406D01*
X38616Y-34406D01*
X38661Y-34406D01*
X38720Y-34347D01*
X38720Y-34458D01*
X38622Y-34498D01*
X38499Y-34621D01*
X38432Y-34782D01*
X38432Y-34956D01*
X38498Y-35117D01*
X38621Y-35241D01*
X38782Y-35307D01*
X38956Y-35307D01*
X39117Y-35241D01*
X39241Y-35118D01*
X39307Y-34957D01*
X39307Y-34783D01*
X39307Y-35649D01*
X39304Y-35648D01*
X39092Y-35860D01*
X39092Y-35435D01*
X39057Y-35356D01*
X38846Y-35323D01*
X38682Y-35356D01*
X38648Y-35435D01*
X38870Y-35657D01*
X39092Y-35435D01*
X39092Y-35860D01*
X39082Y-35870D01*
X39304Y-36092D01*
X39383Y-36057D01*
X39416Y-35846D01*
X39416Y-44458D01*
X39307Y-44458D01*
X39307Y-43783D01*
X39307Y-42783D01*
X39307Y-41783D01*
X39307Y-40783D01*
X39307Y-39783D01*
X39307Y-38783D01*
X39307Y-37783D01*
X39307Y-36783D01*
X39241Y-36622D01*
X39118Y-36499D01*
X39092Y-36488D01*
X39092Y-36304D01*
X38870Y-36082D01*
X38657Y-36294D01*
X38657Y-35870D01*
X38435Y-35648D01*
X38356Y-35682D01*
X38323Y-35893D01*
X38356Y-36057D01*
X38435Y-36092D01*
X38657Y-35870D01*
X38657Y-36294D01*
X38648Y-36304D01*
X38682Y-36383D01*
X38893Y-36416D01*
X39057Y-36383D01*
X39092Y-36304D01*
X39092Y-36488D01*
X38957Y-36432D01*
X38783Y-36432D01*
X38622Y-36498D01*
X38499Y-36621D01*
X38432Y-36782D01*
X38432Y-36956D01*
X38498Y-37117D01*
X38621Y-37241D01*
X38782Y-37307D01*
X38956Y-37307D01*
X39117Y-37241D01*
X39241Y-37118D01*
X39307Y-36957D01*
X39307Y-36783D01*
X39307Y-37783D01*
X39241Y-37622D01*
X39118Y-37499D01*
X38957Y-37432D01*
X38783Y-37432D01*
X38622Y-37498D01*
X38499Y-37621D01*
X38432Y-37782D01*
X38432Y-37956D01*
X38498Y-38117D01*
X38621Y-38241D01*
X38782Y-38307D01*
X38956Y-38307D01*
X39117Y-38241D01*
X39241Y-38118D01*
X39307Y-37957D01*
X39307Y-37783D01*
X39307Y-38783D01*
X39241Y-38622D01*
X39118Y-38499D01*
X38957Y-38432D01*
X38783Y-38432D01*
X38622Y-38498D01*
X38499Y-38621D01*
X38432Y-38782D01*
X38432Y-38956D01*
X38498Y-39117D01*
X38621Y-39241D01*
X38782Y-39307D01*
X38956Y-39307D01*
X39117Y-39241D01*
X39241Y-39118D01*
X39307Y-38957D01*
X39307Y-38783D01*
X39307Y-39783D01*
X39241Y-39622D01*
X39118Y-39499D01*
X38957Y-39432D01*
X38783Y-39432D01*
X38622Y-39498D01*
X38499Y-39621D01*
X38432Y-39782D01*
X38432Y-39956D01*
X38498Y-40117D01*
X38621Y-40241D01*
X38782Y-40307D01*
X38956Y-40307D01*
X39117Y-40241D01*
X39241Y-40118D01*
X39307Y-39957D01*
X39307Y-39783D01*
X39307Y-40783D01*
X39241Y-40622D01*
X39118Y-40499D01*
X38957Y-40432D01*
X38783Y-40432D01*
X38622Y-40498D01*
X38499Y-40621D01*
X38432Y-40782D01*
X38432Y-40956D01*
X38498Y-41117D01*
X38621Y-41241D01*
X38782Y-41307D01*
X38956Y-41307D01*
X39117Y-41241D01*
X39241Y-41118D01*
X39307Y-40957D01*
X39307Y-40783D01*
X39307Y-41783D01*
X39241Y-41622D01*
X39118Y-41499D01*
X38957Y-41432D01*
X38783Y-41432D01*
X38622Y-41498D01*
X38499Y-41621D01*
X38432Y-41782D01*
X38432Y-41956D01*
X38498Y-42117D01*
X38621Y-42241D01*
X38782Y-42307D01*
X38956Y-42307D01*
X39117Y-42241D01*
X39241Y-42118D01*
X39307Y-41957D01*
X39307Y-41783D01*
X39307Y-42783D01*
X39241Y-42622D01*
X39118Y-42499D01*
X38957Y-42432D01*
X38783Y-42432D01*
X38622Y-42498D01*
X38499Y-42621D01*
X38432Y-42782D01*
X38432Y-42956D01*
X38498Y-43117D01*
X38621Y-43241D01*
X38782Y-43307D01*
X38956Y-43307D01*
X39117Y-43241D01*
X39241Y-43118D01*
X39307Y-42957D01*
X39307Y-42783D01*
X39307Y-43783D01*
X39241Y-43622D01*
X39118Y-43499D01*
X38957Y-43432D01*
X38783Y-43432D01*
X38622Y-43498D01*
X38499Y-43621D01*
X38432Y-43782D01*
X38432Y-43956D01*
X38498Y-44117D01*
X38621Y-44241D01*
X38782Y-44307D01*
X38956Y-44307D01*
X39117Y-44241D01*
X39241Y-44118D01*
X39307Y-43957D01*
X39307Y-43783D01*
X39307Y-44458D01*
X37401Y-44458D01*
X37401Y-33001D01*
X60590Y-33001D01*
X60590Y-44458D01*
X60590Y-44458D01*
G37*
G54D19*
X60590Y-44458D02*
X60396Y-44458D01*
X60396Y-33846D01*
X60363Y-33682D01*
X60284Y-33648D01*
X60072Y-33860D01*
X60072Y-33435D01*
X60038Y-33356D01*
X59827Y-33323D01*
X59662Y-33356D01*
X59628Y-33435D01*
X59850Y-33657D01*
X60072Y-33435D01*
X60072Y-33860D01*
X60062Y-33870D01*
X60284Y-34092D01*
X60363Y-34057D01*
X60396Y-33846D01*
X60396Y-44458D01*
X60288Y-44458D01*
X60288Y-43783D01*
X60288Y-42783D01*
X60288Y-41783D01*
X60288Y-40783D01*
X60288Y-39783D01*
X60288Y-38783D01*
X60288Y-37783D01*
X60288Y-36783D01*
X60288Y-35783D01*
X60288Y-34783D01*
X60221Y-34622D01*
X60098Y-34499D01*
X60072Y-34488D01*
X60072Y-34304D01*
X59850Y-34082D01*
X59638Y-34294D01*
X59638Y-33870D01*
X59416Y-33648D01*
X59386Y-33660D01*
X59386Y-33523D01*
X59350Y-33436D01*
X59284Y-33369D01*
X59197Y-33333D01*
X59103Y-33333D01*
X59059Y-33333D01*
X59000Y-33392D01*
X59000Y-33720D01*
X59114Y-33720D01*
X59114Y-34020D01*
X59000Y-34020D01*
X59000Y-34347D01*
X59059Y-34406D01*
X59103Y-34406D01*
X59197Y-34406D01*
X59284Y-34370D01*
X59350Y-34303D01*
X59386Y-34216D01*
X59386Y-34079D01*
X59416Y-34092D01*
X59638Y-33870D01*
X59638Y-34294D01*
X59628Y-34304D01*
X59662Y-34383D01*
X59873Y-34416D01*
X60038Y-34383D01*
X60072Y-34304D01*
X60072Y-34488D01*
X59937Y-34432D01*
X59763Y-34432D01*
X59602Y-34498D01*
X59479Y-34621D01*
X59412Y-34782D01*
X59412Y-34956D01*
X59479Y-35117D01*
X59602Y-35241D01*
X59762Y-35307D01*
X59937Y-35307D01*
X60098Y-35241D01*
X60221Y-35118D01*
X60288Y-34957D01*
X60288Y-34783D01*
X60288Y-35783D01*
X60221Y-35622D01*
X60098Y-35499D01*
X59937Y-35432D01*
X59763Y-35432D01*
X59602Y-35498D01*
X59479Y-35621D01*
X59412Y-35782D01*
X59412Y-35956D01*
X59479Y-36117D01*
X59602Y-36241D01*
X59762Y-36307D01*
X59937Y-36307D01*
X60098Y-36241D01*
X60221Y-36118D01*
X60288Y-35957D01*
X60288Y-35783D01*
X60288Y-36783D01*
X60221Y-36622D01*
X60098Y-36499D01*
X59937Y-36432D01*
X59763Y-36432D01*
X59602Y-36498D01*
X59479Y-36621D01*
X59412Y-36782D01*
X59412Y-36956D01*
X59479Y-37117D01*
X59602Y-37241D01*
X59762Y-37307D01*
X59937Y-37307D01*
X60098Y-37241D01*
X60221Y-37118D01*
X60288Y-36957D01*
X60288Y-36783D01*
X60288Y-37783D01*
X60221Y-37622D01*
X60098Y-37499D01*
X59937Y-37432D01*
X59763Y-37432D01*
X59602Y-37498D01*
X59479Y-37621D01*
X59412Y-37782D01*
X59412Y-37956D01*
X59479Y-38117D01*
X59602Y-38241D01*
X59762Y-38307D01*
X59937Y-38307D01*
X60098Y-38241D01*
X60221Y-38118D01*
X60288Y-37957D01*
X60288Y-37783D01*
X60288Y-38783D01*
X60221Y-38622D01*
X60098Y-38499D01*
X59937Y-38432D01*
X59763Y-38432D01*
X59602Y-38498D01*
X59479Y-38621D01*
X59412Y-38782D01*
X59412Y-38956D01*
X59479Y-39117D01*
X59602Y-39241D01*
X59762Y-39307D01*
X59937Y-39307D01*
X60098Y-39241D01*
X60221Y-39118D01*
X60288Y-38957D01*
X60288Y-38783D01*
X60288Y-39783D01*
X60221Y-39622D01*
X60098Y-39499D01*
X59937Y-39432D01*
X59763Y-39432D01*
X59602Y-39498D01*
X59479Y-39621D01*
X59412Y-39782D01*
X59412Y-39956D01*
X59479Y-40117D01*
X59602Y-40241D01*
X59762Y-40307D01*
X59937Y-40307D01*
X60098Y-40241D01*
X60221Y-40118D01*
X60288Y-39957D01*
X60288Y-39783D01*
X60288Y-40783D01*
X60221Y-40622D01*
X60098Y-40499D01*
X59937Y-40432D01*
X59763Y-40432D01*
X59602Y-40498D01*
X59479Y-40621D01*
X59412Y-40782D01*
X59412Y-40956D01*
X59479Y-41117D01*
X59602Y-41241D01*
X59762Y-41307D01*
X59937Y-41307D01*
X60098Y-41241D01*
X60221Y-41118D01*
X60288Y-40957D01*
X60288Y-40783D01*
X60288Y-41783D01*
X60221Y-41622D01*
X60098Y-41499D01*
X59937Y-41432D01*
X59763Y-41432D01*
X59602Y-41498D01*
X59479Y-41621D01*
X59412Y-41782D01*
X59412Y-41956D01*
X59479Y-42117D01*
X59602Y-42241D01*
X59762Y-42307D01*
X59937Y-42307D01*
X60098Y-42241D01*
X60221Y-42118D01*
X60288Y-41957D01*
X60288Y-41783D01*
X60288Y-42783D01*
X60221Y-42622D01*
X60098Y-42499D01*
X59937Y-42432D01*
X59763Y-42432D01*
X59602Y-42498D01*
X59479Y-42621D01*
X59412Y-42782D01*
X59412Y-42956D01*
X59479Y-43117D01*
X59602Y-43241D01*
X59762Y-43307D01*
X59937Y-43307D01*
X60098Y-43241D01*
X60221Y-43118D01*
X60288Y-42957D01*
X60288Y-42783D01*
X60288Y-43783D01*
X60221Y-43622D01*
X60098Y-43499D01*
X59937Y-43432D01*
X59763Y-43432D01*
X59602Y-43498D01*
X59479Y-43621D01*
X59412Y-43782D01*
X59412Y-43956D01*
X59479Y-44117D01*
X59602Y-44241D01*
X59762Y-44307D01*
X59937Y-44307D01*
X60098Y-44241D01*
X60221Y-44118D01*
X60288Y-43957D01*
X60288Y-43783D01*
X60288Y-44458D01*
X59288Y-44458D01*
X59288Y-43783D01*
X59288Y-42783D01*
X59288Y-41783D01*
X59288Y-40783D01*
X59288Y-39783D01*
X59288Y-38783D01*
X59288Y-37783D01*
X59288Y-36783D01*
X59288Y-35783D01*
X59288Y-34783D01*
X59221Y-34622D01*
X59098Y-34499D01*
X58937Y-34432D01*
X58763Y-34432D01*
X58700Y-34458D01*
X58700Y-34347D01*
X58700Y-34020D01*
X58700Y-33720D01*
X58700Y-33392D01*
X58641Y-33333D01*
X58597Y-33333D01*
X58503Y-33333D01*
X58416Y-33369D01*
X58350Y-33436D01*
X58314Y-33523D01*
X58314Y-33661D01*
X58373Y-33720D01*
X58700Y-33720D01*
X58700Y-34020D01*
X58373Y-34020D01*
X58314Y-34079D01*
X58314Y-34216D01*
X58350Y-34303D01*
X58416Y-34370D01*
X58503Y-34406D01*
X58597Y-34406D01*
X58641Y-34406D01*
X58700Y-34347D01*
X58700Y-34458D01*
X58602Y-34498D01*
X58479Y-34621D01*
X58412Y-34782D01*
X58412Y-34956D01*
X58479Y-35117D01*
X58602Y-35241D01*
X58762Y-35307D01*
X58937Y-35307D01*
X59098Y-35241D01*
X59221Y-35118D01*
X59288Y-34957D01*
X59288Y-34783D01*
X59288Y-35783D01*
X59221Y-35622D01*
X59098Y-35499D01*
X58937Y-35432D01*
X58763Y-35432D01*
X58602Y-35498D01*
X58479Y-35621D01*
X58412Y-35782D01*
X58412Y-35956D01*
X58479Y-36117D01*
X58602Y-36241D01*
X58762Y-36307D01*
X58937Y-36307D01*
X59098Y-36241D01*
X59221Y-36118D01*
X59288Y-35957D01*
X59288Y-35783D01*
X59288Y-36783D01*
X59221Y-36622D01*
X59098Y-36499D01*
X58937Y-36432D01*
X58763Y-36432D01*
X58602Y-36498D01*
X58479Y-36621D01*
X58412Y-36782D01*
X58412Y-36956D01*
X58479Y-37117D01*
X58602Y-37241D01*
X58762Y-37307D01*
X58937Y-37307D01*
X59098Y-37241D01*
X59221Y-37118D01*
X59288Y-36957D01*
X59288Y-36783D01*
X59288Y-37783D01*
X59221Y-37622D01*
X59098Y-37499D01*
X58937Y-37432D01*
X58763Y-37432D01*
X58602Y-37498D01*
X58479Y-37621D01*
X58412Y-37782D01*
X58412Y-37956D01*
X58479Y-38117D01*
X58602Y-38241D01*
X58762Y-38307D01*
X58937Y-38307D01*
X59098Y-38241D01*
X59221Y-38118D01*
X59288Y-37957D01*
X59288Y-37783D01*
X59288Y-38783D01*
X59221Y-38622D01*
X59098Y-38499D01*
X58937Y-38432D01*
X58763Y-38432D01*
X58602Y-38498D01*
X58479Y-38621D01*
X58412Y-38782D01*
X58412Y-38956D01*
X58479Y-39117D01*
X58602Y-39241D01*
X58762Y-39307D01*
X58937Y-39307D01*
X59098Y-39241D01*
X59221Y-39118D01*
X59288Y-38957D01*
X59288Y-38783D01*
X59288Y-39783D01*
X59221Y-39622D01*
X59098Y-39499D01*
X58937Y-39432D01*
X58763Y-39432D01*
X58602Y-39498D01*
X58479Y-39621D01*
X58412Y-39782D01*
X58412Y-39956D01*
X58479Y-40117D01*
X58602Y-40241D01*
X58762Y-40307D01*
X58937Y-40307D01*
X59098Y-40241D01*
X59221Y-40118D01*
X59288Y-39957D01*
X59288Y-39783D01*
X59288Y-40783D01*
X59221Y-40622D01*
X59098Y-40499D01*
X58937Y-40432D01*
X58763Y-40432D01*
X58602Y-40498D01*
X58479Y-40621D01*
X58412Y-40782D01*
X58412Y-40956D01*
X58479Y-41117D01*
X58602Y-41241D01*
X58762Y-41307D01*
X58937Y-41307D01*
X59098Y-41241D01*
X59221Y-41118D01*
X59288Y-40957D01*
X59288Y-40783D01*
X59288Y-41783D01*
X59221Y-41622D01*
X59098Y-41499D01*
X58937Y-41432D01*
X58763Y-41432D01*
X58602Y-41498D01*
X58479Y-41621D01*
X58412Y-41782D01*
X58412Y-41956D01*
X58479Y-42117D01*
X58602Y-42241D01*
X58762Y-42307D01*
X58937Y-42307D01*
X59098Y-42241D01*
X59221Y-42118D01*
X59288Y-41957D01*
X59288Y-41783D01*
X59288Y-42783D01*
X59221Y-42622D01*
X59098Y-42499D01*
X58937Y-42432D01*
X58763Y-42432D01*
X58602Y-42498D01*
X58479Y-42621D01*
X58412Y-42782D01*
X58412Y-42956D01*
X58479Y-43117D01*
X58602Y-43241D01*
X58762Y-43307D01*
X58937Y-43307D01*
X59098Y-43241D01*
X59221Y-43118D01*
X59288Y-42957D01*
X59288Y-42783D01*
X59288Y-43783D01*
X59221Y-43622D01*
X59098Y-43499D01*
X58937Y-43432D01*
X58763Y-43432D01*
X58602Y-43498D01*
X58479Y-43621D01*
X58412Y-43782D01*
X58412Y-43956D01*
X58479Y-44117D01*
X58602Y-44241D01*
X58762Y-44307D01*
X58937Y-44307D01*
X59098Y-44241D01*
X59221Y-44118D01*
X59288Y-43957D01*
X59288Y-43783D01*
X59288Y-44458D01*
X53798Y-44458D01*
X53798Y-40954D01*
X53788Y-40904D01*
X53788Y-35696D01*
X53786Y-35686D01*
X53786Y-34442D01*
X53753Y-34274D01*
X53674Y-34243D01*
X53480Y-34438D01*
X53480Y-34049D01*
X53450Y-33971D01*
X53249Y-33937D01*
X53081Y-33971D01*
X53050Y-34049D01*
X53265Y-34264D01*
X53480Y-34049D01*
X53480Y-34438D01*
X53460Y-34458D01*
X53674Y-34673D01*
X53753Y-34642D01*
X53786Y-34442D01*
X53786Y-35686D01*
X53755Y-35528D01*
X53676Y-35497D01*
X53482Y-35692D01*
X53482Y-35303D01*
X53480Y-35298D01*
X53480Y-34867D01*
X53265Y-34653D01*
X53071Y-34847D01*
X53071Y-34458D01*
X52856Y-34243D01*
X52778Y-34274D01*
X52744Y-34474D01*
X52778Y-34642D01*
X52856Y-34673D01*
X53071Y-34458D01*
X53071Y-34847D01*
X53050Y-34867D01*
X53081Y-34946D01*
X53282Y-34979D01*
X53450Y-34946D01*
X53480Y-34867D01*
X53480Y-35298D01*
X53451Y-35225D01*
X53251Y-35191D01*
X53083Y-35225D01*
X53052Y-35303D01*
X53267Y-35518D01*
X53482Y-35303D01*
X53482Y-35692D01*
X53462Y-35712D01*
X53676Y-35927D01*
X53755Y-35896D01*
X53788Y-35696D01*
X53788Y-40904D01*
X53765Y-40786D01*
X53690Y-40757D01*
X53690Y-39888D01*
X53690Y-39888D01*
X53690Y-39218D01*
X53690Y-38668D01*
X53680Y-38644D01*
X53680Y-36630D01*
X53617Y-36479D01*
X53501Y-36362D01*
X53482Y-36354D01*
X53482Y-36121D01*
X53267Y-35907D01*
X53073Y-36101D01*
X53073Y-35712D01*
X52858Y-35497D01*
X52780Y-35528D01*
X52746Y-35728D01*
X52780Y-35896D01*
X52858Y-35927D01*
X53073Y-35712D01*
X53073Y-36101D01*
X53052Y-36121D01*
X53083Y-36200D01*
X53284Y-36233D01*
X53451Y-36200D01*
X53482Y-36121D01*
X53482Y-36354D01*
X53350Y-36299D01*
X53185Y-36299D01*
X53034Y-36362D01*
X52917Y-36478D01*
X52854Y-36630D01*
X52854Y-36794D01*
X52917Y-36946D01*
X53033Y-37062D01*
X53185Y-37125D01*
X53349Y-37125D01*
X53501Y-37062D01*
X53617Y-36946D01*
X53680Y-36795D01*
X53680Y-36630D01*
X53680Y-38644D01*
X53680Y-38644D01*
X53680Y-37960D01*
X53680Y-37410D01*
X53659Y-37359D01*
X53620Y-37320D01*
X53570Y-37299D01*
X53515Y-37299D01*
X52965Y-37299D01*
X52914Y-37320D01*
X52875Y-37359D01*
X52854Y-37410D01*
X52854Y-37464D01*
X52854Y-38014D01*
X52875Y-38065D01*
X52914Y-38104D01*
X52965Y-38125D01*
X53020Y-38125D01*
X53570Y-38125D01*
X53620Y-38104D01*
X53659Y-38065D01*
X53680Y-38015D01*
X53680Y-37960D01*
X53680Y-38644D01*
X53669Y-38617D01*
X53630Y-38578D01*
X53580Y-38557D01*
X53525Y-38557D01*
X52975Y-38557D01*
X52924Y-38578D01*
X52885Y-38617D01*
X52864Y-38667D01*
X52864Y-38722D01*
X52864Y-39272D01*
X52885Y-39323D01*
X52924Y-39362D01*
X52975Y-39383D01*
X53029Y-39383D01*
X53579Y-39383D01*
X53630Y-39362D01*
X53669Y-39323D01*
X53690Y-39273D01*
X53690Y-39218D01*
X53690Y-39888D01*
X53627Y-39736D01*
X53511Y-39620D01*
X53360Y-39557D01*
X53195Y-39557D01*
X53044Y-39620D01*
X52927Y-39736D01*
X52864Y-39888D01*
X52864Y-40052D01*
X52927Y-40203D01*
X53043Y-40320D01*
X53195Y-40383D01*
X53359Y-40383D01*
X53511Y-40320D01*
X53627Y-40204D01*
X53690Y-40052D01*
X53690Y-39888D01*
X53690Y-40757D01*
X53686Y-40755D01*
X53492Y-40950D01*
X53492Y-40561D01*
X53461Y-40482D01*
X53261Y-40449D01*
X53093Y-40482D01*
X53062Y-40561D01*
X53277Y-40776D01*
X53492Y-40561D01*
X53492Y-40950D01*
X53472Y-40970D01*
X53686Y-41185D01*
X53765Y-41154D01*
X53798Y-40954D01*
X53798Y-44458D01*
X53492Y-44458D01*
X53492Y-41379D01*
X53277Y-41164D01*
X53083Y-41359D01*
X53083Y-40970D01*
X52868Y-40755D01*
X52789Y-40786D01*
X52756Y-40986D01*
X52789Y-41154D01*
X52868Y-41185D01*
X53083Y-40970D01*
X53083Y-41359D01*
X53062Y-41379D01*
X53093Y-41458D01*
X53293Y-41491D01*
X53461Y-41458D01*
X53492Y-41379D01*
X53492Y-44458D01*
X52678Y-44458D01*
X52678Y-34706D01*
X52678Y-34156D01*
X52657Y-34105D01*
X52618Y-34066D01*
X52568Y-34045D01*
X52513Y-34045D01*
X51963Y-34045D01*
X51912Y-34066D01*
X51873Y-34105D01*
X51852Y-34156D01*
X51852Y-34210D01*
X51852Y-34760D01*
X51873Y-34811D01*
X51912Y-34850D01*
X51963Y-34871D01*
X52018Y-34871D01*
X52568Y-34871D01*
X52618Y-34850D01*
X52657Y-34811D01*
X52678Y-34761D01*
X52678Y-34706D01*
X52678Y-44458D01*
X46938Y-44458D01*
X46938Y-33796D01*
X46904Y-33628D01*
X46826Y-33598D01*
X46632Y-33792D01*
X46632Y-33403D01*
X46601Y-33325D01*
X46400Y-33292D01*
X46233Y-33325D01*
X46202Y-33403D01*
X46417Y-33618D01*
X46632Y-33403D01*
X46632Y-33792D01*
X46611Y-33812D01*
X46826Y-34027D01*
X46904Y-33997D01*
X46938Y-33796D01*
X46938Y-44458D01*
X46830Y-44458D01*
X46830Y-34731D01*
X46767Y-34579D01*
X46651Y-34463D01*
X46632Y-34455D01*
X46632Y-34222D01*
X46417Y-34007D01*
X46222Y-34201D01*
X46222Y-33812D01*
X46008Y-33598D01*
X45929Y-33628D01*
X45896Y-33829D01*
X45929Y-33997D01*
X46008Y-34027D01*
X46222Y-33812D01*
X46222Y-34201D01*
X46202Y-34222D01*
X46233Y-34300D01*
X46433Y-34333D01*
X46601Y-34300D01*
X46632Y-34222D01*
X46632Y-34455D01*
X46499Y-34400D01*
X46335Y-34400D01*
X46183Y-34462D01*
X46067Y-34578D01*
X46004Y-34730D01*
X46004Y-34894D01*
X46067Y-35046D01*
X46183Y-35162D01*
X46334Y-35225D01*
X46499Y-35225D01*
X46650Y-35163D01*
X46767Y-35047D01*
X46830Y-34895D01*
X46830Y-34731D01*
X46830Y-44458D01*
X46830Y-44458D01*
X46830Y-36060D01*
X46830Y-35510D01*
X46809Y-35460D01*
X46770Y-35421D01*
X46719Y-35400D01*
X46665Y-35400D01*
X46115Y-35400D01*
X46064Y-35421D01*
X46025Y-35459D01*
X46004Y-35510D01*
X46004Y-35565D01*
X46004Y-36115D01*
X46025Y-36165D01*
X46064Y-36204D01*
X46114Y-36225D01*
X46169Y-36225D01*
X46719Y-36225D01*
X46770Y-36204D01*
X46809Y-36166D01*
X46830Y-36115D01*
X46830Y-36060D01*
X46830Y-44458D01*
X46053Y-44458D01*
X46053Y-40571D01*
X46053Y-37571D01*
X45983Y-37401D01*
X45853Y-37271D01*
X45683Y-37200D01*
X45498Y-37200D01*
X45328Y-37270D01*
X45198Y-37400D01*
X45127Y-37570D01*
X45127Y-37755D01*
X45197Y-37925D01*
X45328Y-38055D01*
X45498Y-38126D01*
X45682Y-38126D01*
X45852Y-38055D01*
X45982Y-37925D01*
X46053Y-37755D01*
X46053Y-37571D01*
X46053Y-40571D01*
X45983Y-40401D01*
X45853Y-40271D01*
X45683Y-40200D01*
X45498Y-40200D01*
X45328Y-40270D01*
X45198Y-40400D01*
X45127Y-40570D01*
X45127Y-40755D01*
X45197Y-40925D01*
X45328Y-41055D01*
X45498Y-41126D01*
X45682Y-41126D01*
X45852Y-41055D01*
X45982Y-40925D01*
X46053Y-40755D01*
X46053Y-40571D01*
X46053Y-44458D01*
X43744Y-44458D01*
X43744Y-37637D01*
X43744Y-37637D01*
X43744Y-36997D01*
X43744Y-36397D01*
X43723Y-36346D01*
X43685Y-36307D01*
X43634Y-36286D01*
X43579Y-36286D01*
X42979Y-36286D01*
X42929Y-36307D01*
X42890Y-36346D01*
X42869Y-36396D01*
X42869Y-36451D01*
X42869Y-37051D01*
X42890Y-37102D01*
X42928Y-37141D01*
X42979Y-37162D01*
X43034Y-37162D01*
X43634Y-37162D01*
X43685Y-37141D01*
X43723Y-37102D01*
X43744Y-37051D01*
X43744Y-36997D01*
X43744Y-37637D01*
X43678Y-37476D01*
X43555Y-37353D01*
X43394Y-37286D01*
X43220Y-37286D01*
X43059Y-37353D01*
X42936Y-37476D01*
X42869Y-37636D01*
X42869Y-37811D01*
X42935Y-37972D01*
X43058Y-38095D01*
X43219Y-38162D01*
X43393Y-38162D01*
X43554Y-38095D01*
X43678Y-37972D01*
X43744Y-37811D01*
X43744Y-37637D01*
X43744Y-44458D01*
X40416Y-44458D01*
X40416Y-33846D01*
X40383Y-33682D01*
X40304Y-33648D01*
X40092Y-33860D01*
X40092Y-33435D01*
X40057Y-33356D01*
X39846Y-33323D01*
X39682Y-33356D01*
X39648Y-33435D01*
X39870Y-33657D01*
X40092Y-33435D01*
X40092Y-33860D01*
X40082Y-33870D01*
X40304Y-34092D01*
X40383Y-34057D01*
X40416Y-33846D01*
X40416Y-44458D01*
X40307Y-44458D01*
X40307Y-43783D01*
X40307Y-42783D01*
X40307Y-41783D01*
X40307Y-40783D01*
X40307Y-39783D01*
X40307Y-38783D01*
X40307Y-37783D01*
X40307Y-36783D01*
X40307Y-35783D01*
X40307Y-34783D01*
X40241Y-34622D01*
X40118Y-34499D01*
X40092Y-34488D01*
X40092Y-34304D01*
X39870Y-34082D01*
X39657Y-34294D01*
X39657Y-33870D01*
X39435Y-33648D01*
X39406Y-33660D01*
X39406Y-33523D01*
X39370Y-33436D01*
X39304Y-33369D01*
X39217Y-33333D01*
X39123Y-33333D01*
X39079Y-33333D01*
X39020Y-33392D01*
X39020Y-33720D01*
X39133Y-33720D01*
X39133Y-34020D01*
X39020Y-34020D01*
X39020Y-34347D01*
X39079Y-34406D01*
X39123Y-34406D01*
X39217Y-34406D01*
X39304Y-34370D01*
X39370Y-34303D01*
X39406Y-34216D01*
X39406Y-34079D01*
X39435Y-34092D01*
X39657Y-33870D01*
X39657Y-34294D01*
X39648Y-34304D01*
X39682Y-34383D01*
X39893Y-34416D01*
X40057Y-34383D01*
X40092Y-34304D01*
X40092Y-34488D01*
X39957Y-34432D01*
X39783Y-34432D01*
X39622Y-34498D01*
X39499Y-34621D01*
X39432Y-34782D01*
X39432Y-34956D01*
X39498Y-35117D01*
X39621Y-35241D01*
X39782Y-35307D01*
X39956Y-35307D01*
X40117Y-35241D01*
X40241Y-35118D01*
X40307Y-34957D01*
X40307Y-34783D01*
X40307Y-35783D01*
X40241Y-35622D01*
X40118Y-35499D01*
X39957Y-35432D01*
X39783Y-35432D01*
X39622Y-35498D01*
X39499Y-35621D01*
X39432Y-35782D01*
X39432Y-35956D01*
X39498Y-36117D01*
X39621Y-36241D01*
X39782Y-36307D01*
X39956Y-36307D01*
X40117Y-36241D01*
X40241Y-36118D01*
X40307Y-35957D01*
X40307Y-35783D01*
X40307Y-36783D01*
X40241Y-36622D01*
X40118Y-36499D01*
X39957Y-36432D01*
X39783Y-36432D01*
X39622Y-36498D01*
X39499Y-36621D01*
X39432Y-36782D01*
X39432Y-36956D01*
X39498Y-37117D01*
X39621Y-37241D01*
X39782Y-37307D01*
X39956Y-37307D01*
X40117Y-37241D01*
X40241Y-37118D01*
X40307Y-36957D01*
X40307Y-36783D01*
X40307Y-37783D01*
X40241Y-37622D01*
X40118Y-37499D01*
X39957Y-37432D01*
X39783Y-37432D01*
X39622Y-37498D01*
X39499Y-37621D01*
X39432Y-37782D01*
X39432Y-37956D01*
X39498Y-38117D01*
X39621Y-38241D01*
X39782Y-38307D01*
X39956Y-38307D01*
X40117Y-38241D01*
X40241Y-38118D01*
X40307Y-37957D01*
X40307Y-37783D01*
X40307Y-38783D01*
X40241Y-38622D01*
X40118Y-38499D01*
X39957Y-38432D01*
X39783Y-38432D01*
X39622Y-38498D01*
X39499Y-38621D01*
X39432Y-38782D01*
X39432Y-38956D01*
X39498Y-39117D01*
X39621Y-39241D01*
X39782Y-39307D01*
X39956Y-39307D01*
X40117Y-39241D01*
X40241Y-39118D01*
X40307Y-38957D01*
X40307Y-38783D01*
X40307Y-39783D01*
X40241Y-39622D01*
X40118Y-39499D01*
X39957Y-39432D01*
X39783Y-39432D01*
X39622Y-39498D01*
X39499Y-39621D01*
X39432Y-39782D01*
X39432Y-39956D01*
X39498Y-40117D01*
X39621Y-40241D01*
X39782Y-40307D01*
X39956Y-40307D01*
X40117Y-40241D01*
X40241Y-40118D01*
X40307Y-39957D01*
X40307Y-39783D01*
X40307Y-40783D01*
X40241Y-40622D01*
X40118Y-40499D01*
X39957Y-40432D01*
X39783Y-40432D01*
X39622Y-40498D01*
X39499Y-40621D01*
X39432Y-40782D01*
X39432Y-40956D01*
X39498Y-41117D01*
X39621Y-41241D01*
X39782Y-41307D01*
X39956Y-41307D01*
X40117Y-41241D01*
X40241Y-41118D01*
X40307Y-40957D01*
X40307Y-40783D01*
X40307Y-41783D01*
X40241Y-41622D01*
X40118Y-41499D01*
X39957Y-41432D01*
X39783Y-41432D01*
X39622Y-41498D01*
X39499Y-41621D01*
X39432Y-41782D01*
X39432Y-41956D01*
X39498Y-42117D01*
X39621Y-42241D01*
X39782Y-42307D01*
X39956Y-42307D01*
X40117Y-42241D01*
X40241Y-42118D01*
X40307Y-41957D01*
X40307Y-41783D01*
X40307Y-42783D01*
X40241Y-42622D01*
X40118Y-42499D01*
X39957Y-42432D01*
X39783Y-42432D01*
X39622Y-42498D01*
X39499Y-42621D01*
X39432Y-42782D01*
X39432Y-42956D01*
X39498Y-43117D01*
X39621Y-43241D01*
X39782Y-43307D01*
X39956Y-43307D01*
X40117Y-43241D01*
X40241Y-43118D01*
X40307Y-42957D01*
X40307Y-42783D01*
X40307Y-43783D01*
X40241Y-43622D01*
X40118Y-43499D01*
X39957Y-43432D01*
X39783Y-43432D01*
X39622Y-43498D01*
X39499Y-43621D01*
X39432Y-43782D01*
X39432Y-43956D01*
X39498Y-44117D01*
X39621Y-44241D01*
X39782Y-44307D01*
X39956Y-44307D01*
X40117Y-44241D01*
X40241Y-44118D01*
X40307Y-43957D01*
X40307Y-43783D01*
X40307Y-44458D01*
X39416Y-44458D01*
X39416Y-35846D01*
X39383Y-35682D01*
X39307Y-35649D01*
X39307Y-34783D01*
X39241Y-34622D01*
X39118Y-34499D01*
X38957Y-34432D01*
X38783Y-34432D01*
X38720Y-34458D01*
X38720Y-34347D01*
X38720Y-34020D01*
X38720Y-33720D01*
X38720Y-33392D01*
X38661Y-33333D01*
X38616Y-33333D01*
X38522Y-33333D01*
X38436Y-33369D01*
X38369Y-33436D01*
X38333Y-33523D01*
X38333Y-33661D01*
X38392Y-33720D01*
X38720Y-33720D01*
X38720Y-34020D01*
X38392Y-34020D01*
X38333Y-34079D01*
X38333Y-34216D01*
X38369Y-34303D01*
X38436Y-34370D01*
X38522Y-34406D01*
X38616Y-34406D01*
X38661Y-34406D01*
X38720Y-34347D01*
X38720Y-34458D01*
X38622Y-34498D01*
X38499Y-34621D01*
X38432Y-34782D01*
X38432Y-34956D01*
X38498Y-35117D01*
X38621Y-35241D01*
X38782Y-35307D01*
X38956Y-35307D01*
X39117Y-35241D01*
X39241Y-35118D01*
X39307Y-34957D01*
X39307Y-34783D01*
X39307Y-35649D01*
X39304Y-35648D01*
X39092Y-35860D01*
X39092Y-35435D01*
X39057Y-35356D01*
X38846Y-35323D01*
X38682Y-35356D01*
X38648Y-35435D01*
X38870Y-35657D01*
X39092Y-35435D01*
X39092Y-35860D01*
X39082Y-35870D01*
X39304Y-36092D01*
X39383Y-36057D01*
X39416Y-35846D01*
X39416Y-44458D01*
X39307Y-44458D01*
X39307Y-43783D01*
X39307Y-42783D01*
X39307Y-41783D01*
X39307Y-40783D01*
X39307Y-39783D01*
X39307Y-38783D01*
X39307Y-37783D01*
X39307Y-36783D01*
X39241Y-36622D01*
X39118Y-36499D01*
X39092Y-36488D01*
X39092Y-36304D01*
X38870Y-36082D01*
X38657Y-36294D01*
X38657Y-35870D01*
X38435Y-35648D01*
X38356Y-35682D01*
X38323Y-35893D01*
X38356Y-36057D01*
X38435Y-36092D01*
X38657Y-35870D01*
X38657Y-36294D01*
X38648Y-36304D01*
X38682Y-36383D01*
X38893Y-36416D01*
X39057Y-36383D01*
X39092Y-36304D01*
X39092Y-36488D01*
X38957Y-36432D01*
X38783Y-36432D01*
X38622Y-36498D01*
X38499Y-36621D01*
X38432Y-36782D01*
X38432Y-36956D01*
X38498Y-37117D01*
X38621Y-37241D01*
X38782Y-37307D01*
X38956Y-37307D01*
X39117Y-37241D01*
X39241Y-37118D01*
X39307Y-36957D01*
X39307Y-36783D01*
X39307Y-37783D01*
X39241Y-37622D01*
X39118Y-37499D01*
X38957Y-37432D01*
X38783Y-37432D01*
X38622Y-37498D01*
X38499Y-37621D01*
X38432Y-37782D01*
X38432Y-37956D01*
X38498Y-38117D01*
X38621Y-38241D01*
X38782Y-38307D01*
X38956Y-38307D01*
X39117Y-38241D01*
X39241Y-38118D01*
X39307Y-37957D01*
X39307Y-37783D01*
X39307Y-38783D01*
X39241Y-38622D01*
X39118Y-38499D01*
X38957Y-38432D01*
X38783Y-38432D01*
X38622Y-38498D01*
X38499Y-38621D01*
X38432Y-38782D01*
X38432Y-38956D01*
X38498Y-39117D01*
X38621Y-39241D01*
X38782Y-39307D01*
X38956Y-39307D01*
X39117Y-39241D01*
X39241Y-39118D01*
X39307Y-38957D01*
X39307Y-38783D01*
X39307Y-39783D01*
X39241Y-39622D01*
X39118Y-39499D01*
X38957Y-39432D01*
X38783Y-39432D01*
X38622Y-39498D01*
X38499Y-39621D01*
X38432Y-39782D01*
X38432Y-39956D01*
X38498Y-40117D01*
X38621Y-40241D01*
X38782Y-40307D01*
X38956Y-40307D01*
X39117Y-40241D01*
X39241Y-40118D01*
X39307Y-39957D01*
X39307Y-39783D01*
X39307Y-40783D01*
X39241Y-40622D01*
X39118Y-40499D01*
X38957Y-40432D01*
X38783Y-40432D01*
X38622Y-40498D01*
X38499Y-40621D01*
X38432Y-40782D01*
X38432Y-40956D01*
X38498Y-41117D01*
X38621Y-41241D01*
X38782Y-41307D01*
X38956Y-41307D01*
X39117Y-41241D01*
X39241Y-41118D01*
X39307Y-40957D01*
X39307Y-40783D01*
X39307Y-41783D01*
X39241Y-41622D01*
X39118Y-41499D01*
X38957Y-41432D01*
X38783Y-41432D01*
X38622Y-41498D01*
X38499Y-41621D01*
X38432Y-41782D01*
X38432Y-41956D01*
X38498Y-42117D01*
X38621Y-42241D01*
X38782Y-42307D01*
X38956Y-42307D01*
X39117Y-42241D01*
X39241Y-42118D01*
X39307Y-41957D01*
X39307Y-41783D01*
X39307Y-42783D01*
X39241Y-42622D01*
X39118Y-42499D01*
X38957Y-42432D01*
X38783Y-42432D01*
X38622Y-42498D01*
X38499Y-42621D01*
X38432Y-42782D01*
X38432Y-42956D01*
X38498Y-43117D01*
X38621Y-43241D01*
X38782Y-43307D01*
X38956Y-43307D01*
X39117Y-43241D01*
X39241Y-43118D01*
X39307Y-42957D01*
X39307Y-42783D01*
X39307Y-43783D01*
X39241Y-43622D01*
X39118Y-43499D01*
X38957Y-43432D01*
X38783Y-43432D01*
X38622Y-43498D01*
X38499Y-43621D01*
X38432Y-43782D01*
X38432Y-43956D01*
X38498Y-44117D01*
X38621Y-44241D01*
X38782Y-44307D01*
X38956Y-44307D01*
X39117Y-44241D01*
X39241Y-44118D01*
X39307Y-43957D01*
X39307Y-43783D01*
X39307Y-44458D01*
X37401Y-44458D01*
X37401Y-33001D01*
X60590Y-33001D01*
X60590Y-44458D01*
M02*
