G04 (created by PCBNEW (2013-mar-13)-testing) date Fri 31 May 2013 15:23:22 BST*
%MOIN*%
G04 Gerber Fmt 3.4, Leading zero omitted, Abs format*
%FSLAX34Y34*%
G01*
G70*
G90*
G04 APERTURE LIST*
%ADD10C,0.006000*%
%ADD11C,0.011811*%
%ADD12R,0.035000X0.055000*%
%ADD13R,0.060000X0.080000*%
%ADD14R,0.045000X0.020000*%
G04 APERTURE END LIST*
G54D10*
G54D11*
X28481Y-38766D02*
X28284Y-38766D01*
X28284Y-39076D02*
X28284Y-38485D01*
X28565Y-38485D01*
X28790Y-39076D02*
X28790Y-38682D01*
X28790Y-38794D02*
X28818Y-38738D01*
X28847Y-38710D01*
X28903Y-38682D01*
X28959Y-38682D01*
X29240Y-39076D02*
X29184Y-39048D01*
X29156Y-39019D01*
X29128Y-38963D01*
X29128Y-38794D01*
X29156Y-38738D01*
X29184Y-38710D01*
X29240Y-38682D01*
X29325Y-38682D01*
X29381Y-38710D01*
X29409Y-38738D01*
X29437Y-38794D01*
X29437Y-38963D01*
X29409Y-39019D01*
X29381Y-39048D01*
X29325Y-39076D01*
X29240Y-39076D01*
X29690Y-38682D02*
X29690Y-39076D01*
X29690Y-38738D02*
X29718Y-38710D01*
X29775Y-38682D01*
X29859Y-38682D01*
X29915Y-38710D01*
X29943Y-38766D01*
X29943Y-39076D01*
X30140Y-38682D02*
X30365Y-38682D01*
X30224Y-38485D02*
X30224Y-38991D01*
X30253Y-39048D01*
X30309Y-39076D01*
X30365Y-39076D01*
X30984Y-39048D02*
X31068Y-39076D01*
X31209Y-39076D01*
X31265Y-39048D01*
X31293Y-39019D01*
X31321Y-38963D01*
X31321Y-38907D01*
X31293Y-38851D01*
X31265Y-38823D01*
X31209Y-38794D01*
X31096Y-38766D01*
X31040Y-38738D01*
X31012Y-38710D01*
X30984Y-38654D01*
X30984Y-38598D01*
X31012Y-38541D01*
X31040Y-38513D01*
X31096Y-38485D01*
X31237Y-38485D01*
X31321Y-38513D01*
X31659Y-39076D02*
X31602Y-39048D01*
X31574Y-39019D01*
X31546Y-38963D01*
X31546Y-38794D01*
X31574Y-38738D01*
X31602Y-38710D01*
X31659Y-38682D01*
X31743Y-38682D01*
X31799Y-38710D01*
X31827Y-38738D01*
X31856Y-38794D01*
X31856Y-38963D01*
X31827Y-39019D01*
X31799Y-39048D01*
X31743Y-39076D01*
X31659Y-39076D01*
X32193Y-39076D02*
X32137Y-39048D01*
X32109Y-38991D01*
X32109Y-38485D01*
X32671Y-39076D02*
X32671Y-38485D01*
X32671Y-39048D02*
X32615Y-39076D01*
X32502Y-39076D01*
X32446Y-39048D01*
X32418Y-39019D01*
X32390Y-38963D01*
X32390Y-38794D01*
X32418Y-38738D01*
X32446Y-38710D01*
X32502Y-38682D01*
X32615Y-38682D01*
X32671Y-38710D01*
X33177Y-39048D02*
X33121Y-39076D01*
X33008Y-39076D01*
X32952Y-39048D01*
X32924Y-38991D01*
X32924Y-38766D01*
X32952Y-38710D01*
X33008Y-38682D01*
X33121Y-38682D01*
X33177Y-38710D01*
X33205Y-38766D01*
X33205Y-38823D01*
X32924Y-38879D01*
X33458Y-39076D02*
X33458Y-38682D01*
X33458Y-38794D02*
X33487Y-38738D01*
X33515Y-38710D01*
X33571Y-38682D01*
X33627Y-38682D01*
X34274Y-39076D02*
X34274Y-38485D01*
X34499Y-38485D01*
X34555Y-38513D01*
X34583Y-38541D01*
X34611Y-38598D01*
X34611Y-38682D01*
X34583Y-38738D01*
X34555Y-38766D01*
X34499Y-38794D01*
X34274Y-38794D01*
X35118Y-39076D02*
X35118Y-38766D01*
X35089Y-38710D01*
X35033Y-38682D01*
X34921Y-38682D01*
X34865Y-38710D01*
X35118Y-39048D02*
X35061Y-39076D01*
X34921Y-39076D01*
X34865Y-39048D01*
X34836Y-38991D01*
X34836Y-38935D01*
X34865Y-38879D01*
X34921Y-38851D01*
X35061Y-38851D01*
X35118Y-38823D01*
X35371Y-39048D02*
X35427Y-39076D01*
X35539Y-39076D01*
X35596Y-39048D01*
X35624Y-38991D01*
X35624Y-38963D01*
X35596Y-38907D01*
X35539Y-38879D01*
X35455Y-38879D01*
X35399Y-38851D01*
X35371Y-38794D01*
X35371Y-38766D01*
X35399Y-38710D01*
X35455Y-38682D01*
X35539Y-38682D01*
X35596Y-38710D01*
X35793Y-38682D02*
X36017Y-38682D01*
X35877Y-38485D02*
X35877Y-38991D01*
X35905Y-39048D01*
X35961Y-39076D01*
X36017Y-39076D01*
X36439Y-39048D02*
X36383Y-39076D01*
X36271Y-39076D01*
X36214Y-39048D01*
X36186Y-38991D01*
X36186Y-38766D01*
X36214Y-38710D01*
X36271Y-38682D01*
X36383Y-38682D01*
X36439Y-38710D01*
X36467Y-38766D01*
X36467Y-38823D01*
X36186Y-38879D01*
G54D12*
X49951Y-35059D03*
X49201Y-35059D03*
G54D13*
X50138Y-33809D03*
X48838Y-33809D03*
G54D14*
X48394Y-36570D03*
X48394Y-37070D03*
X48394Y-37570D03*
X48394Y-38070D03*
X48394Y-38570D03*
X48394Y-39070D03*
X48394Y-39570D03*
X50894Y-39570D03*
X50894Y-39070D03*
X50894Y-38070D03*
X50894Y-37570D03*
X50894Y-37070D03*
X50894Y-36570D03*
X50894Y-38570D03*
M02*
