G04 (created by PCBNEW (2013-mar-13)-testing) date Fri 31 May 2013 15:23:22 BST*
%MOIN*%
G04 Gerber Fmt 3.4, Leading zero omitted, Abs format*
%FSLAX34Y34*%
G01*
G70*
G90*
G04 APERTURE LIST*
%ADD10C,0.006000*%
%ADD11C,0.011811*%
%ADD12R,0.035000X0.055000*%
%ADD13R,0.060000X0.080000*%
%ADD14R,0.060000X0.060000*%
%ADD15C,0.060000*%
%ADD16C,0.065000*%
%ADD17R,0.045000X0.020000*%
%ADD18R,0.055000X0.055000*%
%ADD19C,0.055000*%
G04 APERTURE END LIST*
G54D10*
G54D11*
X28464Y-36217D02*
X28267Y-36217D01*
X28267Y-36526D02*
X28267Y-35936D01*
X28548Y-35936D01*
X28773Y-36526D02*
X28773Y-36133D01*
X28773Y-36245D02*
X28802Y-36189D01*
X28830Y-36161D01*
X28886Y-36133D01*
X28942Y-36133D01*
X29223Y-36526D02*
X29167Y-36498D01*
X29139Y-36470D01*
X29111Y-36414D01*
X29111Y-36245D01*
X29139Y-36189D01*
X29167Y-36161D01*
X29223Y-36133D01*
X29308Y-36133D01*
X29364Y-36161D01*
X29392Y-36189D01*
X29420Y-36245D01*
X29420Y-36414D01*
X29392Y-36470D01*
X29364Y-36498D01*
X29308Y-36526D01*
X29223Y-36526D01*
X29673Y-36133D02*
X29673Y-36526D01*
X29673Y-36189D02*
X29701Y-36161D01*
X29758Y-36133D01*
X29842Y-36133D01*
X29898Y-36161D01*
X29926Y-36217D01*
X29926Y-36526D01*
X30123Y-36133D02*
X30348Y-36133D01*
X30208Y-35936D02*
X30208Y-36442D01*
X30236Y-36498D01*
X30292Y-36526D01*
X30348Y-36526D01*
X30967Y-36498D02*
X31051Y-36526D01*
X31192Y-36526D01*
X31248Y-36498D01*
X31276Y-36470D01*
X31304Y-36414D01*
X31304Y-36358D01*
X31276Y-36302D01*
X31248Y-36273D01*
X31192Y-36245D01*
X31079Y-36217D01*
X31023Y-36189D01*
X30995Y-36161D01*
X30967Y-36105D01*
X30967Y-36048D01*
X30995Y-35992D01*
X31023Y-35964D01*
X31079Y-35936D01*
X31220Y-35936D01*
X31304Y-35964D01*
X31642Y-36526D02*
X31586Y-36498D01*
X31557Y-36470D01*
X31529Y-36414D01*
X31529Y-36245D01*
X31557Y-36189D01*
X31586Y-36161D01*
X31642Y-36133D01*
X31726Y-36133D01*
X31782Y-36161D01*
X31811Y-36189D01*
X31839Y-36245D01*
X31839Y-36414D01*
X31811Y-36470D01*
X31782Y-36498D01*
X31726Y-36526D01*
X31642Y-36526D01*
X32176Y-36526D02*
X32120Y-36498D01*
X32092Y-36442D01*
X32092Y-35936D01*
X32654Y-36526D02*
X32654Y-35936D01*
X32654Y-36498D02*
X32598Y-36526D01*
X32485Y-36526D01*
X32429Y-36498D01*
X32401Y-36470D01*
X32373Y-36414D01*
X32373Y-36245D01*
X32401Y-36189D01*
X32429Y-36161D01*
X32485Y-36133D01*
X32598Y-36133D01*
X32654Y-36161D01*
X33160Y-36498D02*
X33104Y-36526D01*
X32992Y-36526D01*
X32935Y-36498D01*
X32907Y-36442D01*
X32907Y-36217D01*
X32935Y-36161D01*
X32992Y-36133D01*
X33104Y-36133D01*
X33160Y-36161D01*
X33188Y-36217D01*
X33188Y-36273D01*
X32907Y-36330D01*
X33442Y-36526D02*
X33442Y-36133D01*
X33442Y-36245D02*
X33470Y-36189D01*
X33498Y-36161D01*
X33554Y-36133D01*
X33610Y-36133D01*
X34257Y-36526D02*
X34257Y-35936D01*
X34454Y-36358D01*
X34651Y-35936D01*
X34651Y-36526D01*
X35185Y-36526D02*
X35185Y-36217D01*
X35157Y-36161D01*
X35101Y-36133D01*
X34988Y-36133D01*
X34932Y-36161D01*
X35185Y-36498D02*
X35129Y-36526D01*
X34988Y-36526D01*
X34932Y-36498D01*
X34904Y-36442D01*
X34904Y-36386D01*
X34932Y-36330D01*
X34988Y-36302D01*
X35129Y-36302D01*
X35185Y-36273D01*
X35438Y-36498D02*
X35494Y-36526D01*
X35607Y-36526D01*
X35663Y-36498D01*
X35691Y-36442D01*
X35691Y-36414D01*
X35663Y-36358D01*
X35607Y-36330D01*
X35523Y-36330D01*
X35466Y-36302D01*
X35438Y-36245D01*
X35438Y-36217D01*
X35466Y-36161D01*
X35523Y-36133D01*
X35607Y-36133D01*
X35663Y-36161D01*
X35944Y-36526D02*
X35944Y-35936D01*
X36001Y-36302D02*
X36169Y-36526D01*
X36169Y-36133D02*
X35944Y-36358D01*
G54D12*
X49951Y-35059D03*
X49201Y-35059D03*
G54D13*
X50138Y-33809D03*
X48838Y-33809D03*
G54D14*
X38870Y-33870D03*
G54D15*
X39870Y-33870D03*
X38870Y-34870D03*
X39870Y-34870D03*
X38870Y-35870D03*
X39870Y-35870D03*
X38870Y-36870D03*
X39870Y-36870D03*
X38870Y-37870D03*
X39870Y-37870D03*
X38870Y-38870D03*
X39870Y-38870D03*
X38870Y-39870D03*
X39870Y-39870D03*
X38870Y-40870D03*
X39870Y-40870D03*
X38870Y-41870D03*
X39870Y-41870D03*
X38870Y-42870D03*
X39870Y-42870D03*
X38870Y-43870D03*
X39870Y-43870D03*
G54D14*
X43307Y-36724D03*
G54D15*
X43307Y-37724D03*
G54D14*
X58850Y-33870D03*
G54D15*
X59850Y-33870D03*
X58850Y-34870D03*
X59850Y-34870D03*
X58850Y-35870D03*
X59850Y-35870D03*
X58850Y-36870D03*
X59850Y-36870D03*
X58850Y-37870D03*
X59850Y-37870D03*
X58850Y-38870D03*
X59850Y-38870D03*
X58850Y-39870D03*
X59850Y-39870D03*
X58850Y-40870D03*
X59850Y-40870D03*
X58850Y-41870D03*
X59850Y-41870D03*
X58850Y-42870D03*
X59850Y-42870D03*
X58850Y-43870D03*
X59850Y-43870D03*
G54D16*
X45590Y-37663D03*
X45590Y-40663D03*
G54D17*
X48394Y-36570D03*
X48394Y-37070D03*
X48394Y-37570D03*
X48394Y-38070D03*
X48394Y-38570D03*
X48394Y-39070D03*
X48394Y-39570D03*
X50894Y-39570D03*
X50894Y-39070D03*
X50894Y-38070D03*
X50894Y-37570D03*
X50894Y-37070D03*
X50894Y-36570D03*
X50894Y-38570D03*
G54D18*
X46417Y-35812D03*
G54D19*
X46417Y-34812D03*
X46417Y-33812D03*
G54D18*
X52265Y-34458D03*
G54D19*
X53265Y-34458D03*
G54D18*
X53267Y-37712D03*
G54D19*
X53267Y-36712D03*
X53267Y-35712D03*
G54D18*
X53277Y-38970D03*
G54D19*
X53277Y-39970D03*
X53277Y-40970D03*
M02*
