G04 (created by PCBNEW (2013-mar-13)-testing) date Fri 31 May 2013 15:23:22 BST*
%MOIN*%
G04 Gerber Fmt 3.4, Leading zero omitted, Abs format*
%FSLAX34Y34*%
G01*
G70*
G90*
G04 APERTURE LIST*
%ADD10C,0.006000*%
%ADD11C,0.011811*%
%ADD12R,0.060000X0.060000*%
%ADD13C,0.060000*%
%ADD14C,0.065000*%
%ADD15R,0.055000X0.055000*%
%ADD16C,0.055000*%
G04 APERTURE END LIST*
G54D10*
G54D11*
X28440Y-37487D02*
X28525Y-37515D01*
X28553Y-37543D01*
X28581Y-37599D01*
X28581Y-37684D01*
X28553Y-37740D01*
X28525Y-37768D01*
X28468Y-37796D01*
X28243Y-37796D01*
X28243Y-37206D01*
X28440Y-37206D01*
X28496Y-37234D01*
X28525Y-37262D01*
X28553Y-37318D01*
X28553Y-37374D01*
X28525Y-37431D01*
X28496Y-37459D01*
X28440Y-37487D01*
X28243Y-37487D01*
X29087Y-37796D02*
X29087Y-37487D01*
X29059Y-37431D01*
X29003Y-37402D01*
X28890Y-37402D01*
X28834Y-37431D01*
X29087Y-37768D02*
X29031Y-37796D01*
X28890Y-37796D01*
X28834Y-37768D01*
X28806Y-37712D01*
X28806Y-37656D01*
X28834Y-37599D01*
X28890Y-37571D01*
X29031Y-37571D01*
X29087Y-37543D01*
X29621Y-37768D02*
X29565Y-37796D01*
X29453Y-37796D01*
X29396Y-37768D01*
X29368Y-37740D01*
X29340Y-37684D01*
X29340Y-37515D01*
X29368Y-37459D01*
X29396Y-37431D01*
X29453Y-37402D01*
X29565Y-37402D01*
X29621Y-37431D01*
X29874Y-37796D02*
X29874Y-37206D01*
X29931Y-37571D02*
X30099Y-37796D01*
X30099Y-37402D02*
X29874Y-37627D01*
X30774Y-37768D02*
X30859Y-37796D01*
X30999Y-37796D01*
X31055Y-37768D01*
X31084Y-37740D01*
X31112Y-37684D01*
X31112Y-37627D01*
X31084Y-37571D01*
X31055Y-37543D01*
X30999Y-37515D01*
X30887Y-37487D01*
X30830Y-37459D01*
X30802Y-37431D01*
X30774Y-37374D01*
X30774Y-37318D01*
X30802Y-37262D01*
X30830Y-37234D01*
X30887Y-37206D01*
X31027Y-37206D01*
X31112Y-37234D01*
X31449Y-37796D02*
X31393Y-37768D01*
X31365Y-37740D01*
X31337Y-37684D01*
X31337Y-37515D01*
X31365Y-37459D01*
X31393Y-37431D01*
X31449Y-37402D01*
X31534Y-37402D01*
X31590Y-37431D01*
X31618Y-37459D01*
X31646Y-37515D01*
X31646Y-37684D01*
X31618Y-37740D01*
X31590Y-37768D01*
X31534Y-37796D01*
X31449Y-37796D01*
X31983Y-37796D02*
X31927Y-37768D01*
X31899Y-37712D01*
X31899Y-37206D01*
X32462Y-37796D02*
X32462Y-37206D01*
X32462Y-37768D02*
X32405Y-37796D01*
X32293Y-37796D01*
X32237Y-37768D01*
X32208Y-37740D01*
X32180Y-37684D01*
X32180Y-37515D01*
X32208Y-37459D01*
X32237Y-37431D01*
X32293Y-37402D01*
X32405Y-37402D01*
X32462Y-37431D01*
X32968Y-37768D02*
X32911Y-37796D01*
X32799Y-37796D01*
X32743Y-37768D01*
X32715Y-37712D01*
X32715Y-37487D01*
X32743Y-37431D01*
X32799Y-37402D01*
X32911Y-37402D01*
X32968Y-37431D01*
X32996Y-37487D01*
X32996Y-37543D01*
X32715Y-37599D01*
X33249Y-37796D02*
X33249Y-37402D01*
X33249Y-37515D02*
X33277Y-37459D01*
X33305Y-37431D01*
X33361Y-37402D01*
X33418Y-37402D01*
X34064Y-37796D02*
X34064Y-37206D01*
X34261Y-37627D01*
X34458Y-37206D01*
X34458Y-37796D01*
X34992Y-37796D02*
X34992Y-37487D01*
X34964Y-37431D01*
X34908Y-37402D01*
X34796Y-37402D01*
X34739Y-37431D01*
X34992Y-37768D02*
X34936Y-37796D01*
X34796Y-37796D01*
X34739Y-37768D01*
X34711Y-37712D01*
X34711Y-37656D01*
X34739Y-37599D01*
X34796Y-37571D01*
X34936Y-37571D01*
X34992Y-37543D01*
X35246Y-37768D02*
X35302Y-37796D01*
X35414Y-37796D01*
X35471Y-37768D01*
X35499Y-37712D01*
X35499Y-37684D01*
X35471Y-37627D01*
X35414Y-37599D01*
X35330Y-37599D01*
X35274Y-37571D01*
X35246Y-37515D01*
X35246Y-37487D01*
X35274Y-37431D01*
X35330Y-37402D01*
X35414Y-37402D01*
X35471Y-37431D01*
X35752Y-37796D02*
X35752Y-37206D01*
X35808Y-37571D02*
X35977Y-37796D01*
X35977Y-37402D02*
X35752Y-37627D01*
G54D12*
X38870Y-33870D03*
G54D13*
X39870Y-33870D03*
X38870Y-34870D03*
X39870Y-34870D03*
X38870Y-35870D03*
X39870Y-35870D03*
X38870Y-36870D03*
X39870Y-36870D03*
X38870Y-37870D03*
X39870Y-37870D03*
X38870Y-38870D03*
X39870Y-38870D03*
X38870Y-39870D03*
X39870Y-39870D03*
X38870Y-40870D03*
X39870Y-40870D03*
X38870Y-41870D03*
X39870Y-41870D03*
X38870Y-42870D03*
X39870Y-42870D03*
X38870Y-43870D03*
X39870Y-43870D03*
G54D12*
X43307Y-36724D03*
G54D13*
X43307Y-37724D03*
G54D12*
X58850Y-33870D03*
G54D13*
X59850Y-33870D03*
X58850Y-34870D03*
X59850Y-34870D03*
X58850Y-35870D03*
X59850Y-35870D03*
X58850Y-36870D03*
X59850Y-36870D03*
X58850Y-37870D03*
X59850Y-37870D03*
X58850Y-38870D03*
X59850Y-38870D03*
X58850Y-39870D03*
X59850Y-39870D03*
X58850Y-40870D03*
X59850Y-40870D03*
X58850Y-41870D03*
X59850Y-41870D03*
X58850Y-42870D03*
X59850Y-42870D03*
X58850Y-43870D03*
X59850Y-43870D03*
G54D14*
X45590Y-37663D03*
X45590Y-40663D03*
G54D15*
X46417Y-35812D03*
G54D16*
X46417Y-34812D03*
X46417Y-33812D03*
G54D15*
X52265Y-34458D03*
G54D16*
X53265Y-34458D03*
G54D15*
X53267Y-37712D03*
G54D16*
X53267Y-36712D03*
X53267Y-35712D03*
G54D15*
X53277Y-38970D03*
G54D16*
X53277Y-39970D03*
X53277Y-40970D03*
M02*
