M48
;DRILL file {Pcbnew (2013-mar-13)-testing} date Fri 31 May 2013 15:23:32 BST
;FORMAT={-:-/ absolute / metric / decimal}
FMAT,2
METRIC,TZ
T1C0.500
T2C0.813
T3C1.016
%
G90
G05
M71
T1
X105.725Y-100.975
X105.725Y-103.75
X105.725Y-110.15
X105.725Y-112.425
X108.475Y-85.875
X108.475Y-88.4
X120.6Y-96.55
X124.975Y-94.025
X127.075Y-96.1
X127.225Y-102.6
X130.95Y-102.6
T2
X115.8Y-95.665
X115.8Y-103.285
X117.9Y-85.885
X117.9Y-88.425
X117.9Y-90.965
X132.755Y-87.525
X135.295Y-87.525
X135.3Y-90.71
X135.3Y-93.25
X135.3Y-95.79
X135.325Y-98.985
X135.325Y-101.525
X135.325Y-104.065
T3
X98.73Y-86.03
X98.73Y-88.57
X98.73Y-91.11
X98.73Y-93.65
X98.73Y-96.19
X98.73Y-98.73
X98.73Y-101.27
X98.73Y-103.81
X98.73Y-106.35
X98.73Y-108.89
X98.73Y-111.43
X101.27Y-86.03
X101.27Y-88.57
X101.27Y-91.11
X101.27Y-93.65
X101.27Y-96.19
X101.27Y-98.73
X101.27Y-101.27
X101.27Y-103.81
X101.27Y-106.35
X101.27Y-108.89
X101.27Y-111.43
X110.Y-93.28
X110.Y-95.82
X149.48Y-86.03
X149.48Y-88.57
X149.48Y-91.11
X149.48Y-93.65
X149.48Y-96.19
X149.48Y-98.73
X149.48Y-101.27
X149.48Y-103.81
X149.48Y-106.35
X149.48Y-108.89
X149.48Y-111.43
X152.02Y-86.03
X152.02Y-88.57
X152.02Y-91.11
X152.02Y-93.65
X152.02Y-96.19
X152.02Y-98.73
X152.02Y-101.27
X152.02Y-103.81
X152.02Y-106.35
X152.02Y-108.89
X152.02Y-111.43
T0
M30
