G04 (created by PCBNEW (2013-mar-13)-testing) date Fri 31 May 2013 15:23:34 BST*
%MOIN*%
G04 Gerber Fmt 3.4, Leading zero omitted, Abs format*
%FSLAX34Y34*%
G01*
G70*
G90*
G04 APERTURE LIST*
%ADD10C,0.005000*%
%ADD11C,0.003937*%
%ADD12C,0.007874*%
%ADD13C,0.011811*%
G04 APERTURE END LIST*
G54D10*
G54D11*
X60866Y-44655D02*
X37244Y-44655D01*
X60866Y-32844D02*
X60866Y-44655D01*
X37244Y-32844D02*
X60866Y-32844D01*
X37244Y-44655D02*
X37244Y-32844D01*
G54D12*
X41525Y-39655D02*
X41722Y-39852D01*
X41722Y-39655D02*
X41525Y-39852D01*
X41525Y-40748D02*
X41722Y-40944D01*
X41722Y-40748D02*
X41525Y-40944D01*
X41525Y-43267D02*
X41722Y-43464D01*
X41722Y-43267D02*
X41525Y-43464D01*
X41525Y-44163D02*
X41722Y-44360D01*
X41722Y-44163D02*
X41525Y-44360D01*
X42608Y-33710D02*
X42805Y-33907D01*
X42805Y-33710D02*
X42608Y-33907D01*
X42608Y-34704D02*
X42805Y-34901D01*
X42805Y-34704D02*
X42608Y-34901D01*
X47381Y-37913D02*
X47578Y-38110D01*
X47578Y-37913D02*
X47381Y-38110D01*
X49104Y-36919D02*
X49301Y-37116D01*
X49301Y-36919D02*
X49104Y-37116D01*
X49931Y-37736D02*
X50127Y-37933D01*
X50127Y-37736D02*
X49931Y-37933D01*
X49990Y-40295D02*
X50187Y-40492D01*
X50187Y-40295D02*
X49990Y-40492D01*
X51456Y-40295D02*
X51653Y-40492D01*
X51653Y-40295D02*
X51456Y-40492D01*
X45750Y-37663D02*
G75*
G03X45750Y-37663I-160J0D01*
G74*
G01*
X45750Y-40663D02*
G75*
G03X45750Y-40663I-160J0D01*
G74*
G01*
X46577Y-33812D02*
G75*
G03X46577Y-33812I-160J0D01*
G74*
G01*
X46577Y-34812D02*
G75*
G03X46577Y-34812I-160J0D01*
G74*
G01*
X46577Y-35812D02*
G75*
G03X46577Y-35812I-160J0D01*
G74*
G01*
X52425Y-34458D02*
G75*
G03X52425Y-34458I-160J0D01*
G74*
G01*
X53425Y-34458D02*
G75*
G03X53425Y-34458I-160J0D01*
G74*
G01*
X53427Y-35712D02*
G75*
G03X53427Y-35712I-160J0D01*
G74*
G01*
X53427Y-36712D02*
G75*
G03X53427Y-36712I-160J0D01*
G74*
G01*
X53427Y-37712D02*
G75*
G03X53427Y-37712I-160J0D01*
G74*
G01*
X53437Y-38970D02*
G75*
G03X53437Y-38970I-160J0D01*
G74*
G01*
X53437Y-39970D02*
G75*
G03X53437Y-39970I-160J0D01*
G74*
G01*
X53437Y-40970D02*
G75*
G03X53437Y-40970I-160J0D01*
G74*
G01*
X38870Y-33670D02*
X38870Y-34070D01*
X38670Y-33870D02*
X39070Y-33870D01*
X38870Y-34670D02*
X38870Y-35070D01*
X38670Y-34870D02*
X39070Y-34870D01*
X38870Y-35670D02*
X38870Y-36070D01*
X38670Y-35870D02*
X39070Y-35870D01*
X38870Y-36670D02*
X38870Y-37070D01*
X38670Y-36870D02*
X39070Y-36870D01*
X38870Y-37670D02*
X38870Y-38070D01*
X38670Y-37870D02*
X39070Y-37870D01*
X38870Y-38670D02*
X38870Y-39070D01*
X38670Y-38870D02*
X39070Y-38870D01*
X38870Y-39670D02*
X38870Y-40070D01*
X38670Y-39870D02*
X39070Y-39870D01*
X38870Y-40670D02*
X38870Y-41070D01*
X38670Y-40870D02*
X39070Y-40870D01*
X38870Y-41670D02*
X38870Y-42070D01*
X38670Y-41870D02*
X39070Y-41870D01*
X38870Y-42670D02*
X38870Y-43070D01*
X38670Y-42870D02*
X39070Y-42870D01*
X38870Y-43670D02*
X38870Y-44070D01*
X38670Y-43870D02*
X39070Y-43870D01*
X39870Y-33670D02*
X39870Y-34070D01*
X39670Y-33870D02*
X40070Y-33870D01*
X39870Y-34670D02*
X39870Y-35070D01*
X39670Y-34870D02*
X40070Y-34870D01*
X39870Y-35670D02*
X39870Y-36070D01*
X39670Y-35870D02*
X40070Y-35870D01*
X39870Y-36670D02*
X39870Y-37070D01*
X39670Y-36870D02*
X40070Y-36870D01*
X39870Y-37670D02*
X39870Y-38070D01*
X39670Y-37870D02*
X40070Y-37870D01*
X39870Y-38670D02*
X39870Y-39070D01*
X39670Y-38870D02*
X40070Y-38870D01*
X39870Y-39670D02*
X39870Y-40070D01*
X39670Y-39870D02*
X40070Y-39870D01*
X39870Y-40670D02*
X39870Y-41070D01*
X39670Y-40870D02*
X40070Y-40870D01*
X39870Y-41670D02*
X39870Y-42070D01*
X39670Y-41870D02*
X40070Y-41870D01*
X39870Y-42670D02*
X39870Y-43070D01*
X39670Y-42870D02*
X40070Y-42870D01*
X39870Y-43670D02*
X39870Y-44070D01*
X39670Y-43870D02*
X40070Y-43870D01*
X43307Y-36524D02*
X43307Y-36924D01*
X43107Y-36724D02*
X43507Y-36724D01*
X43307Y-37524D02*
X43307Y-37924D01*
X43107Y-37724D02*
X43507Y-37724D01*
X58850Y-33670D02*
X58850Y-34070D01*
X58650Y-33870D02*
X59050Y-33870D01*
X58850Y-34670D02*
X58850Y-35070D01*
X58650Y-34870D02*
X59050Y-34870D01*
X58850Y-35670D02*
X58850Y-36070D01*
X58650Y-35870D02*
X59050Y-35870D01*
X58850Y-36670D02*
X58850Y-37070D01*
X58650Y-36870D02*
X59050Y-36870D01*
X58850Y-37670D02*
X58850Y-38070D01*
X58650Y-37870D02*
X59050Y-37870D01*
X58850Y-38670D02*
X58850Y-39070D01*
X58650Y-38870D02*
X59050Y-38870D01*
X58850Y-39670D02*
X58850Y-40070D01*
X58650Y-39870D02*
X59050Y-39870D01*
X58850Y-40670D02*
X58850Y-41070D01*
X58650Y-40870D02*
X59050Y-40870D01*
X58850Y-41670D02*
X58850Y-42070D01*
X58650Y-41870D02*
X59050Y-41870D01*
X58850Y-42670D02*
X58850Y-43070D01*
X58650Y-42870D02*
X59050Y-42870D01*
X58850Y-43670D02*
X58850Y-44070D01*
X58650Y-43870D02*
X59050Y-43870D01*
X59850Y-33670D02*
X59850Y-34070D01*
X59650Y-33870D02*
X60050Y-33870D01*
X59850Y-34670D02*
X59850Y-35070D01*
X59650Y-34870D02*
X60050Y-34870D01*
X59850Y-35670D02*
X59850Y-36070D01*
X59650Y-35870D02*
X60050Y-35870D01*
X59850Y-36670D02*
X59850Y-37070D01*
X59650Y-36870D02*
X60050Y-36870D01*
X59850Y-37670D02*
X59850Y-38070D01*
X59650Y-37870D02*
X60050Y-37870D01*
X59850Y-38670D02*
X59850Y-39070D01*
X59650Y-38870D02*
X60050Y-38870D01*
X59850Y-39670D02*
X59850Y-40070D01*
X59650Y-39870D02*
X60050Y-39870D01*
X59850Y-40670D02*
X59850Y-41070D01*
X59650Y-40870D02*
X60050Y-40870D01*
X59850Y-41670D02*
X59850Y-42070D01*
X59650Y-41870D02*
X60050Y-41870D01*
X59850Y-42670D02*
X59850Y-43070D01*
X59650Y-42870D02*
X60050Y-42870D01*
X59850Y-43670D02*
X59850Y-44070D01*
X59650Y-43870D02*
X60050Y-43870D01*
G54D13*
X38293Y-46508D02*
X38293Y-45327D01*
X38574Y-45327D01*
X38742Y-45383D01*
X38855Y-45496D01*
X38911Y-45608D01*
X38967Y-45833D01*
X38967Y-46002D01*
X38911Y-46227D01*
X38855Y-46339D01*
X38742Y-46452D01*
X38574Y-46508D01*
X38293Y-46508D01*
X39474Y-46508D02*
X39474Y-45721D01*
X39474Y-45946D02*
X39530Y-45833D01*
X39586Y-45777D01*
X39699Y-45721D01*
X39811Y-45721D01*
X40205Y-46508D02*
X40205Y-45721D01*
X40205Y-45327D02*
X40149Y-45383D01*
X40205Y-45440D01*
X40261Y-45383D01*
X40205Y-45327D01*
X40205Y-45440D01*
X40936Y-46508D02*
X40823Y-46452D01*
X40767Y-46339D01*
X40767Y-45327D01*
X41555Y-46508D02*
X41442Y-46452D01*
X41386Y-46339D01*
X41386Y-45327D01*
X42904Y-46508D02*
X42904Y-45327D01*
X43298Y-46171D01*
X43692Y-45327D01*
X43692Y-46508D01*
X44760Y-46508D02*
X44760Y-45890D01*
X44704Y-45777D01*
X44592Y-45721D01*
X44367Y-45721D01*
X44254Y-45777D01*
X44760Y-46452D02*
X44648Y-46508D01*
X44367Y-46508D01*
X44254Y-46452D01*
X44198Y-46339D01*
X44198Y-46227D01*
X44254Y-46115D01*
X44367Y-46058D01*
X44648Y-46058D01*
X44760Y-46002D01*
X45323Y-45721D02*
X45323Y-46902D01*
X45323Y-45777D02*
X45435Y-45721D01*
X45660Y-45721D01*
X45773Y-45777D01*
X45829Y-45833D01*
X45885Y-45946D01*
X45885Y-46283D01*
X45829Y-46396D01*
X45773Y-46452D01*
X45660Y-46508D01*
X45435Y-46508D01*
X45323Y-46452D01*
X46392Y-46396D02*
X46448Y-46452D01*
X46392Y-46508D01*
X46335Y-46452D01*
X46392Y-46396D01*
X46392Y-46508D01*
X46392Y-45777D02*
X46448Y-45833D01*
X46392Y-45890D01*
X46335Y-45833D01*
X46392Y-45777D01*
X46392Y-45890D01*
X37027Y-48356D02*
X37224Y-48553D01*
X37224Y-48356D02*
X37027Y-48553D01*
X38517Y-47807D02*
X38630Y-47807D01*
X38742Y-47864D01*
X38799Y-47920D01*
X38855Y-48032D01*
X38911Y-48257D01*
X38911Y-48539D01*
X38855Y-48764D01*
X38799Y-48876D01*
X38742Y-48932D01*
X38630Y-48989D01*
X38517Y-48989D01*
X38405Y-48932D01*
X38349Y-48876D01*
X38293Y-48764D01*
X38236Y-48539D01*
X38236Y-48257D01*
X38293Y-48032D01*
X38349Y-47920D01*
X38405Y-47864D01*
X38517Y-47807D01*
X39417Y-48876D02*
X39474Y-48932D01*
X39417Y-48989D01*
X39361Y-48932D01*
X39417Y-48876D01*
X39417Y-48989D01*
X40542Y-47807D02*
X39980Y-47807D01*
X39924Y-48370D01*
X39980Y-48314D01*
X40092Y-48257D01*
X40374Y-48257D01*
X40486Y-48314D01*
X40542Y-48370D01*
X40598Y-48482D01*
X40598Y-48764D01*
X40542Y-48876D01*
X40486Y-48932D01*
X40374Y-48989D01*
X40092Y-48989D01*
X39980Y-48932D01*
X39924Y-48876D01*
X41330Y-47807D02*
X41442Y-47807D01*
X41555Y-47864D01*
X41611Y-47920D01*
X41667Y-48032D01*
X41723Y-48257D01*
X41723Y-48539D01*
X41667Y-48764D01*
X41611Y-48876D01*
X41555Y-48932D01*
X41442Y-48989D01*
X41330Y-48989D01*
X41217Y-48932D01*
X41161Y-48876D01*
X41105Y-48764D01*
X41048Y-48539D01*
X41048Y-48257D01*
X41105Y-48032D01*
X41161Y-47920D01*
X41217Y-47864D01*
X41330Y-47807D01*
X42230Y-48989D02*
X42230Y-48201D01*
X42230Y-48314D02*
X42286Y-48257D01*
X42398Y-48201D01*
X42567Y-48201D01*
X42679Y-48257D01*
X42736Y-48370D01*
X42736Y-48989D01*
X42736Y-48370D02*
X42792Y-48257D01*
X42904Y-48201D01*
X43073Y-48201D01*
X43186Y-48257D01*
X43242Y-48370D01*
X43242Y-48989D01*
X43804Y-48989D02*
X43804Y-48201D01*
X43804Y-48314D02*
X43861Y-48257D01*
X43973Y-48201D01*
X44142Y-48201D01*
X44254Y-48257D01*
X44311Y-48370D01*
X44311Y-48989D01*
X44311Y-48370D02*
X44367Y-48257D01*
X44479Y-48201D01*
X44648Y-48201D01*
X44760Y-48257D01*
X44817Y-48370D01*
X44817Y-48989D01*
X47123Y-47751D02*
X46110Y-49270D01*
X48641Y-47807D02*
X48754Y-47807D01*
X48866Y-47864D01*
X48922Y-47920D01*
X48979Y-48032D01*
X49035Y-48257D01*
X49035Y-48539D01*
X48979Y-48764D01*
X48922Y-48876D01*
X48866Y-48932D01*
X48754Y-48989D01*
X48641Y-48989D01*
X48529Y-48932D01*
X48473Y-48876D01*
X48416Y-48764D01*
X48360Y-48539D01*
X48360Y-48257D01*
X48416Y-48032D01*
X48473Y-47920D01*
X48529Y-47864D01*
X48641Y-47807D01*
X49541Y-48876D02*
X49597Y-48932D01*
X49541Y-48989D01*
X49485Y-48932D01*
X49541Y-48876D01*
X49541Y-48989D01*
X50329Y-47807D02*
X50441Y-47807D01*
X50553Y-47864D01*
X50610Y-47920D01*
X50666Y-48032D01*
X50722Y-48257D01*
X50722Y-48539D01*
X50666Y-48764D01*
X50610Y-48876D01*
X50553Y-48932D01*
X50441Y-48989D01*
X50329Y-48989D01*
X50216Y-48932D01*
X50160Y-48876D01*
X50104Y-48764D01*
X50047Y-48539D01*
X50047Y-48257D01*
X50104Y-48032D01*
X50160Y-47920D01*
X50216Y-47864D01*
X50329Y-47807D01*
X51172Y-47920D02*
X51228Y-47864D01*
X51341Y-47807D01*
X51622Y-47807D01*
X51735Y-47864D01*
X51791Y-47920D01*
X51847Y-48032D01*
X51847Y-48145D01*
X51791Y-48314D01*
X51116Y-48989D01*
X51847Y-48989D01*
X52578Y-47807D02*
X52691Y-47807D01*
X52803Y-47864D01*
X52859Y-47920D01*
X52916Y-48032D01*
X52972Y-48257D01*
X52972Y-48539D01*
X52916Y-48764D01*
X52859Y-48876D01*
X52803Y-48932D01*
X52691Y-48989D01*
X52578Y-48989D01*
X52466Y-48932D01*
X52410Y-48876D01*
X52353Y-48764D01*
X52297Y-48539D01*
X52297Y-48257D01*
X52353Y-48032D01*
X52410Y-47920D01*
X52466Y-47864D01*
X52578Y-47807D01*
X53422Y-47807D02*
X53422Y-48032D01*
X53872Y-47807D02*
X53872Y-48032D01*
X55615Y-49438D02*
X55559Y-49382D01*
X55447Y-49214D01*
X55390Y-49101D01*
X55334Y-48932D01*
X55278Y-48651D01*
X55278Y-48426D01*
X55334Y-48145D01*
X55390Y-47976D01*
X55447Y-47864D01*
X55559Y-47695D01*
X55615Y-47639D01*
X56684Y-48989D02*
X56009Y-48989D01*
X56347Y-48989D02*
X56347Y-47807D01*
X56234Y-47976D01*
X56122Y-48089D01*
X56009Y-48145D01*
X57809Y-48989D02*
X57134Y-48989D01*
X57471Y-48989D02*
X57471Y-47807D01*
X57359Y-47976D01*
X57246Y-48089D01*
X57134Y-48145D01*
X59215Y-48989D02*
X59215Y-47807D01*
X59721Y-48989D02*
X59721Y-48370D01*
X59665Y-48257D01*
X59552Y-48201D01*
X59384Y-48201D01*
X59271Y-48257D01*
X59215Y-48314D01*
X60452Y-48989D02*
X60340Y-48932D01*
X60284Y-48876D01*
X60227Y-48764D01*
X60227Y-48426D01*
X60284Y-48314D01*
X60340Y-48257D01*
X60452Y-48201D01*
X60621Y-48201D01*
X60733Y-48257D01*
X60790Y-48314D01*
X60846Y-48426D01*
X60846Y-48764D01*
X60790Y-48876D01*
X60733Y-48932D01*
X60621Y-48989D01*
X60452Y-48989D01*
X61521Y-48989D02*
X61408Y-48932D01*
X61352Y-48820D01*
X61352Y-47807D01*
X62421Y-48932D02*
X62308Y-48989D01*
X62083Y-48989D01*
X61971Y-48932D01*
X61915Y-48820D01*
X61915Y-48370D01*
X61971Y-48257D01*
X62083Y-48201D01*
X62308Y-48201D01*
X62421Y-48257D01*
X62477Y-48370D01*
X62477Y-48482D01*
X61915Y-48595D01*
X62927Y-48932D02*
X63039Y-48989D01*
X63264Y-48989D01*
X63377Y-48932D01*
X63433Y-48820D01*
X63433Y-48764D01*
X63377Y-48651D01*
X63264Y-48595D01*
X63096Y-48595D01*
X62983Y-48539D01*
X62927Y-48426D01*
X62927Y-48370D01*
X62983Y-48257D01*
X63096Y-48201D01*
X63264Y-48201D01*
X63377Y-48257D01*
X63827Y-49438D02*
X63883Y-49382D01*
X63996Y-49214D01*
X64052Y-49101D01*
X64108Y-48932D01*
X64164Y-48651D01*
X64164Y-48426D01*
X64108Y-48145D01*
X64052Y-47976D01*
X63996Y-47864D01*
X63883Y-47695D01*
X63827Y-47639D01*
G54D12*
X37224Y-50013D02*
G75*
G03X37224Y-50013I-160J0D01*
G74*
G01*
G54D13*
X38517Y-49366D02*
X38630Y-49366D01*
X38742Y-49423D01*
X38799Y-49479D01*
X38855Y-49591D01*
X38911Y-49816D01*
X38911Y-50098D01*
X38855Y-50323D01*
X38799Y-50435D01*
X38742Y-50491D01*
X38630Y-50548D01*
X38517Y-50548D01*
X38405Y-50491D01*
X38349Y-50435D01*
X38293Y-50323D01*
X38236Y-50098D01*
X38236Y-49816D01*
X38293Y-49591D01*
X38349Y-49479D01*
X38405Y-49423D01*
X38517Y-49366D01*
X39417Y-50435D02*
X39474Y-50491D01*
X39417Y-50548D01*
X39361Y-50491D01*
X39417Y-50435D01*
X39417Y-50548D01*
X40149Y-49873D02*
X40036Y-49816D01*
X39980Y-49760D01*
X39924Y-49648D01*
X39924Y-49591D01*
X39980Y-49479D01*
X40036Y-49423D01*
X40149Y-49366D01*
X40374Y-49366D01*
X40486Y-49423D01*
X40542Y-49479D01*
X40598Y-49591D01*
X40598Y-49648D01*
X40542Y-49760D01*
X40486Y-49816D01*
X40374Y-49873D01*
X40149Y-49873D01*
X40036Y-49929D01*
X39980Y-49985D01*
X39924Y-50098D01*
X39924Y-50323D01*
X39980Y-50435D01*
X40036Y-50491D01*
X40149Y-50548D01*
X40374Y-50548D01*
X40486Y-50491D01*
X40542Y-50435D01*
X40598Y-50323D01*
X40598Y-50098D01*
X40542Y-49985D01*
X40486Y-49929D01*
X40374Y-49873D01*
X41723Y-50548D02*
X41048Y-50548D01*
X41386Y-50548D02*
X41386Y-49366D01*
X41273Y-49535D01*
X41161Y-49648D01*
X41048Y-49704D01*
X42230Y-50548D02*
X42230Y-49760D01*
X42230Y-49873D02*
X42286Y-49816D01*
X42398Y-49760D01*
X42567Y-49760D01*
X42679Y-49816D01*
X42736Y-49929D01*
X42736Y-50548D01*
X42736Y-49929D02*
X42792Y-49816D01*
X42904Y-49760D01*
X43073Y-49760D01*
X43186Y-49816D01*
X43242Y-49929D01*
X43242Y-50548D01*
X43804Y-50548D02*
X43804Y-49760D01*
X43804Y-49873D02*
X43861Y-49816D01*
X43973Y-49760D01*
X44142Y-49760D01*
X44254Y-49816D01*
X44311Y-49929D01*
X44311Y-50548D01*
X44311Y-49929D02*
X44367Y-49816D01*
X44479Y-49760D01*
X44648Y-49760D01*
X44760Y-49816D01*
X44817Y-49929D01*
X44817Y-50548D01*
X47123Y-49310D02*
X46110Y-50829D01*
X48641Y-49366D02*
X48754Y-49366D01*
X48866Y-49423D01*
X48922Y-49479D01*
X48979Y-49591D01*
X49035Y-49816D01*
X49035Y-50098D01*
X48979Y-50323D01*
X48922Y-50435D01*
X48866Y-50491D01*
X48754Y-50548D01*
X48641Y-50548D01*
X48529Y-50491D01*
X48473Y-50435D01*
X48416Y-50323D01*
X48360Y-50098D01*
X48360Y-49816D01*
X48416Y-49591D01*
X48473Y-49479D01*
X48529Y-49423D01*
X48641Y-49366D01*
X49541Y-50435D02*
X49597Y-50491D01*
X49541Y-50548D01*
X49485Y-50491D01*
X49541Y-50435D01*
X49541Y-50548D01*
X50329Y-49366D02*
X50441Y-49366D01*
X50553Y-49423D01*
X50610Y-49479D01*
X50666Y-49591D01*
X50722Y-49816D01*
X50722Y-50098D01*
X50666Y-50323D01*
X50610Y-50435D01*
X50553Y-50491D01*
X50441Y-50548D01*
X50329Y-50548D01*
X50216Y-50491D01*
X50160Y-50435D01*
X50104Y-50323D01*
X50047Y-50098D01*
X50047Y-49816D01*
X50104Y-49591D01*
X50160Y-49479D01*
X50216Y-49423D01*
X50329Y-49366D01*
X51116Y-49366D02*
X51847Y-49366D01*
X51453Y-49816D01*
X51622Y-49816D01*
X51735Y-49873D01*
X51791Y-49929D01*
X51847Y-50041D01*
X51847Y-50323D01*
X51791Y-50435D01*
X51735Y-50491D01*
X51622Y-50548D01*
X51285Y-50548D01*
X51172Y-50491D01*
X51116Y-50435D01*
X52297Y-49479D02*
X52353Y-49423D01*
X52466Y-49366D01*
X52747Y-49366D01*
X52859Y-49423D01*
X52916Y-49479D01*
X52972Y-49591D01*
X52972Y-49704D01*
X52916Y-49873D01*
X52241Y-50548D01*
X52972Y-50548D01*
X53422Y-49366D02*
X53422Y-49591D01*
X53872Y-49366D02*
X53872Y-49591D01*
X55615Y-50998D02*
X55559Y-50941D01*
X55447Y-50773D01*
X55390Y-50660D01*
X55334Y-50491D01*
X55278Y-50210D01*
X55278Y-49985D01*
X55334Y-49704D01*
X55390Y-49535D01*
X55447Y-49423D01*
X55559Y-49254D01*
X55615Y-49198D01*
X56684Y-50548D02*
X56009Y-50548D01*
X56347Y-50548D02*
X56347Y-49366D01*
X56234Y-49535D01*
X56122Y-49648D01*
X56009Y-49704D01*
X57078Y-49366D02*
X57809Y-49366D01*
X57415Y-49816D01*
X57584Y-49816D01*
X57696Y-49873D01*
X57753Y-49929D01*
X57809Y-50041D01*
X57809Y-50323D01*
X57753Y-50435D01*
X57696Y-50491D01*
X57584Y-50548D01*
X57246Y-50548D01*
X57134Y-50491D01*
X57078Y-50435D01*
X59215Y-50548D02*
X59215Y-49366D01*
X59721Y-50548D02*
X59721Y-49929D01*
X59665Y-49816D01*
X59552Y-49760D01*
X59384Y-49760D01*
X59271Y-49816D01*
X59215Y-49873D01*
X60452Y-50548D02*
X60340Y-50491D01*
X60284Y-50435D01*
X60227Y-50323D01*
X60227Y-49985D01*
X60284Y-49873D01*
X60340Y-49816D01*
X60452Y-49760D01*
X60621Y-49760D01*
X60733Y-49816D01*
X60790Y-49873D01*
X60846Y-49985D01*
X60846Y-50323D01*
X60790Y-50435D01*
X60733Y-50491D01*
X60621Y-50548D01*
X60452Y-50548D01*
X61521Y-50548D02*
X61408Y-50491D01*
X61352Y-50379D01*
X61352Y-49366D01*
X62421Y-50491D02*
X62308Y-50548D01*
X62083Y-50548D01*
X61971Y-50491D01*
X61915Y-50379D01*
X61915Y-49929D01*
X61971Y-49816D01*
X62083Y-49760D01*
X62308Y-49760D01*
X62421Y-49816D01*
X62477Y-49929D01*
X62477Y-50041D01*
X61915Y-50154D01*
X62927Y-50491D02*
X63039Y-50548D01*
X63264Y-50548D01*
X63377Y-50491D01*
X63433Y-50379D01*
X63433Y-50323D01*
X63377Y-50210D01*
X63264Y-50154D01*
X63096Y-50154D01*
X62983Y-50098D01*
X62927Y-49985D01*
X62927Y-49929D01*
X62983Y-49816D01*
X63096Y-49760D01*
X63264Y-49760D01*
X63377Y-49816D01*
X63827Y-50998D02*
X63883Y-50941D01*
X63996Y-50773D01*
X64052Y-50660D01*
X64108Y-50491D01*
X64164Y-50210D01*
X64164Y-49985D01*
X64108Y-49704D01*
X64052Y-49535D01*
X63996Y-49423D01*
X63883Y-49254D01*
X63827Y-49198D01*
X37024Y-51372D02*
X37024Y-51772D01*
X36824Y-51572D02*
X37224Y-51572D01*
X38911Y-52107D02*
X38236Y-52107D01*
X38574Y-52107D02*
X38574Y-50926D01*
X38461Y-51094D01*
X38349Y-51207D01*
X38236Y-51263D01*
X39417Y-51994D02*
X39474Y-52050D01*
X39417Y-52107D01*
X39361Y-52050D01*
X39417Y-51994D01*
X39417Y-52107D01*
X40205Y-50926D02*
X40317Y-50926D01*
X40430Y-50982D01*
X40486Y-51038D01*
X40542Y-51151D01*
X40598Y-51375D01*
X40598Y-51657D01*
X40542Y-51882D01*
X40486Y-51994D01*
X40430Y-52050D01*
X40317Y-52107D01*
X40205Y-52107D01*
X40092Y-52050D01*
X40036Y-51994D01*
X39980Y-51882D01*
X39924Y-51657D01*
X39924Y-51375D01*
X39980Y-51151D01*
X40036Y-51038D01*
X40092Y-50982D01*
X40205Y-50926D01*
X41048Y-51038D02*
X41105Y-50982D01*
X41217Y-50926D01*
X41498Y-50926D01*
X41611Y-50982D01*
X41667Y-51038D01*
X41723Y-51151D01*
X41723Y-51263D01*
X41667Y-51432D01*
X40992Y-52107D01*
X41723Y-52107D01*
X42230Y-52107D02*
X42230Y-51319D01*
X42230Y-51432D02*
X42286Y-51375D01*
X42398Y-51319D01*
X42567Y-51319D01*
X42679Y-51375D01*
X42736Y-51488D01*
X42736Y-52107D01*
X42736Y-51488D02*
X42792Y-51375D01*
X42904Y-51319D01*
X43073Y-51319D01*
X43186Y-51375D01*
X43242Y-51488D01*
X43242Y-52107D01*
X43804Y-52107D02*
X43804Y-51319D01*
X43804Y-51432D02*
X43861Y-51375D01*
X43973Y-51319D01*
X44142Y-51319D01*
X44254Y-51375D01*
X44311Y-51488D01*
X44311Y-52107D01*
X44311Y-51488D02*
X44367Y-51375D01*
X44479Y-51319D01*
X44648Y-51319D01*
X44760Y-51375D01*
X44817Y-51488D01*
X44817Y-52107D01*
X47123Y-50869D02*
X46110Y-52388D01*
X48641Y-50926D02*
X48754Y-50926D01*
X48866Y-50982D01*
X48922Y-51038D01*
X48979Y-51151D01*
X49035Y-51375D01*
X49035Y-51657D01*
X48979Y-51882D01*
X48922Y-51994D01*
X48866Y-52050D01*
X48754Y-52107D01*
X48641Y-52107D01*
X48529Y-52050D01*
X48473Y-51994D01*
X48416Y-51882D01*
X48360Y-51657D01*
X48360Y-51375D01*
X48416Y-51151D01*
X48473Y-51038D01*
X48529Y-50982D01*
X48641Y-50926D01*
X49541Y-51994D02*
X49597Y-52050D01*
X49541Y-52107D01*
X49485Y-52050D01*
X49541Y-51994D01*
X49541Y-52107D01*
X50329Y-50926D02*
X50441Y-50926D01*
X50553Y-50982D01*
X50610Y-51038D01*
X50666Y-51151D01*
X50722Y-51375D01*
X50722Y-51657D01*
X50666Y-51882D01*
X50610Y-51994D01*
X50553Y-52050D01*
X50441Y-52107D01*
X50329Y-52107D01*
X50216Y-52050D01*
X50160Y-51994D01*
X50104Y-51882D01*
X50047Y-51657D01*
X50047Y-51375D01*
X50104Y-51151D01*
X50160Y-51038D01*
X50216Y-50982D01*
X50329Y-50926D01*
X51735Y-51319D02*
X51735Y-52107D01*
X51453Y-50869D02*
X51172Y-51713D01*
X51903Y-51713D01*
X52578Y-50926D02*
X52691Y-50926D01*
X52803Y-50982D01*
X52859Y-51038D01*
X52916Y-51151D01*
X52972Y-51375D01*
X52972Y-51657D01*
X52916Y-51882D01*
X52859Y-51994D01*
X52803Y-52050D01*
X52691Y-52107D01*
X52578Y-52107D01*
X52466Y-52050D01*
X52410Y-51994D01*
X52353Y-51882D01*
X52297Y-51657D01*
X52297Y-51375D01*
X52353Y-51151D01*
X52410Y-51038D01*
X52466Y-50982D01*
X52578Y-50926D01*
X53422Y-50926D02*
X53422Y-51151D01*
X53872Y-50926D02*
X53872Y-51151D01*
X55615Y-52557D02*
X55559Y-52500D01*
X55447Y-52332D01*
X55390Y-52219D01*
X55334Y-52050D01*
X55278Y-51769D01*
X55278Y-51544D01*
X55334Y-51263D01*
X55390Y-51094D01*
X55447Y-50982D01*
X55559Y-50813D01*
X55615Y-50757D01*
X56571Y-51319D02*
X56571Y-52107D01*
X56290Y-50869D02*
X56009Y-51713D01*
X56740Y-51713D01*
X57696Y-50926D02*
X57471Y-50926D01*
X57359Y-50982D01*
X57303Y-51038D01*
X57190Y-51207D01*
X57134Y-51432D01*
X57134Y-51882D01*
X57190Y-51994D01*
X57246Y-52050D01*
X57359Y-52107D01*
X57584Y-52107D01*
X57696Y-52050D01*
X57753Y-51994D01*
X57809Y-51882D01*
X57809Y-51600D01*
X57753Y-51488D01*
X57696Y-51432D01*
X57584Y-51375D01*
X57359Y-51375D01*
X57246Y-51432D01*
X57190Y-51488D01*
X57134Y-51600D01*
X59215Y-52107D02*
X59215Y-50926D01*
X59721Y-52107D02*
X59721Y-51488D01*
X59665Y-51375D01*
X59552Y-51319D01*
X59384Y-51319D01*
X59271Y-51375D01*
X59215Y-51432D01*
X60452Y-52107D02*
X60340Y-52050D01*
X60284Y-51994D01*
X60227Y-51882D01*
X60227Y-51544D01*
X60284Y-51432D01*
X60340Y-51375D01*
X60452Y-51319D01*
X60621Y-51319D01*
X60733Y-51375D01*
X60790Y-51432D01*
X60846Y-51544D01*
X60846Y-51882D01*
X60790Y-51994D01*
X60733Y-52050D01*
X60621Y-52107D01*
X60452Y-52107D01*
X61521Y-52107D02*
X61408Y-52050D01*
X61352Y-51938D01*
X61352Y-50926D01*
X62421Y-52050D02*
X62308Y-52107D01*
X62083Y-52107D01*
X61971Y-52050D01*
X61915Y-51938D01*
X61915Y-51488D01*
X61971Y-51375D01*
X62083Y-51319D01*
X62308Y-51319D01*
X62421Y-51375D01*
X62477Y-51488D01*
X62477Y-51600D01*
X61915Y-51713D01*
X62927Y-52050D02*
X63039Y-52107D01*
X63264Y-52107D01*
X63377Y-52050D01*
X63433Y-51938D01*
X63433Y-51882D01*
X63377Y-51769D01*
X63264Y-51713D01*
X63096Y-51713D01*
X62983Y-51657D01*
X62927Y-51544D01*
X62927Y-51488D01*
X62983Y-51375D01*
X63096Y-51319D01*
X63264Y-51319D01*
X63377Y-51375D01*
X63827Y-52557D02*
X63883Y-52500D01*
X63996Y-52332D01*
X64052Y-52219D01*
X64108Y-52050D01*
X64164Y-51769D01*
X64164Y-51544D01*
X64108Y-51263D01*
X64052Y-51094D01*
X63996Y-50982D01*
X63883Y-50813D01*
X63827Y-50757D01*
M02*
