G04 (created by PCBNEW (2013-07-07 BZR 4022)-stable) date 06/11/2013 18:13:28*
%MOIN*%
G04 Gerber Fmt 3.4, Leading zero omitted, Abs format*
%FSLAX34Y34*%
G01*
G70*
G90*
G04 APERTURE LIST*
%ADD10C,0.005*%
%ADD11C,0.00393701*%
%ADD12C,0.00787402*%
%ADD13C,0.011811*%
G04 APERTURE END LIST*
G54D10*
G54D11*
X60866Y-44655D02*
X37244Y-44655D01*
X60866Y-32844D02*
X60866Y-44655D01*
X37244Y-32844D02*
X60866Y-32844D01*
X37244Y-44655D02*
X37244Y-32844D01*
G54D12*
X47736Y-36673D02*
X47854Y-36791D01*
X47854Y-36673D02*
X47736Y-36791D01*
X41269Y-37194D02*
G75*
G03X41269Y-37194I-78J0D01*
G74*
G01*
X42283Y-39921D02*
G75*
G03X42283Y-39921I-78J0D01*
G74*
G01*
X42814Y-42480D02*
G75*
G03X42814Y-42480I-78J0D01*
G74*
G01*
X46328Y-42165D02*
G75*
G03X46328Y-42165I-78J0D01*
G74*
G01*
X46566Y-38421D02*
G75*
G03X46566Y-38421I-78J0D01*
G74*
G01*
X46917Y-38114D02*
G75*
G03X46917Y-38114I-78J0D01*
G74*
G01*
X47677Y-35653D02*
G75*
G03X47677Y-35653I-78J0D01*
G74*
G01*
X47885Y-39574D02*
G75*
G03X47885Y-39574I-78J0D01*
G74*
G01*
X48090Y-40964D02*
G75*
G03X48090Y-40964I-78J0D01*
G74*
G01*
X48444Y-42568D02*
G75*
G03X48444Y-42568I-78J0D01*
G74*
G01*
X48946Y-36033D02*
G75*
G03X48946Y-36033I-78J0D01*
G74*
G01*
X49035Y-44094D02*
G75*
G03X49035Y-44094I-78J0D01*
G74*
G01*
X49812Y-40492D02*
G75*
G03X49812Y-40492I-78J0D01*
G74*
G01*
X50314Y-41574D02*
G75*
G03X50314Y-41574I-78J0D01*
G74*
G01*
X50374Y-43513D02*
G75*
G03X50374Y-43513I-78J0D01*
G74*
G01*
X50383Y-42893D02*
G75*
G03X50383Y-42893I-78J0D01*
G74*
G01*
X50393Y-38169D02*
G75*
G03X50393Y-38169I-78J0D01*
G74*
G01*
X50976Y-35653D02*
G75*
G03X50976Y-35653I-78J0D01*
G74*
G01*
X56791Y-42509D02*
G75*
G03X56791Y-42509I-78J0D01*
G74*
G01*
X57362Y-40167D02*
G75*
G03X57362Y-40167I-78J0D01*
G74*
G01*
X41496Y-38851D02*
X41496Y-39171D01*
X41336Y-39011D02*
X41656Y-39011D01*
X41496Y-41851D02*
X41496Y-42171D01*
X41336Y-42011D02*
X41656Y-42011D01*
X43307Y-36564D02*
X43307Y-36884D01*
X43147Y-36724D02*
X43467Y-36724D01*
X43307Y-37564D02*
X43307Y-37884D01*
X43147Y-37724D02*
X43467Y-37724D01*
X57696Y-35131D02*
X57696Y-35451D01*
X57536Y-35291D02*
X57856Y-35291D01*
X57696Y-38131D02*
X57696Y-38451D01*
X57536Y-38291D02*
X57856Y-38291D01*
X57716Y-39048D02*
X57716Y-39368D01*
X57556Y-39208D02*
X57876Y-39208D01*
X57716Y-42048D02*
X57716Y-42368D01*
X57556Y-42208D02*
X57876Y-42208D01*
X39011Y-34011D02*
X39011Y-33728D01*
X38728Y-33728D01*
X38728Y-34011D01*
X39011Y-34011D01*
X39011Y-35011D02*
X39011Y-34728D01*
X38728Y-34728D01*
X38728Y-35011D01*
X39011Y-35011D01*
X39011Y-36011D02*
X39011Y-35728D01*
X38728Y-35728D01*
X38728Y-36011D01*
X39011Y-36011D01*
X39011Y-37011D02*
X39011Y-36728D01*
X38728Y-36728D01*
X38728Y-37011D01*
X39011Y-37011D01*
X39011Y-38011D02*
X39011Y-37728D01*
X38728Y-37728D01*
X38728Y-38011D01*
X39011Y-38011D01*
X39011Y-39011D02*
X39011Y-38728D01*
X38728Y-38728D01*
X38728Y-39011D01*
X39011Y-39011D01*
X39011Y-40011D02*
X39011Y-39728D01*
X38728Y-39728D01*
X38728Y-40011D01*
X39011Y-40011D01*
X39011Y-41011D02*
X39011Y-40728D01*
X38728Y-40728D01*
X38728Y-41011D01*
X39011Y-41011D01*
X39011Y-42011D02*
X39011Y-41728D01*
X38728Y-41728D01*
X38728Y-42011D01*
X39011Y-42011D01*
X39011Y-43011D02*
X39011Y-42728D01*
X38728Y-42728D01*
X38728Y-43011D01*
X39011Y-43011D01*
X39011Y-44011D02*
X39011Y-43728D01*
X38728Y-43728D01*
X38728Y-44011D01*
X39011Y-44011D01*
X40011Y-34011D02*
X40011Y-33728D01*
X39728Y-33728D01*
X39728Y-34011D01*
X40011Y-34011D01*
X40011Y-35011D02*
X40011Y-34728D01*
X39728Y-34728D01*
X39728Y-35011D01*
X40011Y-35011D01*
X40011Y-36011D02*
X40011Y-35728D01*
X39728Y-35728D01*
X39728Y-36011D01*
X40011Y-36011D01*
X40011Y-37011D02*
X40011Y-36728D01*
X39728Y-36728D01*
X39728Y-37011D01*
X40011Y-37011D01*
X40011Y-38011D02*
X40011Y-37728D01*
X39728Y-37728D01*
X39728Y-38011D01*
X40011Y-38011D01*
X40011Y-39011D02*
X40011Y-38728D01*
X39728Y-38728D01*
X39728Y-39011D01*
X40011Y-39011D01*
X40011Y-40011D02*
X40011Y-39728D01*
X39728Y-39728D01*
X39728Y-40011D01*
X40011Y-40011D01*
X40011Y-41011D02*
X40011Y-40728D01*
X39728Y-40728D01*
X39728Y-41011D01*
X40011Y-41011D01*
X40011Y-42011D02*
X40011Y-41728D01*
X39728Y-41728D01*
X39728Y-42011D01*
X40011Y-42011D01*
X40011Y-43011D02*
X40011Y-42728D01*
X39728Y-42728D01*
X39728Y-43011D01*
X40011Y-43011D01*
X40011Y-44011D02*
X40011Y-43728D01*
X39728Y-43728D01*
X39728Y-44011D01*
X40011Y-44011D01*
X42787Y-40822D02*
X42787Y-40539D01*
X42504Y-40539D01*
X42504Y-40822D01*
X42787Y-40822D01*
X42787Y-41822D02*
X42787Y-41539D01*
X42504Y-41539D01*
X42504Y-41822D01*
X42787Y-41822D01*
X42852Y-43911D02*
X42852Y-43628D01*
X42569Y-43628D01*
X42569Y-43911D01*
X42852Y-43911D01*
X43787Y-40822D02*
X43787Y-40539D01*
X43504Y-40539D01*
X43504Y-40822D01*
X43787Y-40822D01*
X43787Y-41822D02*
X43787Y-41539D01*
X43504Y-41539D01*
X43504Y-41822D01*
X43787Y-41822D01*
X43852Y-43950D02*
X43852Y-43667D01*
X43569Y-43667D01*
X43569Y-43950D01*
X43852Y-43950D01*
X44787Y-40822D02*
X44787Y-40539D01*
X44504Y-40539D01*
X44504Y-40822D01*
X44787Y-40822D01*
X44787Y-41822D02*
X44787Y-41539D01*
X44504Y-41539D01*
X44504Y-41822D01*
X44787Y-41822D01*
X44852Y-43911D02*
X44852Y-43628D01*
X44569Y-43628D01*
X44569Y-43911D01*
X44852Y-43911D01*
X45787Y-40822D02*
X45787Y-40539D01*
X45504Y-40539D01*
X45504Y-40822D01*
X45787Y-40822D01*
X45787Y-41822D02*
X45787Y-41539D01*
X45504Y-41539D01*
X45504Y-41822D01*
X45787Y-41822D01*
X45948Y-42909D02*
X45948Y-42626D01*
X45665Y-42626D01*
X45665Y-42909D01*
X45948Y-42909D01*
X45948Y-43909D02*
X45948Y-43626D01*
X45665Y-43626D01*
X45665Y-43909D01*
X45948Y-43909D01*
X46787Y-40822D02*
X46787Y-40539D01*
X46504Y-40539D01*
X46504Y-40822D01*
X46787Y-40822D01*
X46787Y-41822D02*
X46787Y-41539D01*
X46504Y-41539D01*
X46504Y-41822D01*
X46787Y-41822D01*
X52708Y-35724D02*
X52708Y-35441D01*
X52425Y-35441D01*
X52425Y-35724D01*
X52708Y-35724D01*
X52708Y-36724D02*
X52708Y-36441D01*
X52425Y-36441D01*
X52425Y-36724D01*
X52708Y-36724D01*
X52708Y-40842D02*
X52708Y-40559D01*
X52425Y-40559D01*
X52425Y-40842D01*
X52708Y-40842D01*
X52708Y-41842D02*
X52708Y-41559D01*
X52425Y-41559D01*
X52425Y-41842D01*
X52708Y-41842D01*
X53694Y-33598D02*
X53694Y-33315D01*
X53411Y-33315D01*
X53411Y-33598D01*
X53694Y-33598D01*
X53694Y-34598D02*
X53694Y-34315D01*
X53411Y-34315D01*
X53411Y-34598D01*
X53694Y-34598D01*
X53694Y-42987D02*
X53694Y-42705D01*
X53411Y-42705D01*
X53411Y-42987D01*
X53694Y-42987D01*
X53694Y-43987D02*
X53694Y-43705D01*
X53411Y-43705D01*
X53411Y-43987D01*
X53694Y-43987D01*
X53708Y-35724D02*
X53708Y-35441D01*
X53425Y-35441D01*
X53425Y-35724D01*
X53708Y-35724D01*
X53708Y-36724D02*
X53708Y-36441D01*
X53425Y-36441D01*
X53425Y-36724D01*
X53708Y-36724D01*
X53708Y-40842D02*
X53708Y-40559D01*
X53425Y-40559D01*
X53425Y-40842D01*
X53708Y-40842D01*
X53708Y-41842D02*
X53708Y-41559D01*
X53425Y-41559D01*
X53425Y-41842D01*
X53708Y-41842D01*
X54708Y-35724D02*
X54708Y-35441D01*
X54425Y-35441D01*
X54425Y-35724D01*
X54708Y-35724D01*
X54708Y-36724D02*
X54708Y-36441D01*
X54425Y-36441D01*
X54425Y-36724D01*
X54708Y-36724D01*
X54708Y-40842D02*
X54708Y-40559D01*
X54425Y-40559D01*
X54425Y-40842D01*
X54708Y-40842D01*
X54708Y-41842D02*
X54708Y-41559D01*
X54425Y-41559D01*
X54425Y-41842D01*
X54708Y-41842D01*
X54810Y-33605D02*
X54810Y-33323D01*
X54527Y-33323D01*
X54527Y-33605D01*
X54810Y-33605D01*
X54810Y-43980D02*
X54810Y-43697D01*
X54527Y-43697D01*
X54527Y-43980D01*
X54810Y-43980D01*
X55708Y-35724D02*
X55708Y-35441D01*
X55425Y-35441D01*
X55425Y-35724D01*
X55708Y-35724D01*
X55708Y-36724D02*
X55708Y-36441D01*
X55425Y-36441D01*
X55425Y-36724D01*
X55708Y-36724D01*
X55708Y-40842D02*
X55708Y-40559D01*
X55425Y-40559D01*
X55425Y-40842D01*
X55708Y-40842D01*
X55708Y-41842D02*
X55708Y-41559D01*
X55425Y-41559D01*
X55425Y-41842D01*
X55708Y-41842D01*
X55810Y-33605D02*
X55810Y-33323D01*
X55527Y-33323D01*
X55527Y-33605D01*
X55810Y-33605D01*
X55810Y-43980D02*
X55810Y-43697D01*
X55527Y-43697D01*
X55527Y-43980D01*
X55810Y-43980D01*
X56708Y-35724D02*
X56708Y-35441D01*
X56425Y-35441D01*
X56425Y-35724D01*
X56708Y-35724D01*
X56708Y-36724D02*
X56708Y-36441D01*
X56425Y-36441D01*
X56425Y-36724D01*
X56708Y-36724D01*
X56708Y-40842D02*
X56708Y-40559D01*
X56425Y-40559D01*
X56425Y-40842D01*
X56708Y-40842D01*
X56708Y-41842D02*
X56708Y-41559D01*
X56425Y-41559D01*
X56425Y-41842D01*
X56708Y-41842D01*
X56810Y-33605D02*
X56810Y-33323D01*
X56527Y-33323D01*
X56527Y-33605D01*
X56810Y-33605D01*
X56810Y-43980D02*
X56810Y-43697D01*
X56527Y-43697D01*
X56527Y-43980D01*
X56810Y-43980D01*
X58991Y-34011D02*
X58991Y-33728D01*
X58708Y-33728D01*
X58708Y-34011D01*
X58991Y-34011D01*
X58991Y-35011D02*
X58991Y-34728D01*
X58708Y-34728D01*
X58708Y-35011D01*
X58991Y-35011D01*
X58991Y-36011D02*
X58991Y-35728D01*
X58708Y-35728D01*
X58708Y-36011D01*
X58991Y-36011D01*
X58991Y-37011D02*
X58991Y-36728D01*
X58708Y-36728D01*
X58708Y-37011D01*
X58991Y-37011D01*
X58991Y-38011D02*
X58991Y-37728D01*
X58708Y-37728D01*
X58708Y-38011D01*
X58991Y-38011D01*
X58991Y-39011D02*
X58991Y-38728D01*
X58708Y-38728D01*
X58708Y-39011D01*
X58991Y-39011D01*
X58991Y-40011D02*
X58991Y-39728D01*
X58708Y-39728D01*
X58708Y-40011D01*
X58991Y-40011D01*
X58991Y-41011D02*
X58991Y-40728D01*
X58708Y-40728D01*
X58708Y-41011D01*
X58991Y-41011D01*
X58991Y-42011D02*
X58991Y-41728D01*
X58708Y-41728D01*
X58708Y-42011D01*
X58991Y-42011D01*
X58991Y-43011D02*
X58991Y-42728D01*
X58708Y-42728D01*
X58708Y-43011D01*
X58991Y-43011D01*
X58991Y-44011D02*
X58991Y-43728D01*
X58708Y-43728D01*
X58708Y-44011D01*
X58991Y-44011D01*
X59991Y-34011D02*
X59991Y-33728D01*
X59708Y-33728D01*
X59708Y-34011D01*
X59991Y-34011D01*
X59991Y-35011D02*
X59991Y-34728D01*
X59708Y-34728D01*
X59708Y-35011D01*
X59991Y-35011D01*
X59991Y-36011D02*
X59991Y-35728D01*
X59708Y-35728D01*
X59708Y-36011D01*
X59991Y-36011D01*
X59991Y-37011D02*
X59991Y-36728D01*
X59708Y-36728D01*
X59708Y-37011D01*
X59991Y-37011D01*
X59991Y-38011D02*
X59991Y-37728D01*
X59708Y-37728D01*
X59708Y-38011D01*
X59991Y-38011D01*
X59991Y-39011D02*
X59991Y-38728D01*
X59708Y-38728D01*
X59708Y-39011D01*
X59991Y-39011D01*
X59991Y-40011D02*
X59991Y-39728D01*
X59708Y-39728D01*
X59708Y-40011D01*
X59991Y-40011D01*
X59991Y-41011D02*
X59991Y-40728D01*
X59708Y-40728D01*
X59708Y-41011D01*
X59991Y-41011D01*
X59991Y-42011D02*
X59991Y-41728D01*
X59708Y-41728D01*
X59708Y-42011D01*
X59991Y-42011D01*
X59991Y-43011D02*
X59991Y-42728D01*
X59708Y-42728D01*
X59708Y-43011D01*
X59991Y-43011D01*
X59991Y-44011D02*
X59991Y-43728D01*
X59708Y-43728D01*
X59708Y-44011D01*
X59991Y-44011D01*
G54D13*
X38293Y-46452D02*
X38293Y-45271D01*
X38574Y-45271D01*
X38742Y-45327D01*
X38855Y-45440D01*
X38911Y-45552D01*
X38967Y-45777D01*
X38967Y-45946D01*
X38911Y-46171D01*
X38855Y-46283D01*
X38742Y-46396D01*
X38574Y-46452D01*
X38293Y-46452D01*
X39474Y-46452D02*
X39474Y-45665D01*
X39474Y-45890D02*
X39530Y-45777D01*
X39586Y-45721D01*
X39699Y-45665D01*
X39811Y-45665D01*
X40205Y-46452D02*
X40205Y-45665D01*
X40205Y-45271D02*
X40149Y-45327D01*
X40205Y-45383D01*
X40261Y-45327D01*
X40205Y-45271D01*
X40205Y-45383D01*
X40936Y-46452D02*
X40823Y-46396D01*
X40767Y-46283D01*
X40767Y-45271D01*
X41555Y-46452D02*
X41442Y-46396D01*
X41386Y-46283D01*
X41386Y-45271D01*
X42904Y-46452D02*
X42904Y-45271D01*
X43298Y-46115D01*
X43692Y-45271D01*
X43692Y-46452D01*
X44760Y-46452D02*
X44760Y-45833D01*
X44704Y-45721D01*
X44592Y-45665D01*
X44367Y-45665D01*
X44254Y-45721D01*
X44760Y-46396D02*
X44648Y-46452D01*
X44367Y-46452D01*
X44254Y-46396D01*
X44198Y-46283D01*
X44198Y-46171D01*
X44254Y-46058D01*
X44367Y-46002D01*
X44648Y-46002D01*
X44760Y-45946D01*
X45323Y-45665D02*
X45323Y-46846D01*
X45323Y-45721D02*
X45435Y-45665D01*
X45660Y-45665D01*
X45773Y-45721D01*
X45829Y-45777D01*
X45885Y-45890D01*
X45885Y-46227D01*
X45829Y-46339D01*
X45773Y-46396D01*
X45660Y-46452D01*
X45435Y-46452D01*
X45323Y-46396D01*
X46392Y-46339D02*
X46448Y-46396D01*
X46392Y-46452D01*
X46335Y-46396D01*
X46392Y-46339D01*
X46392Y-46452D01*
X46392Y-45721D02*
X46448Y-45777D01*
X46392Y-45833D01*
X46335Y-45777D01*
X46392Y-45721D01*
X46392Y-45833D01*
X37106Y-48395D02*
X37224Y-48513D01*
X37224Y-48395D02*
X37106Y-48513D01*
X38517Y-47751D02*
X38630Y-47751D01*
X38742Y-47807D01*
X38799Y-47864D01*
X38855Y-47976D01*
X38911Y-48201D01*
X38911Y-48482D01*
X38855Y-48707D01*
X38799Y-48820D01*
X38742Y-48876D01*
X38630Y-48932D01*
X38517Y-48932D01*
X38405Y-48876D01*
X38349Y-48820D01*
X38293Y-48707D01*
X38236Y-48482D01*
X38236Y-48201D01*
X38293Y-47976D01*
X38349Y-47864D01*
X38405Y-47807D01*
X38517Y-47751D01*
X39417Y-48820D02*
X39474Y-48876D01*
X39417Y-48932D01*
X39361Y-48876D01*
X39417Y-48820D01*
X39417Y-48932D01*
X39867Y-47751D02*
X40598Y-47751D01*
X40205Y-48201D01*
X40374Y-48201D01*
X40486Y-48257D01*
X40542Y-48314D01*
X40598Y-48426D01*
X40598Y-48707D01*
X40542Y-48820D01*
X40486Y-48876D01*
X40374Y-48932D01*
X40036Y-48932D01*
X39924Y-48876D01*
X39867Y-48820D01*
X41330Y-47751D02*
X41442Y-47751D01*
X41555Y-47807D01*
X41611Y-47864D01*
X41667Y-47976D01*
X41723Y-48201D01*
X41723Y-48482D01*
X41667Y-48707D01*
X41611Y-48820D01*
X41555Y-48876D01*
X41442Y-48932D01*
X41330Y-48932D01*
X41217Y-48876D01*
X41161Y-48820D01*
X41105Y-48707D01*
X41048Y-48482D01*
X41048Y-48201D01*
X41105Y-47976D01*
X41161Y-47864D01*
X41217Y-47807D01*
X41330Y-47751D01*
X42230Y-48932D02*
X42230Y-48145D01*
X42230Y-48257D02*
X42286Y-48201D01*
X42398Y-48145D01*
X42567Y-48145D01*
X42679Y-48201D01*
X42736Y-48314D01*
X42736Y-48932D01*
X42736Y-48314D02*
X42792Y-48201D01*
X42904Y-48145D01*
X43073Y-48145D01*
X43186Y-48201D01*
X43242Y-48314D01*
X43242Y-48932D01*
X43804Y-48932D02*
X43804Y-48145D01*
X43804Y-48257D02*
X43861Y-48201D01*
X43973Y-48145D01*
X44142Y-48145D01*
X44254Y-48201D01*
X44311Y-48314D01*
X44311Y-48932D01*
X44311Y-48314D02*
X44367Y-48201D01*
X44479Y-48145D01*
X44648Y-48145D01*
X44760Y-48201D01*
X44817Y-48314D01*
X44817Y-48932D01*
X47123Y-47695D02*
X46110Y-49214D01*
X48641Y-47751D02*
X48754Y-47751D01*
X48866Y-47807D01*
X48922Y-47864D01*
X48979Y-47976D01*
X49035Y-48201D01*
X49035Y-48482D01*
X48979Y-48707D01*
X48922Y-48820D01*
X48866Y-48876D01*
X48754Y-48932D01*
X48641Y-48932D01*
X48529Y-48876D01*
X48473Y-48820D01*
X48416Y-48707D01*
X48360Y-48482D01*
X48360Y-48201D01*
X48416Y-47976D01*
X48473Y-47864D01*
X48529Y-47807D01*
X48641Y-47751D01*
X49541Y-48820D02*
X49597Y-48876D01*
X49541Y-48932D01*
X49485Y-48876D01*
X49541Y-48820D01*
X49541Y-48932D01*
X50329Y-47751D02*
X50441Y-47751D01*
X50553Y-47807D01*
X50610Y-47864D01*
X50666Y-47976D01*
X50722Y-48201D01*
X50722Y-48482D01*
X50666Y-48707D01*
X50610Y-48820D01*
X50553Y-48876D01*
X50441Y-48932D01*
X50329Y-48932D01*
X50216Y-48876D01*
X50160Y-48820D01*
X50104Y-48707D01*
X50047Y-48482D01*
X50047Y-48201D01*
X50104Y-47976D01*
X50160Y-47864D01*
X50216Y-47807D01*
X50329Y-47751D01*
X51847Y-48932D02*
X51172Y-48932D01*
X51510Y-48932D02*
X51510Y-47751D01*
X51397Y-47920D01*
X51285Y-48032D01*
X51172Y-48089D01*
X52297Y-47864D02*
X52353Y-47807D01*
X52466Y-47751D01*
X52747Y-47751D01*
X52859Y-47807D01*
X52916Y-47864D01*
X52972Y-47976D01*
X52972Y-48089D01*
X52916Y-48257D01*
X52241Y-48932D01*
X52972Y-48932D01*
X53422Y-47751D02*
X53422Y-47976D01*
X53872Y-47751D02*
X53872Y-47976D01*
X55615Y-49382D02*
X55559Y-49326D01*
X55447Y-49157D01*
X55390Y-49045D01*
X55334Y-48876D01*
X55278Y-48595D01*
X55278Y-48370D01*
X55334Y-48089D01*
X55390Y-47920D01*
X55447Y-47807D01*
X55559Y-47639D01*
X55615Y-47582D01*
X56684Y-48932D02*
X56009Y-48932D01*
X56347Y-48932D02*
X56347Y-47751D01*
X56234Y-47920D01*
X56122Y-48032D01*
X56009Y-48089D01*
X58090Y-48932D02*
X58090Y-47751D01*
X58596Y-48932D02*
X58596Y-48314D01*
X58540Y-48201D01*
X58428Y-48145D01*
X58259Y-48145D01*
X58146Y-48201D01*
X58090Y-48257D01*
X59327Y-48932D02*
X59215Y-48876D01*
X59159Y-48820D01*
X59102Y-48707D01*
X59102Y-48370D01*
X59159Y-48257D01*
X59215Y-48201D01*
X59327Y-48145D01*
X59496Y-48145D01*
X59609Y-48201D01*
X59665Y-48257D01*
X59721Y-48370D01*
X59721Y-48707D01*
X59665Y-48820D01*
X59609Y-48876D01*
X59496Y-48932D01*
X59327Y-48932D01*
X60396Y-48932D02*
X60284Y-48876D01*
X60227Y-48764D01*
X60227Y-47751D01*
X61296Y-48876D02*
X61183Y-48932D01*
X60958Y-48932D01*
X60846Y-48876D01*
X60790Y-48764D01*
X60790Y-48314D01*
X60846Y-48201D01*
X60958Y-48145D01*
X61183Y-48145D01*
X61296Y-48201D01*
X61352Y-48314D01*
X61352Y-48426D01*
X60790Y-48539D01*
X61746Y-49382D02*
X61802Y-49326D01*
X61915Y-49157D01*
X61971Y-49045D01*
X62027Y-48876D01*
X62083Y-48595D01*
X62083Y-48370D01*
X62027Y-48089D01*
X61971Y-47920D01*
X61915Y-47807D01*
X61802Y-47639D01*
X61746Y-47582D01*
G54D12*
X37224Y-50013D02*
G75*
G03X37224Y-50013I-78J0D01*
G74*
G01*
G54D13*
X38517Y-49310D02*
X38630Y-49310D01*
X38742Y-49366D01*
X38799Y-49423D01*
X38855Y-49535D01*
X38911Y-49760D01*
X38911Y-50041D01*
X38855Y-50266D01*
X38799Y-50379D01*
X38742Y-50435D01*
X38630Y-50491D01*
X38517Y-50491D01*
X38405Y-50435D01*
X38349Y-50379D01*
X38293Y-50266D01*
X38236Y-50041D01*
X38236Y-49760D01*
X38293Y-49535D01*
X38349Y-49423D01*
X38405Y-49366D01*
X38517Y-49310D01*
X39417Y-50379D02*
X39474Y-50435D01*
X39417Y-50491D01*
X39361Y-50435D01*
X39417Y-50379D01*
X39417Y-50491D01*
X40486Y-49704D02*
X40486Y-50491D01*
X40205Y-49254D02*
X39924Y-50098D01*
X40655Y-50098D01*
X41330Y-49310D02*
X41442Y-49310D01*
X41555Y-49366D01*
X41611Y-49423D01*
X41667Y-49535D01*
X41723Y-49760D01*
X41723Y-50041D01*
X41667Y-50266D01*
X41611Y-50379D01*
X41555Y-50435D01*
X41442Y-50491D01*
X41330Y-50491D01*
X41217Y-50435D01*
X41161Y-50379D01*
X41105Y-50266D01*
X41048Y-50041D01*
X41048Y-49760D01*
X41105Y-49535D01*
X41161Y-49423D01*
X41217Y-49366D01*
X41330Y-49310D01*
X42230Y-50491D02*
X42230Y-49704D01*
X42230Y-49816D02*
X42286Y-49760D01*
X42398Y-49704D01*
X42567Y-49704D01*
X42679Y-49760D01*
X42736Y-49873D01*
X42736Y-50491D01*
X42736Y-49873D02*
X42792Y-49760D01*
X42904Y-49704D01*
X43073Y-49704D01*
X43186Y-49760D01*
X43242Y-49873D01*
X43242Y-50491D01*
X43804Y-50491D02*
X43804Y-49704D01*
X43804Y-49816D02*
X43861Y-49760D01*
X43973Y-49704D01*
X44142Y-49704D01*
X44254Y-49760D01*
X44311Y-49873D01*
X44311Y-50491D01*
X44311Y-49873D02*
X44367Y-49760D01*
X44479Y-49704D01*
X44648Y-49704D01*
X44760Y-49760D01*
X44817Y-49873D01*
X44817Y-50491D01*
X47123Y-49254D02*
X46110Y-50773D01*
X48641Y-49310D02*
X48754Y-49310D01*
X48866Y-49366D01*
X48922Y-49423D01*
X48979Y-49535D01*
X49035Y-49760D01*
X49035Y-50041D01*
X48979Y-50266D01*
X48922Y-50379D01*
X48866Y-50435D01*
X48754Y-50491D01*
X48641Y-50491D01*
X48529Y-50435D01*
X48473Y-50379D01*
X48416Y-50266D01*
X48360Y-50041D01*
X48360Y-49760D01*
X48416Y-49535D01*
X48473Y-49423D01*
X48529Y-49366D01*
X48641Y-49310D01*
X49541Y-50379D02*
X49597Y-50435D01*
X49541Y-50491D01*
X49485Y-50435D01*
X49541Y-50379D01*
X49541Y-50491D01*
X50329Y-49310D02*
X50441Y-49310D01*
X50553Y-49366D01*
X50610Y-49423D01*
X50666Y-49535D01*
X50722Y-49760D01*
X50722Y-50041D01*
X50666Y-50266D01*
X50610Y-50379D01*
X50553Y-50435D01*
X50441Y-50491D01*
X50329Y-50491D01*
X50216Y-50435D01*
X50160Y-50379D01*
X50104Y-50266D01*
X50047Y-50041D01*
X50047Y-49760D01*
X50104Y-49535D01*
X50160Y-49423D01*
X50216Y-49366D01*
X50329Y-49310D01*
X51847Y-50491D02*
X51172Y-50491D01*
X51510Y-50491D02*
X51510Y-49310D01*
X51397Y-49479D01*
X51285Y-49591D01*
X51172Y-49648D01*
X52859Y-49310D02*
X52634Y-49310D01*
X52522Y-49366D01*
X52466Y-49423D01*
X52353Y-49591D01*
X52297Y-49816D01*
X52297Y-50266D01*
X52353Y-50379D01*
X52410Y-50435D01*
X52522Y-50491D01*
X52747Y-50491D01*
X52859Y-50435D01*
X52916Y-50379D01*
X52972Y-50266D01*
X52972Y-49985D01*
X52916Y-49873D01*
X52859Y-49816D01*
X52747Y-49760D01*
X52522Y-49760D01*
X52410Y-49816D01*
X52353Y-49873D01*
X52297Y-49985D01*
X53422Y-49310D02*
X53422Y-49535D01*
X53872Y-49310D02*
X53872Y-49535D01*
X55615Y-50941D02*
X55559Y-50885D01*
X55447Y-50716D01*
X55390Y-50604D01*
X55334Y-50435D01*
X55278Y-50154D01*
X55278Y-49929D01*
X55334Y-49648D01*
X55390Y-49479D01*
X55447Y-49366D01*
X55559Y-49198D01*
X55615Y-49142D01*
X56009Y-49423D02*
X56065Y-49366D01*
X56178Y-49310D01*
X56459Y-49310D01*
X56571Y-49366D01*
X56628Y-49423D01*
X56684Y-49535D01*
X56684Y-49648D01*
X56628Y-49816D01*
X55953Y-50491D01*
X56684Y-50491D01*
X57415Y-49310D02*
X57528Y-49310D01*
X57640Y-49366D01*
X57696Y-49423D01*
X57753Y-49535D01*
X57809Y-49760D01*
X57809Y-50041D01*
X57753Y-50266D01*
X57696Y-50379D01*
X57640Y-50435D01*
X57528Y-50491D01*
X57415Y-50491D01*
X57303Y-50435D01*
X57246Y-50379D01*
X57190Y-50266D01*
X57134Y-50041D01*
X57134Y-49760D01*
X57190Y-49535D01*
X57246Y-49423D01*
X57303Y-49366D01*
X57415Y-49310D01*
X59215Y-50491D02*
X59215Y-49310D01*
X59721Y-50491D02*
X59721Y-49873D01*
X59665Y-49760D01*
X59552Y-49704D01*
X59384Y-49704D01*
X59271Y-49760D01*
X59215Y-49816D01*
X60452Y-50491D02*
X60340Y-50435D01*
X60284Y-50379D01*
X60227Y-50266D01*
X60227Y-49929D01*
X60284Y-49816D01*
X60340Y-49760D01*
X60452Y-49704D01*
X60621Y-49704D01*
X60733Y-49760D01*
X60790Y-49816D01*
X60846Y-49929D01*
X60846Y-50266D01*
X60790Y-50379D01*
X60733Y-50435D01*
X60621Y-50491D01*
X60452Y-50491D01*
X61521Y-50491D02*
X61408Y-50435D01*
X61352Y-50323D01*
X61352Y-49310D01*
X62421Y-50435D02*
X62308Y-50491D01*
X62083Y-50491D01*
X61971Y-50435D01*
X61915Y-50323D01*
X61915Y-49873D01*
X61971Y-49760D01*
X62083Y-49704D01*
X62308Y-49704D01*
X62421Y-49760D01*
X62477Y-49873D01*
X62477Y-49985D01*
X61915Y-50098D01*
X62927Y-50435D02*
X63039Y-50491D01*
X63264Y-50491D01*
X63377Y-50435D01*
X63433Y-50323D01*
X63433Y-50266D01*
X63377Y-50154D01*
X63264Y-50098D01*
X63096Y-50098D01*
X62983Y-50041D01*
X62927Y-49929D01*
X62927Y-49873D01*
X62983Y-49760D01*
X63096Y-49704D01*
X63264Y-49704D01*
X63377Y-49760D01*
X63827Y-50941D02*
X63883Y-50885D01*
X63996Y-50716D01*
X64052Y-50604D01*
X64108Y-50435D01*
X64164Y-50154D01*
X64164Y-49929D01*
X64108Y-49648D01*
X64052Y-49479D01*
X63996Y-49366D01*
X63883Y-49198D01*
X63827Y-49142D01*
X37064Y-51412D02*
X37064Y-51732D01*
X36904Y-51572D02*
X37224Y-51572D01*
X38517Y-50869D02*
X38630Y-50869D01*
X38742Y-50926D01*
X38799Y-50982D01*
X38855Y-51094D01*
X38911Y-51319D01*
X38911Y-51600D01*
X38855Y-51825D01*
X38799Y-51938D01*
X38742Y-51994D01*
X38630Y-52050D01*
X38517Y-52050D01*
X38405Y-51994D01*
X38349Y-51938D01*
X38293Y-51825D01*
X38236Y-51600D01*
X38236Y-51319D01*
X38293Y-51094D01*
X38349Y-50982D01*
X38405Y-50926D01*
X38517Y-50869D01*
X39417Y-51938D02*
X39474Y-51994D01*
X39417Y-52050D01*
X39361Y-51994D01*
X39417Y-51938D01*
X39417Y-52050D01*
X40149Y-51375D02*
X40036Y-51319D01*
X39980Y-51263D01*
X39924Y-51151D01*
X39924Y-51094D01*
X39980Y-50982D01*
X40036Y-50926D01*
X40149Y-50869D01*
X40374Y-50869D01*
X40486Y-50926D01*
X40542Y-50982D01*
X40598Y-51094D01*
X40598Y-51151D01*
X40542Y-51263D01*
X40486Y-51319D01*
X40374Y-51375D01*
X40149Y-51375D01*
X40036Y-51432D01*
X39980Y-51488D01*
X39924Y-51600D01*
X39924Y-51825D01*
X39980Y-51938D01*
X40036Y-51994D01*
X40149Y-52050D01*
X40374Y-52050D01*
X40486Y-51994D01*
X40542Y-51938D01*
X40598Y-51825D01*
X40598Y-51600D01*
X40542Y-51488D01*
X40486Y-51432D01*
X40374Y-51375D01*
X41723Y-52050D02*
X41048Y-52050D01*
X41386Y-52050D02*
X41386Y-50869D01*
X41273Y-51038D01*
X41161Y-51151D01*
X41048Y-51207D01*
X42230Y-52050D02*
X42230Y-51263D01*
X42230Y-51375D02*
X42286Y-51319D01*
X42398Y-51263D01*
X42567Y-51263D01*
X42679Y-51319D01*
X42736Y-51432D01*
X42736Y-52050D01*
X42736Y-51432D02*
X42792Y-51319D01*
X42904Y-51263D01*
X43073Y-51263D01*
X43186Y-51319D01*
X43242Y-51432D01*
X43242Y-52050D01*
X43804Y-52050D02*
X43804Y-51263D01*
X43804Y-51375D02*
X43861Y-51319D01*
X43973Y-51263D01*
X44142Y-51263D01*
X44254Y-51319D01*
X44311Y-51432D01*
X44311Y-52050D01*
X44311Y-51432D02*
X44367Y-51319D01*
X44479Y-51263D01*
X44648Y-51263D01*
X44760Y-51319D01*
X44817Y-51432D01*
X44817Y-52050D01*
X47123Y-50813D02*
X46110Y-52332D01*
X48641Y-50869D02*
X48754Y-50869D01*
X48866Y-50926D01*
X48922Y-50982D01*
X48979Y-51094D01*
X49035Y-51319D01*
X49035Y-51600D01*
X48979Y-51825D01*
X48922Y-51938D01*
X48866Y-51994D01*
X48754Y-52050D01*
X48641Y-52050D01*
X48529Y-51994D01*
X48473Y-51938D01*
X48416Y-51825D01*
X48360Y-51600D01*
X48360Y-51319D01*
X48416Y-51094D01*
X48473Y-50982D01*
X48529Y-50926D01*
X48641Y-50869D01*
X49541Y-51938D02*
X49597Y-51994D01*
X49541Y-52050D01*
X49485Y-51994D01*
X49541Y-51938D01*
X49541Y-52050D01*
X50329Y-50869D02*
X50441Y-50869D01*
X50553Y-50926D01*
X50610Y-50982D01*
X50666Y-51094D01*
X50722Y-51319D01*
X50722Y-51600D01*
X50666Y-51825D01*
X50610Y-51938D01*
X50553Y-51994D01*
X50441Y-52050D01*
X50329Y-52050D01*
X50216Y-51994D01*
X50160Y-51938D01*
X50104Y-51825D01*
X50047Y-51600D01*
X50047Y-51319D01*
X50104Y-51094D01*
X50160Y-50982D01*
X50216Y-50926D01*
X50329Y-50869D01*
X51116Y-50869D02*
X51847Y-50869D01*
X51453Y-51319D01*
X51622Y-51319D01*
X51735Y-51375D01*
X51791Y-51432D01*
X51847Y-51544D01*
X51847Y-51825D01*
X51791Y-51938D01*
X51735Y-51994D01*
X51622Y-52050D01*
X51285Y-52050D01*
X51172Y-51994D01*
X51116Y-51938D01*
X52297Y-50982D02*
X52353Y-50926D01*
X52466Y-50869D01*
X52747Y-50869D01*
X52859Y-50926D01*
X52916Y-50982D01*
X52972Y-51094D01*
X52972Y-51207D01*
X52916Y-51375D01*
X52241Y-52050D01*
X52972Y-52050D01*
X53422Y-50869D02*
X53422Y-51094D01*
X53872Y-50869D02*
X53872Y-51094D01*
X55615Y-52500D02*
X55559Y-52444D01*
X55447Y-52275D01*
X55390Y-52163D01*
X55334Y-51994D01*
X55278Y-51713D01*
X55278Y-51488D01*
X55334Y-51207D01*
X55390Y-51038D01*
X55447Y-50926D01*
X55559Y-50757D01*
X55615Y-50701D01*
X56234Y-51375D02*
X56122Y-51319D01*
X56065Y-51263D01*
X56009Y-51151D01*
X56009Y-51094D01*
X56065Y-50982D01*
X56122Y-50926D01*
X56234Y-50869D01*
X56459Y-50869D01*
X56571Y-50926D01*
X56628Y-50982D01*
X56684Y-51094D01*
X56684Y-51151D01*
X56628Y-51263D01*
X56571Y-51319D01*
X56459Y-51375D01*
X56234Y-51375D01*
X56122Y-51432D01*
X56065Y-51488D01*
X56009Y-51600D01*
X56009Y-51825D01*
X56065Y-51938D01*
X56122Y-51994D01*
X56234Y-52050D01*
X56459Y-52050D01*
X56571Y-51994D01*
X56628Y-51938D01*
X56684Y-51825D01*
X56684Y-51600D01*
X56628Y-51488D01*
X56571Y-51432D01*
X56459Y-51375D01*
X58090Y-52050D02*
X58090Y-50869D01*
X58596Y-52050D02*
X58596Y-51432D01*
X58540Y-51319D01*
X58428Y-51263D01*
X58259Y-51263D01*
X58146Y-51319D01*
X58090Y-51375D01*
X59327Y-52050D02*
X59215Y-51994D01*
X59159Y-51938D01*
X59102Y-51825D01*
X59102Y-51488D01*
X59159Y-51375D01*
X59215Y-51319D01*
X59327Y-51263D01*
X59496Y-51263D01*
X59609Y-51319D01*
X59665Y-51375D01*
X59721Y-51488D01*
X59721Y-51825D01*
X59665Y-51938D01*
X59609Y-51994D01*
X59496Y-52050D01*
X59327Y-52050D01*
X60396Y-52050D02*
X60284Y-51994D01*
X60227Y-51882D01*
X60227Y-50869D01*
X61296Y-51994D02*
X61183Y-52050D01*
X60958Y-52050D01*
X60846Y-51994D01*
X60790Y-51882D01*
X60790Y-51432D01*
X60846Y-51319D01*
X60958Y-51263D01*
X61183Y-51263D01*
X61296Y-51319D01*
X61352Y-51432D01*
X61352Y-51544D01*
X60790Y-51657D01*
X61802Y-51994D02*
X61915Y-52050D01*
X62140Y-52050D01*
X62252Y-51994D01*
X62308Y-51882D01*
X62308Y-51825D01*
X62252Y-51713D01*
X62140Y-51657D01*
X61971Y-51657D01*
X61858Y-51600D01*
X61802Y-51488D01*
X61802Y-51432D01*
X61858Y-51319D01*
X61971Y-51263D01*
X62140Y-51263D01*
X62252Y-51319D01*
X62702Y-52500D02*
X62758Y-52444D01*
X62871Y-52275D01*
X62927Y-52163D01*
X62983Y-51994D01*
X63039Y-51713D01*
X63039Y-51488D01*
X62983Y-51207D01*
X62927Y-51038D01*
X62871Y-50926D01*
X62758Y-50757D01*
X62702Y-50701D01*
G54D12*
X37165Y-53273D02*
X37165Y-52990D01*
X36882Y-52990D01*
X36882Y-53273D01*
X37165Y-53273D01*
G54D13*
X38911Y-53609D02*
X38236Y-53609D01*
X38574Y-53609D02*
X38574Y-52428D01*
X38461Y-52597D01*
X38349Y-52710D01*
X38236Y-52766D01*
X39417Y-53497D02*
X39474Y-53553D01*
X39417Y-53609D01*
X39361Y-53553D01*
X39417Y-53497D01*
X39417Y-53609D01*
X40205Y-52428D02*
X40317Y-52428D01*
X40430Y-52485D01*
X40486Y-52541D01*
X40542Y-52653D01*
X40598Y-52878D01*
X40598Y-53160D01*
X40542Y-53384D01*
X40486Y-53497D01*
X40430Y-53553D01*
X40317Y-53609D01*
X40205Y-53609D01*
X40092Y-53553D01*
X40036Y-53497D01*
X39980Y-53384D01*
X39924Y-53160D01*
X39924Y-52878D01*
X39980Y-52653D01*
X40036Y-52541D01*
X40092Y-52485D01*
X40205Y-52428D01*
X41048Y-52541D02*
X41105Y-52485D01*
X41217Y-52428D01*
X41498Y-52428D01*
X41611Y-52485D01*
X41667Y-52541D01*
X41723Y-52653D01*
X41723Y-52766D01*
X41667Y-52935D01*
X40992Y-53609D01*
X41723Y-53609D01*
X42230Y-53609D02*
X42230Y-52822D01*
X42230Y-52935D02*
X42286Y-52878D01*
X42398Y-52822D01*
X42567Y-52822D01*
X42679Y-52878D01*
X42736Y-52991D01*
X42736Y-53609D01*
X42736Y-52991D02*
X42792Y-52878D01*
X42904Y-52822D01*
X43073Y-52822D01*
X43186Y-52878D01*
X43242Y-52991D01*
X43242Y-53609D01*
X43804Y-53609D02*
X43804Y-52822D01*
X43804Y-52935D02*
X43861Y-52878D01*
X43973Y-52822D01*
X44142Y-52822D01*
X44254Y-52878D01*
X44311Y-52991D01*
X44311Y-53609D01*
X44311Y-52991D02*
X44367Y-52878D01*
X44479Y-52822D01*
X44648Y-52822D01*
X44760Y-52878D01*
X44817Y-52991D01*
X44817Y-53609D01*
X47123Y-52372D02*
X46110Y-53891D01*
X48641Y-52428D02*
X48754Y-52428D01*
X48866Y-52485D01*
X48922Y-52541D01*
X48979Y-52653D01*
X49035Y-52878D01*
X49035Y-53160D01*
X48979Y-53384D01*
X48922Y-53497D01*
X48866Y-53553D01*
X48754Y-53609D01*
X48641Y-53609D01*
X48529Y-53553D01*
X48473Y-53497D01*
X48416Y-53384D01*
X48360Y-53160D01*
X48360Y-52878D01*
X48416Y-52653D01*
X48473Y-52541D01*
X48529Y-52485D01*
X48641Y-52428D01*
X49541Y-53497D02*
X49597Y-53553D01*
X49541Y-53609D01*
X49485Y-53553D01*
X49541Y-53497D01*
X49541Y-53609D01*
X50329Y-52428D02*
X50441Y-52428D01*
X50553Y-52485D01*
X50610Y-52541D01*
X50666Y-52653D01*
X50722Y-52878D01*
X50722Y-53160D01*
X50666Y-53384D01*
X50610Y-53497D01*
X50553Y-53553D01*
X50441Y-53609D01*
X50329Y-53609D01*
X50216Y-53553D01*
X50160Y-53497D01*
X50104Y-53384D01*
X50047Y-53160D01*
X50047Y-52878D01*
X50104Y-52653D01*
X50160Y-52541D01*
X50216Y-52485D01*
X50329Y-52428D01*
X51735Y-52822D02*
X51735Y-53609D01*
X51453Y-52372D02*
X51172Y-53216D01*
X51903Y-53216D01*
X52578Y-52428D02*
X52691Y-52428D01*
X52803Y-52485D01*
X52859Y-52541D01*
X52916Y-52653D01*
X52972Y-52878D01*
X52972Y-53160D01*
X52916Y-53384D01*
X52859Y-53497D01*
X52803Y-53553D01*
X52691Y-53609D01*
X52578Y-53609D01*
X52466Y-53553D01*
X52410Y-53497D01*
X52353Y-53384D01*
X52297Y-53160D01*
X52297Y-52878D01*
X52353Y-52653D01*
X52410Y-52541D01*
X52466Y-52485D01*
X52578Y-52428D01*
X53422Y-52428D02*
X53422Y-52653D01*
X53872Y-52428D02*
X53872Y-52653D01*
X55615Y-54059D02*
X55559Y-54003D01*
X55447Y-53834D01*
X55390Y-53722D01*
X55334Y-53553D01*
X55278Y-53272D01*
X55278Y-53047D01*
X55334Y-52766D01*
X55390Y-52597D01*
X55447Y-52485D01*
X55559Y-52316D01*
X55615Y-52260D01*
X56234Y-52935D02*
X56122Y-52878D01*
X56065Y-52822D01*
X56009Y-52710D01*
X56009Y-52653D01*
X56065Y-52541D01*
X56122Y-52485D01*
X56234Y-52428D01*
X56459Y-52428D01*
X56571Y-52485D01*
X56628Y-52541D01*
X56684Y-52653D01*
X56684Y-52710D01*
X56628Y-52822D01*
X56571Y-52878D01*
X56459Y-52935D01*
X56234Y-52935D01*
X56122Y-52991D01*
X56065Y-53047D01*
X56009Y-53160D01*
X56009Y-53384D01*
X56065Y-53497D01*
X56122Y-53553D01*
X56234Y-53609D01*
X56459Y-53609D01*
X56571Y-53553D01*
X56628Y-53497D01*
X56684Y-53384D01*
X56684Y-53160D01*
X56628Y-53047D01*
X56571Y-52991D01*
X56459Y-52935D01*
X57246Y-53609D02*
X57471Y-53609D01*
X57584Y-53553D01*
X57640Y-53497D01*
X57753Y-53328D01*
X57809Y-53103D01*
X57809Y-52653D01*
X57753Y-52541D01*
X57696Y-52485D01*
X57584Y-52428D01*
X57359Y-52428D01*
X57246Y-52485D01*
X57190Y-52541D01*
X57134Y-52653D01*
X57134Y-52935D01*
X57190Y-53047D01*
X57246Y-53103D01*
X57359Y-53160D01*
X57584Y-53160D01*
X57696Y-53103D01*
X57753Y-53047D01*
X57809Y-52935D01*
X59215Y-53609D02*
X59215Y-52428D01*
X59721Y-53609D02*
X59721Y-52991D01*
X59665Y-52878D01*
X59552Y-52822D01*
X59384Y-52822D01*
X59271Y-52878D01*
X59215Y-52935D01*
X60452Y-53609D02*
X60340Y-53553D01*
X60284Y-53497D01*
X60227Y-53384D01*
X60227Y-53047D01*
X60284Y-52935D01*
X60340Y-52878D01*
X60452Y-52822D01*
X60621Y-52822D01*
X60733Y-52878D01*
X60790Y-52935D01*
X60846Y-53047D01*
X60846Y-53384D01*
X60790Y-53497D01*
X60733Y-53553D01*
X60621Y-53609D01*
X60452Y-53609D01*
X61521Y-53609D02*
X61408Y-53553D01*
X61352Y-53441D01*
X61352Y-52428D01*
X62421Y-53553D02*
X62308Y-53609D01*
X62083Y-53609D01*
X61971Y-53553D01*
X61915Y-53441D01*
X61915Y-52991D01*
X61971Y-52878D01*
X62083Y-52822D01*
X62308Y-52822D01*
X62421Y-52878D01*
X62477Y-52991D01*
X62477Y-53103D01*
X61915Y-53216D01*
X62927Y-53553D02*
X63039Y-53609D01*
X63264Y-53609D01*
X63377Y-53553D01*
X63433Y-53441D01*
X63433Y-53384D01*
X63377Y-53272D01*
X63264Y-53216D01*
X63096Y-53216D01*
X62983Y-53160D01*
X62927Y-53047D01*
X62927Y-52991D01*
X62983Y-52878D01*
X63096Y-52822D01*
X63264Y-52822D01*
X63377Y-52878D01*
X63827Y-54059D02*
X63883Y-54003D01*
X63996Y-53834D01*
X64052Y-53722D01*
X64108Y-53553D01*
X64164Y-53272D01*
X64164Y-53047D01*
X64108Y-52766D01*
X64052Y-52597D01*
X63996Y-52485D01*
X63883Y-52316D01*
X63827Y-52260D01*
M02*
