G04 (created by PCBNEW (2013-07-07 BZR 4022)-stable) date 06/11/2013 18:13:25*
%MOIN*%
G04 Gerber Fmt 3.4, Leading zero omitted, Abs format*
%FSLAX34Y34*%
G01*
G70*
G90*
G04 APERTURE LIST*
%ADD10C,0.00590551*%
%ADD11C,0.011811*%
%ADD12R,0.0412992X0.0612992*%
%ADD13R,0.0662992X0.0862992*%
%ADD14R,0.0662992X0.0662992*%
%ADD15C,0.0662992*%
%ADD16R,0.0512992X0.0262992*%
%ADD17R,0.0612992X0.0412992*%
%ADD18R,0.0612992X0.0612992*%
%ADD19C,0.0612992*%
%ADD20C,0.0712992*%
%ADD21R,0.0515748X0.0311024*%
%ADD22R,0.0515748X0.023622*%
G04 APERTURE END LIST*
G54D10*
G54D11*
X28464Y-36189D02*
X28267Y-36189D01*
X28267Y-36498D02*
X28267Y-35908D01*
X28548Y-35908D01*
X28773Y-36498D02*
X28773Y-36105D01*
X28773Y-36217D02*
X28802Y-36161D01*
X28830Y-36133D01*
X28886Y-36105D01*
X28942Y-36105D01*
X29223Y-36498D02*
X29167Y-36470D01*
X29139Y-36442D01*
X29111Y-36386D01*
X29111Y-36217D01*
X29139Y-36161D01*
X29167Y-36133D01*
X29223Y-36105D01*
X29308Y-36105D01*
X29364Y-36133D01*
X29392Y-36161D01*
X29420Y-36217D01*
X29420Y-36386D01*
X29392Y-36442D01*
X29364Y-36470D01*
X29308Y-36498D01*
X29223Y-36498D01*
X29673Y-36105D02*
X29673Y-36498D01*
X29673Y-36161D02*
X29701Y-36133D01*
X29758Y-36105D01*
X29842Y-36105D01*
X29898Y-36133D01*
X29926Y-36189D01*
X29926Y-36498D01*
X30123Y-36105D02*
X30348Y-36105D01*
X30208Y-35908D02*
X30208Y-36414D01*
X30236Y-36470D01*
X30292Y-36498D01*
X30348Y-36498D01*
X30967Y-36470D02*
X31051Y-36498D01*
X31192Y-36498D01*
X31248Y-36470D01*
X31276Y-36442D01*
X31304Y-36386D01*
X31304Y-36330D01*
X31276Y-36273D01*
X31248Y-36245D01*
X31192Y-36217D01*
X31079Y-36189D01*
X31023Y-36161D01*
X30995Y-36133D01*
X30967Y-36077D01*
X30967Y-36020D01*
X30995Y-35964D01*
X31023Y-35936D01*
X31079Y-35908D01*
X31220Y-35908D01*
X31304Y-35936D01*
X31642Y-36498D02*
X31586Y-36470D01*
X31557Y-36442D01*
X31529Y-36386D01*
X31529Y-36217D01*
X31557Y-36161D01*
X31586Y-36133D01*
X31642Y-36105D01*
X31726Y-36105D01*
X31782Y-36133D01*
X31811Y-36161D01*
X31839Y-36217D01*
X31839Y-36386D01*
X31811Y-36442D01*
X31782Y-36470D01*
X31726Y-36498D01*
X31642Y-36498D01*
X32176Y-36498D02*
X32120Y-36470D01*
X32092Y-36414D01*
X32092Y-35908D01*
X32654Y-36498D02*
X32654Y-35908D01*
X32654Y-36470D02*
X32598Y-36498D01*
X32485Y-36498D01*
X32429Y-36470D01*
X32401Y-36442D01*
X32373Y-36386D01*
X32373Y-36217D01*
X32401Y-36161D01*
X32429Y-36133D01*
X32485Y-36105D01*
X32598Y-36105D01*
X32654Y-36133D01*
X33160Y-36470D02*
X33104Y-36498D01*
X32992Y-36498D01*
X32935Y-36470D01*
X32907Y-36414D01*
X32907Y-36189D01*
X32935Y-36133D01*
X32992Y-36105D01*
X33104Y-36105D01*
X33160Y-36133D01*
X33188Y-36189D01*
X33188Y-36245D01*
X32907Y-36302D01*
X33442Y-36498D02*
X33442Y-36105D01*
X33442Y-36217D02*
X33470Y-36161D01*
X33498Y-36133D01*
X33554Y-36105D01*
X33610Y-36105D01*
X34257Y-36498D02*
X34257Y-35908D01*
X34454Y-36330D01*
X34651Y-35908D01*
X34651Y-36498D01*
X35185Y-36498D02*
X35185Y-36189D01*
X35157Y-36133D01*
X35101Y-36105D01*
X34988Y-36105D01*
X34932Y-36133D01*
X35185Y-36470D02*
X35129Y-36498D01*
X34988Y-36498D01*
X34932Y-36470D01*
X34904Y-36414D01*
X34904Y-36358D01*
X34932Y-36302D01*
X34988Y-36273D01*
X35129Y-36273D01*
X35185Y-36245D01*
X35438Y-36470D02*
X35494Y-36498D01*
X35607Y-36498D01*
X35663Y-36470D01*
X35691Y-36414D01*
X35691Y-36386D01*
X35663Y-36330D01*
X35607Y-36302D01*
X35523Y-36302D01*
X35466Y-36273D01*
X35438Y-36217D01*
X35438Y-36189D01*
X35466Y-36133D01*
X35523Y-36105D01*
X35607Y-36105D01*
X35663Y-36133D01*
X35944Y-36498D02*
X35944Y-35908D01*
X36001Y-36273D02*
X36169Y-36498D01*
X36169Y-36105D02*
X35944Y-36330D01*
G54D12*
X49951Y-35059D03*
X49201Y-35059D03*
G54D13*
X50138Y-33809D03*
X48838Y-33809D03*
G54D14*
X38870Y-33870D03*
G54D15*
X39870Y-33870D03*
X38870Y-34870D03*
X39870Y-34870D03*
X38870Y-35870D03*
X39870Y-35870D03*
X38870Y-36870D03*
X39870Y-36870D03*
X38870Y-37870D03*
X39870Y-37870D03*
X38870Y-38870D03*
X39870Y-38870D03*
X38870Y-39870D03*
X39870Y-39870D03*
X38870Y-40870D03*
X39870Y-40870D03*
X38870Y-41870D03*
X39870Y-41870D03*
X38870Y-42870D03*
X39870Y-42870D03*
X38870Y-43870D03*
X39870Y-43870D03*
G54D14*
X58850Y-33870D03*
G54D15*
X59850Y-33870D03*
X58850Y-34870D03*
X59850Y-34870D03*
X58850Y-35870D03*
X59850Y-35870D03*
X58850Y-36870D03*
X59850Y-36870D03*
X58850Y-37870D03*
X59850Y-37870D03*
X58850Y-38870D03*
X59850Y-38870D03*
X58850Y-39870D03*
X59850Y-39870D03*
X58850Y-40870D03*
X59850Y-40870D03*
X58850Y-41870D03*
X59850Y-41870D03*
X58850Y-42870D03*
X59850Y-42870D03*
X58850Y-43870D03*
X59850Y-43870D03*
G54D16*
X48394Y-36570D03*
X48394Y-37070D03*
X48394Y-37570D03*
X48394Y-38070D03*
X48394Y-38570D03*
X48394Y-39070D03*
X48394Y-39570D03*
X50894Y-39570D03*
X50894Y-39070D03*
X50894Y-38070D03*
X50894Y-37570D03*
X50894Y-37070D03*
X50894Y-36570D03*
X50894Y-38570D03*
G54D17*
X43641Y-38995D03*
X43641Y-39745D03*
X54566Y-38288D03*
X54566Y-37538D03*
X55551Y-38288D03*
X55551Y-37538D03*
X53582Y-38288D03*
X53582Y-37538D03*
X51850Y-33630D03*
X51850Y-34380D03*
X52578Y-38268D03*
X52578Y-37518D03*
X52578Y-39034D03*
X52578Y-39784D03*
X51998Y-43701D03*
X51998Y-42951D03*
X53562Y-39034D03*
X53562Y-39784D03*
X44645Y-38995D03*
X44645Y-39745D03*
X54566Y-39034D03*
X54566Y-39784D03*
X45649Y-38995D03*
X45649Y-39745D03*
X47145Y-43554D03*
X47145Y-42804D03*
X46653Y-38995D03*
X46653Y-39745D03*
X55570Y-39034D03*
X55570Y-39784D03*
X44429Y-36908D03*
X44429Y-37658D03*
G54D18*
X43307Y-36724D03*
G54D19*
X43307Y-37724D03*
G54D20*
X57696Y-38291D03*
X57696Y-35291D03*
X41496Y-39011D03*
X41496Y-42011D03*
X57716Y-39208D03*
X57716Y-42208D03*
G54D14*
X52566Y-36582D03*
G54D15*
X52566Y-35582D03*
X53566Y-36582D03*
X53566Y-35582D03*
X54566Y-36582D03*
X54566Y-35582D03*
X55566Y-36582D03*
X55566Y-35582D03*
X56566Y-36582D03*
X56566Y-35582D03*
G54D14*
X46645Y-40681D03*
G54D15*
X46645Y-41681D03*
X45645Y-40681D03*
X45645Y-41681D03*
X44645Y-40681D03*
X44645Y-41681D03*
X43645Y-40681D03*
X43645Y-41681D03*
X42645Y-40681D03*
X42645Y-41681D03*
G54D14*
X56566Y-40700D03*
G54D15*
X56566Y-41700D03*
X55566Y-40700D03*
X55566Y-41700D03*
X54566Y-40700D03*
X54566Y-41700D03*
X53566Y-40700D03*
X53566Y-41700D03*
X52566Y-40700D03*
X52566Y-41700D03*
G54D14*
X54669Y-33464D03*
G54D15*
X55669Y-33464D03*
X56669Y-33464D03*
G54D14*
X54669Y-43838D03*
G54D15*
X55669Y-43838D03*
X56669Y-43838D03*
G54D14*
X44710Y-43769D03*
G54D15*
X43710Y-43809D03*
X42710Y-43769D03*
G54D14*
X53553Y-43846D03*
G54D15*
X53553Y-42846D03*
G54D14*
X53553Y-33456D03*
G54D15*
X53553Y-34456D03*
G54D14*
X45807Y-43767D03*
G54D15*
X45807Y-42767D03*
G54D21*
X49744Y-41909D03*
G54D22*
X49744Y-41594D03*
X49744Y-41279D03*
G54D21*
X49744Y-40964D03*
X48972Y-41909D03*
G54D22*
X48972Y-41594D03*
X48972Y-41279D03*
G54D21*
X48972Y-40964D03*
X49744Y-43513D03*
G54D22*
X49744Y-43198D03*
X49744Y-42883D03*
G54D21*
X49744Y-42568D03*
X48972Y-43513D03*
G54D22*
X48972Y-43198D03*
X48972Y-42883D03*
G54D21*
X48972Y-42568D03*
M02*
