G04 (created by PCBNEW (2013-07-07 BZR 4022)-stable) date 06/11/2013 18:13:25*
%MOIN*%
G04 Gerber Fmt 3.4, Leading zero omitted, Abs format*
%FSLAX34Y34*%
G01*
G70*
G90*
G04 APERTURE LIST*
%ADD10C,0.00590551*%
%ADD11C,0.011811*%
G04 APERTURE END LIST*
G54D10*
G54D11*
X62355Y-34004D02*
X62439Y-34032D01*
X62467Y-34060D01*
X62495Y-34116D01*
X62495Y-34201D01*
X62467Y-34257D01*
X62439Y-34285D01*
X62383Y-34313D01*
X62158Y-34313D01*
X62158Y-33723D01*
X62355Y-33723D01*
X62411Y-33751D01*
X62439Y-33779D01*
X62467Y-33835D01*
X62467Y-33892D01*
X62439Y-33948D01*
X62411Y-33976D01*
X62355Y-34004D01*
X62158Y-34004D01*
X63001Y-33920D02*
X63001Y-34313D01*
X62748Y-33920D02*
X62748Y-34229D01*
X62776Y-34285D01*
X62833Y-34313D01*
X62917Y-34313D01*
X62973Y-34285D01*
X63001Y-34257D01*
X63283Y-34313D02*
X63283Y-33920D01*
X63283Y-33723D02*
X63255Y-33751D01*
X63283Y-33779D01*
X63311Y-33751D01*
X63283Y-33723D01*
X63283Y-33779D01*
X63648Y-34313D02*
X63592Y-34285D01*
X63564Y-34229D01*
X63564Y-33723D01*
X64126Y-34313D02*
X64126Y-33723D01*
X64126Y-34285D02*
X64070Y-34313D01*
X63958Y-34313D01*
X63901Y-34285D01*
X63873Y-34257D01*
X63845Y-34201D01*
X63845Y-34032D01*
X63873Y-33976D01*
X63901Y-33948D01*
X63958Y-33920D01*
X64070Y-33920D01*
X64126Y-33948D01*
X64857Y-34313D02*
X64857Y-33920D01*
X64857Y-33723D02*
X64829Y-33751D01*
X64857Y-33779D01*
X64886Y-33751D01*
X64857Y-33723D01*
X64857Y-33779D01*
X65139Y-33920D02*
X65139Y-34313D01*
X65139Y-33976D02*
X65167Y-33948D01*
X65223Y-33920D01*
X65307Y-33920D01*
X65364Y-33948D01*
X65392Y-34004D01*
X65392Y-34313D01*
X65589Y-33920D02*
X65814Y-33920D01*
X65673Y-34313D02*
X65673Y-33807D01*
X65701Y-33751D01*
X65757Y-33723D01*
X65814Y-33723D01*
X66095Y-34313D02*
X66039Y-34285D01*
X66010Y-34257D01*
X65982Y-34201D01*
X65982Y-34032D01*
X66010Y-33976D01*
X66039Y-33948D01*
X66095Y-33920D01*
X66179Y-33920D01*
X66235Y-33948D01*
X66264Y-33976D01*
X66292Y-34032D01*
X66292Y-34201D01*
X66264Y-34257D01*
X66235Y-34285D01*
X66179Y-34313D01*
X66095Y-34313D01*
X66545Y-34313D02*
X66545Y-33920D01*
X66545Y-34032D02*
X66573Y-33976D01*
X66601Y-33948D01*
X66657Y-33920D01*
X66714Y-33920D01*
X66910Y-34313D02*
X66910Y-33920D01*
X66910Y-33976D02*
X66938Y-33948D01*
X66995Y-33920D01*
X67079Y-33920D01*
X67135Y-33948D01*
X67163Y-34004D01*
X67163Y-34313D01*
X67163Y-34004D02*
X67192Y-33948D01*
X67248Y-33920D01*
X67332Y-33920D01*
X67388Y-33948D01*
X67417Y-34004D01*
X67417Y-34313D01*
X67951Y-34313D02*
X67951Y-34004D01*
X67923Y-33948D01*
X67866Y-33920D01*
X67754Y-33920D01*
X67698Y-33948D01*
X67951Y-34285D02*
X67895Y-34313D01*
X67754Y-34313D01*
X67698Y-34285D01*
X67670Y-34229D01*
X67670Y-34173D01*
X67698Y-34116D01*
X67754Y-34088D01*
X67895Y-34088D01*
X67951Y-34060D01*
X68148Y-33920D02*
X68373Y-33920D01*
X68232Y-33723D02*
X68232Y-34229D01*
X68260Y-34285D01*
X68316Y-34313D01*
X68373Y-34313D01*
X68570Y-34313D02*
X68570Y-33920D01*
X68570Y-33723D02*
X68541Y-33751D01*
X68570Y-33779D01*
X68598Y-33751D01*
X68570Y-33723D01*
X68570Y-33779D01*
X68935Y-34313D02*
X68879Y-34285D01*
X68851Y-34257D01*
X68823Y-34201D01*
X68823Y-34032D01*
X68851Y-33976D01*
X68879Y-33948D01*
X68935Y-33920D01*
X69019Y-33920D01*
X69076Y-33948D01*
X69104Y-33976D01*
X69132Y-34032D01*
X69132Y-34201D01*
X69104Y-34257D01*
X69076Y-34285D01*
X69019Y-34313D01*
X68935Y-34313D01*
X69385Y-33920D02*
X69385Y-34313D01*
X69385Y-33976D02*
X69413Y-33948D01*
X69469Y-33920D01*
X69554Y-33920D01*
X69610Y-33948D01*
X69638Y-34004D01*
X69638Y-34313D01*
X62158Y-34949D02*
X62608Y-34949D01*
X62608Y-35118D02*
X62158Y-35118D01*
X62889Y-34949D02*
X63339Y-34949D01*
X63339Y-35118D02*
X62889Y-35118D01*
X63620Y-34949D02*
X64070Y-34949D01*
X64070Y-35118D02*
X63620Y-35118D01*
X64351Y-34949D02*
X64801Y-34949D01*
X64801Y-35118D02*
X64351Y-35118D01*
X65082Y-34949D02*
X65532Y-34949D01*
X65532Y-35118D02*
X65082Y-35118D01*
X65814Y-34949D02*
X66264Y-34949D01*
X66264Y-35118D02*
X65814Y-35118D01*
X66545Y-34949D02*
X66995Y-34949D01*
X66995Y-35118D02*
X66545Y-35118D01*
X67276Y-34949D02*
X67726Y-34949D01*
X67726Y-35118D02*
X67276Y-35118D01*
X68007Y-34949D02*
X68457Y-34949D01*
X68457Y-35118D02*
X68007Y-35118D01*
X68738Y-34949D02*
X69188Y-34949D01*
X69188Y-35118D02*
X68738Y-35118D01*
X62130Y-36614D02*
X62158Y-36586D01*
X62214Y-36557D01*
X62355Y-36557D01*
X62411Y-36586D01*
X62439Y-36614D01*
X62467Y-36670D01*
X62467Y-36726D01*
X62439Y-36811D01*
X62102Y-37148D01*
X62467Y-37148D01*
X63451Y-37148D02*
X63170Y-37148D01*
X63170Y-36557D01*
X63901Y-37148D02*
X63901Y-36839D01*
X63873Y-36782D01*
X63817Y-36754D01*
X63705Y-36754D01*
X63648Y-36782D01*
X63901Y-37120D02*
X63845Y-37148D01*
X63705Y-37148D01*
X63648Y-37120D01*
X63620Y-37064D01*
X63620Y-37007D01*
X63648Y-36951D01*
X63705Y-36923D01*
X63845Y-36923D01*
X63901Y-36895D01*
X64126Y-36754D02*
X64267Y-37148D01*
X64408Y-36754D02*
X64267Y-37148D01*
X64211Y-37289D01*
X64183Y-37317D01*
X64126Y-37345D01*
X64857Y-37120D02*
X64801Y-37148D01*
X64689Y-37148D01*
X64633Y-37120D01*
X64604Y-37064D01*
X64604Y-36839D01*
X64633Y-36782D01*
X64689Y-36754D01*
X64801Y-36754D01*
X64857Y-36782D01*
X64886Y-36839D01*
X64886Y-36895D01*
X64604Y-36951D01*
X65139Y-37148D02*
X65139Y-36754D01*
X65139Y-36867D02*
X65167Y-36811D01*
X65195Y-36782D01*
X65251Y-36754D01*
X65307Y-36754D01*
X66264Y-37148D02*
X65926Y-37148D01*
X66095Y-37148D02*
X66095Y-36557D01*
X66039Y-36642D01*
X65982Y-36698D01*
X65926Y-36726D01*
X66601Y-37148D02*
X66545Y-37120D01*
X66517Y-37092D01*
X66489Y-37035D01*
X66489Y-36867D01*
X66517Y-36811D01*
X66545Y-36782D01*
X66601Y-36754D01*
X66685Y-36754D01*
X66742Y-36782D01*
X66770Y-36811D01*
X66798Y-36867D01*
X66798Y-37035D01*
X66770Y-37092D01*
X66742Y-37120D01*
X66685Y-37148D01*
X66601Y-37148D01*
X66995Y-36754D02*
X67304Y-36754D01*
X66995Y-37148D01*
X67304Y-37148D01*
X68176Y-36839D02*
X67979Y-36839D01*
X67979Y-37148D02*
X67979Y-36557D01*
X68260Y-36557D01*
X68598Y-36557D02*
X68710Y-36557D01*
X68766Y-36586D01*
X68823Y-36642D01*
X68851Y-36754D01*
X68851Y-36951D01*
X68823Y-37064D01*
X68766Y-37120D01*
X68710Y-37148D01*
X68598Y-37148D01*
X68541Y-37120D01*
X68485Y-37064D01*
X68457Y-36951D01*
X68457Y-36754D01*
X68485Y-36642D01*
X68541Y-36586D01*
X68598Y-36557D01*
X69357Y-36754D02*
X69357Y-37148D01*
X69216Y-36529D02*
X69076Y-36951D01*
X69441Y-36951D01*
X62411Y-37502D02*
X62298Y-37502D01*
X62242Y-37530D01*
X62214Y-37559D01*
X62158Y-37643D01*
X62130Y-37755D01*
X62130Y-37980D01*
X62158Y-38037D01*
X62186Y-38065D01*
X62242Y-38093D01*
X62355Y-38093D01*
X62411Y-38065D01*
X62439Y-38037D01*
X62467Y-37980D01*
X62467Y-37840D01*
X62439Y-37784D01*
X62411Y-37755D01*
X62355Y-37727D01*
X62242Y-37727D01*
X62186Y-37755D01*
X62158Y-37784D01*
X62130Y-37840D01*
X62833Y-37502D02*
X62889Y-37502D01*
X62945Y-37530D01*
X62973Y-37559D01*
X63001Y-37615D01*
X63030Y-37727D01*
X63030Y-37868D01*
X63001Y-37980D01*
X62973Y-38037D01*
X62945Y-38065D01*
X62889Y-38093D01*
X62833Y-38093D01*
X62776Y-38065D01*
X62748Y-38037D01*
X62720Y-37980D01*
X62692Y-37868D01*
X62692Y-37727D01*
X62720Y-37615D01*
X62748Y-37559D01*
X62776Y-37530D01*
X62833Y-37502D01*
X63226Y-38093D02*
X63536Y-37699D01*
X63226Y-37699D02*
X63536Y-38093D01*
X63705Y-37502D02*
X64070Y-37502D01*
X63873Y-37727D01*
X63958Y-37727D01*
X64014Y-37755D01*
X64042Y-37784D01*
X64070Y-37840D01*
X64070Y-37980D01*
X64042Y-38037D01*
X64014Y-38065D01*
X63958Y-38093D01*
X63789Y-38093D01*
X63733Y-38065D01*
X63705Y-38037D01*
X64436Y-37502D02*
X64492Y-37502D01*
X64548Y-37530D01*
X64576Y-37559D01*
X64604Y-37615D01*
X64633Y-37727D01*
X64633Y-37868D01*
X64604Y-37980D01*
X64576Y-38037D01*
X64548Y-38065D01*
X64492Y-38093D01*
X64436Y-38093D01*
X64379Y-38065D01*
X64351Y-38037D01*
X64323Y-37980D01*
X64295Y-37868D01*
X64295Y-37727D01*
X64323Y-37615D01*
X64351Y-37559D01*
X64379Y-37530D01*
X64436Y-37502D01*
X64886Y-38093D02*
X64886Y-37699D01*
X64886Y-37755D02*
X64914Y-37727D01*
X64970Y-37699D01*
X65054Y-37699D01*
X65111Y-37727D01*
X65139Y-37784D01*
X65139Y-38093D01*
X65139Y-37784D02*
X65167Y-37727D01*
X65223Y-37699D01*
X65307Y-37699D01*
X65364Y-37727D01*
X65392Y-37784D01*
X65392Y-38093D01*
X65673Y-38093D02*
X65673Y-37699D01*
X65673Y-37755D02*
X65701Y-37727D01*
X65757Y-37699D01*
X65842Y-37699D01*
X65898Y-37727D01*
X65926Y-37784D01*
X65926Y-38093D01*
X65926Y-37784D02*
X65954Y-37727D01*
X66010Y-37699D01*
X66095Y-37699D01*
X66151Y-37727D01*
X66179Y-37784D01*
X66179Y-38093D01*
X62467Y-39038D02*
X62130Y-39038D01*
X62298Y-39038D02*
X62298Y-38447D01*
X62242Y-38532D01*
X62186Y-38588D01*
X62130Y-38616D01*
X63030Y-39038D02*
X62692Y-39038D01*
X62861Y-39038D02*
X62861Y-38447D01*
X62805Y-38532D01*
X62748Y-38588D01*
X62692Y-38616D01*
X63648Y-38447D02*
X63845Y-39038D01*
X64042Y-38447D01*
X64239Y-39038D02*
X64239Y-38644D01*
X64239Y-38447D02*
X64211Y-38475D01*
X64239Y-38503D01*
X64267Y-38475D01*
X64239Y-38447D01*
X64239Y-38503D01*
X64773Y-39038D02*
X64773Y-38728D01*
X64745Y-38672D01*
X64689Y-38644D01*
X64576Y-38644D01*
X64520Y-38672D01*
X64773Y-39010D02*
X64717Y-39038D01*
X64576Y-39038D01*
X64520Y-39010D01*
X64492Y-38953D01*
X64492Y-38897D01*
X64520Y-38841D01*
X64576Y-38813D01*
X64717Y-38813D01*
X64773Y-38785D01*
X65026Y-39010D02*
X65082Y-39038D01*
X65195Y-39038D01*
X65251Y-39010D01*
X65279Y-38953D01*
X65279Y-38925D01*
X65251Y-38869D01*
X65195Y-38841D01*
X65111Y-38841D01*
X65054Y-38813D01*
X65026Y-38757D01*
X65026Y-38728D01*
X65054Y-38672D01*
X65111Y-38644D01*
X65195Y-38644D01*
X65251Y-38672D01*
X62130Y-40899D02*
X62214Y-40928D01*
X62355Y-40928D01*
X62411Y-40899D01*
X62439Y-40871D01*
X62467Y-40815D01*
X62467Y-40759D01*
X62439Y-40703D01*
X62411Y-40674D01*
X62355Y-40646D01*
X62242Y-40618D01*
X62186Y-40590D01*
X62158Y-40562D01*
X62130Y-40506D01*
X62130Y-40449D01*
X62158Y-40393D01*
X62186Y-40365D01*
X62242Y-40337D01*
X62383Y-40337D01*
X62467Y-40365D01*
X62720Y-40928D02*
X62720Y-40534D01*
X62720Y-40337D02*
X62692Y-40365D01*
X62720Y-40393D01*
X62748Y-40365D01*
X62720Y-40337D01*
X62720Y-40393D01*
X63086Y-40928D02*
X63030Y-40899D01*
X63001Y-40843D01*
X63001Y-40337D01*
X63311Y-40928D02*
X63311Y-40337D01*
X63367Y-40703D02*
X63536Y-40928D01*
X63536Y-40534D02*
X63311Y-40759D01*
X63761Y-40899D02*
X63817Y-40928D01*
X63929Y-40928D01*
X63986Y-40899D01*
X64014Y-40843D01*
X64014Y-40815D01*
X63986Y-40759D01*
X63929Y-40731D01*
X63845Y-40731D01*
X63789Y-40703D01*
X63761Y-40646D01*
X63761Y-40618D01*
X63789Y-40562D01*
X63845Y-40534D01*
X63929Y-40534D01*
X63986Y-40562D01*
X64520Y-40899D02*
X64464Y-40928D01*
X64351Y-40928D01*
X64295Y-40899D01*
X64267Y-40871D01*
X64239Y-40815D01*
X64239Y-40646D01*
X64267Y-40590D01*
X64295Y-40562D01*
X64351Y-40534D01*
X64464Y-40534D01*
X64520Y-40562D01*
X64773Y-40928D02*
X64773Y-40534D01*
X64773Y-40646D02*
X64801Y-40590D01*
X64829Y-40562D01*
X64886Y-40534D01*
X64942Y-40534D01*
X65364Y-40899D02*
X65307Y-40928D01*
X65195Y-40928D01*
X65139Y-40899D01*
X65111Y-40843D01*
X65111Y-40618D01*
X65139Y-40562D01*
X65195Y-40534D01*
X65307Y-40534D01*
X65364Y-40562D01*
X65392Y-40618D01*
X65392Y-40674D01*
X65111Y-40731D01*
X65870Y-40899D02*
X65814Y-40928D01*
X65701Y-40928D01*
X65645Y-40899D01*
X65617Y-40843D01*
X65617Y-40618D01*
X65645Y-40562D01*
X65701Y-40534D01*
X65814Y-40534D01*
X65870Y-40562D01*
X65898Y-40618D01*
X65898Y-40674D01*
X65617Y-40731D01*
X66151Y-40534D02*
X66151Y-40928D01*
X66151Y-40590D02*
X66179Y-40562D01*
X66235Y-40534D01*
X66320Y-40534D01*
X66376Y-40562D01*
X66404Y-40618D01*
X66404Y-40928D01*
X67332Y-40618D02*
X67135Y-40618D01*
X67135Y-40928D02*
X67135Y-40337D01*
X67417Y-40337D01*
X67642Y-40928D02*
X67642Y-40534D01*
X67642Y-40646D02*
X67670Y-40590D01*
X67698Y-40562D01*
X67754Y-40534D01*
X67810Y-40534D01*
X68091Y-40928D02*
X68035Y-40899D01*
X68007Y-40871D01*
X67979Y-40815D01*
X67979Y-40646D01*
X68007Y-40590D01*
X68035Y-40562D01*
X68091Y-40534D01*
X68176Y-40534D01*
X68232Y-40562D01*
X68260Y-40590D01*
X68288Y-40646D01*
X68288Y-40815D01*
X68260Y-40871D01*
X68232Y-40899D01*
X68176Y-40928D01*
X68091Y-40928D01*
X68541Y-40534D02*
X68541Y-40928D01*
X68541Y-40590D02*
X68570Y-40562D01*
X68626Y-40534D01*
X68710Y-40534D01*
X68766Y-40562D01*
X68794Y-40618D01*
X68794Y-40928D01*
X68991Y-40534D02*
X69216Y-40534D01*
X69076Y-40337D02*
X69076Y-40843D01*
X69104Y-40899D01*
X69160Y-40928D01*
X69216Y-40928D01*
X69947Y-40928D02*
X69891Y-40899D01*
X69863Y-40871D01*
X69835Y-40815D01*
X69835Y-40646D01*
X69863Y-40590D01*
X69891Y-40562D01*
X69947Y-40534D01*
X70032Y-40534D01*
X70088Y-40562D01*
X70116Y-40590D01*
X70144Y-40646D01*
X70144Y-40815D01*
X70116Y-40871D01*
X70088Y-40899D01*
X70032Y-40928D01*
X69947Y-40928D01*
X70397Y-40534D02*
X70397Y-40928D01*
X70397Y-40590D02*
X70426Y-40562D01*
X70482Y-40534D01*
X70566Y-40534D01*
X70622Y-40562D01*
X70651Y-40618D01*
X70651Y-40928D01*
X71016Y-40928D02*
X70960Y-40899D01*
X70932Y-40843D01*
X70932Y-40337D01*
X71185Y-40534D02*
X71325Y-40928D01*
X71466Y-40534D02*
X71325Y-40928D01*
X71269Y-41068D01*
X71241Y-41096D01*
X71185Y-41124D01*
X62242Y-41282D02*
X62242Y-41422D01*
X62102Y-41366D02*
X62242Y-41422D01*
X62383Y-41366D01*
X62158Y-41535D02*
X62242Y-41422D01*
X62327Y-41535D01*
X62692Y-41282D02*
X62692Y-41422D01*
X62552Y-41366D02*
X62692Y-41422D01*
X62833Y-41366D01*
X62608Y-41535D02*
X62692Y-41422D01*
X62776Y-41535D01*
X63423Y-41282D02*
X63761Y-41282D01*
X63592Y-41872D02*
X63592Y-41282D01*
X63958Y-41872D02*
X63958Y-41282D01*
X64211Y-41872D02*
X64211Y-41563D01*
X64183Y-41507D01*
X64126Y-41479D01*
X64042Y-41479D01*
X63986Y-41507D01*
X63958Y-41535D01*
X64492Y-41872D02*
X64492Y-41479D01*
X64492Y-41591D02*
X64520Y-41535D01*
X64548Y-41507D01*
X64604Y-41479D01*
X64661Y-41479D01*
X64942Y-41872D02*
X64886Y-41844D01*
X64857Y-41816D01*
X64829Y-41760D01*
X64829Y-41591D01*
X64857Y-41535D01*
X64886Y-41507D01*
X64942Y-41479D01*
X65026Y-41479D01*
X65082Y-41507D01*
X65111Y-41535D01*
X65139Y-41591D01*
X65139Y-41760D01*
X65111Y-41816D01*
X65082Y-41844D01*
X65026Y-41872D01*
X64942Y-41872D01*
X65645Y-41479D02*
X65645Y-41872D01*
X65392Y-41479D02*
X65392Y-41788D01*
X65420Y-41844D01*
X65476Y-41872D01*
X65561Y-41872D01*
X65617Y-41844D01*
X65645Y-41816D01*
X66179Y-41479D02*
X66179Y-41957D01*
X66151Y-42013D01*
X66123Y-42041D01*
X66067Y-42069D01*
X65982Y-42069D01*
X65926Y-42041D01*
X66179Y-41844D02*
X66123Y-41872D01*
X66010Y-41872D01*
X65954Y-41844D01*
X65926Y-41816D01*
X65898Y-41760D01*
X65898Y-41591D01*
X65926Y-41535D01*
X65954Y-41507D01*
X66010Y-41479D01*
X66123Y-41479D01*
X66179Y-41507D01*
X66460Y-41872D02*
X66460Y-41282D01*
X66714Y-41872D02*
X66714Y-41563D01*
X66685Y-41507D01*
X66629Y-41479D01*
X66545Y-41479D01*
X66489Y-41507D01*
X66460Y-41535D01*
X66995Y-41647D02*
X67445Y-41647D01*
X67726Y-41872D02*
X67726Y-41282D01*
X67979Y-41872D02*
X67979Y-41563D01*
X67951Y-41507D01*
X67895Y-41479D01*
X67810Y-41479D01*
X67754Y-41507D01*
X67726Y-41535D01*
X68345Y-41872D02*
X68288Y-41844D01*
X68260Y-41816D01*
X68232Y-41760D01*
X68232Y-41591D01*
X68260Y-41535D01*
X68288Y-41507D01*
X68345Y-41479D01*
X68429Y-41479D01*
X68485Y-41507D01*
X68513Y-41535D01*
X68541Y-41591D01*
X68541Y-41760D01*
X68513Y-41816D01*
X68485Y-41844D01*
X68429Y-41872D01*
X68345Y-41872D01*
X68879Y-41872D02*
X68823Y-41844D01*
X68794Y-41788D01*
X68794Y-41282D01*
X69329Y-41844D02*
X69273Y-41872D01*
X69160Y-41872D01*
X69104Y-41844D01*
X69076Y-41788D01*
X69076Y-41563D01*
X69104Y-41507D01*
X69160Y-41479D01*
X69273Y-41479D01*
X69329Y-41507D01*
X69357Y-41563D01*
X69357Y-41619D01*
X69076Y-41676D01*
X70032Y-41844D02*
X70088Y-41872D01*
X70201Y-41872D01*
X70257Y-41844D01*
X70285Y-41788D01*
X70285Y-41760D01*
X70257Y-41704D01*
X70201Y-41676D01*
X70116Y-41676D01*
X70060Y-41647D01*
X70032Y-41591D01*
X70032Y-41563D01*
X70060Y-41507D01*
X70116Y-41479D01*
X70201Y-41479D01*
X70257Y-41507D01*
X70622Y-41872D02*
X70566Y-41844D01*
X70538Y-41816D01*
X70510Y-41760D01*
X70510Y-41591D01*
X70538Y-41535D01*
X70566Y-41507D01*
X70622Y-41479D01*
X70707Y-41479D01*
X70763Y-41507D01*
X70791Y-41535D01*
X70819Y-41591D01*
X70819Y-41760D01*
X70791Y-41816D01*
X70763Y-41844D01*
X70707Y-41872D01*
X70622Y-41872D01*
X71325Y-41844D02*
X71269Y-41872D01*
X71157Y-41872D01*
X71100Y-41844D01*
X71072Y-41816D01*
X71044Y-41760D01*
X71044Y-41591D01*
X71072Y-41535D01*
X71100Y-41507D01*
X71157Y-41479D01*
X71269Y-41479D01*
X71325Y-41507D01*
X71579Y-41872D02*
X71579Y-41282D01*
X71635Y-41647D02*
X71803Y-41872D01*
X71803Y-41479D02*
X71579Y-41704D01*
X72282Y-41844D02*
X72225Y-41872D01*
X72113Y-41872D01*
X72057Y-41844D01*
X72028Y-41788D01*
X72028Y-41563D01*
X72057Y-41507D01*
X72113Y-41479D01*
X72225Y-41479D01*
X72282Y-41507D01*
X72310Y-41563D01*
X72310Y-41619D01*
X72028Y-41676D01*
X72478Y-41479D02*
X72703Y-41479D01*
X72563Y-41282D02*
X72563Y-41788D01*
X72591Y-41844D01*
X72647Y-41872D01*
X72703Y-41872D01*
X72872Y-41844D02*
X72928Y-41872D01*
X73041Y-41872D01*
X73097Y-41844D01*
X73125Y-41788D01*
X73125Y-41760D01*
X73097Y-41704D01*
X73041Y-41676D01*
X72956Y-41676D01*
X72900Y-41647D01*
X72872Y-41591D01*
X72872Y-41563D01*
X72900Y-41507D01*
X72956Y-41479D01*
X73041Y-41479D01*
X73097Y-41507D01*
X73828Y-41872D02*
X73828Y-41479D01*
X73828Y-41535D02*
X73856Y-41507D01*
X73913Y-41479D01*
X73997Y-41479D01*
X74053Y-41507D01*
X74081Y-41563D01*
X74081Y-41872D01*
X74081Y-41563D02*
X74109Y-41507D01*
X74166Y-41479D01*
X74250Y-41479D01*
X74306Y-41507D01*
X74334Y-41563D01*
X74334Y-41872D01*
X74700Y-41872D02*
X74644Y-41844D01*
X74616Y-41816D01*
X74588Y-41760D01*
X74588Y-41591D01*
X74616Y-41535D01*
X74644Y-41507D01*
X74700Y-41479D01*
X74784Y-41479D01*
X74841Y-41507D01*
X74869Y-41535D01*
X74897Y-41591D01*
X74897Y-41760D01*
X74869Y-41816D01*
X74841Y-41844D01*
X74784Y-41872D01*
X74700Y-41872D01*
X75403Y-41479D02*
X75403Y-41872D01*
X75150Y-41479D02*
X75150Y-41788D01*
X75178Y-41844D01*
X75234Y-41872D01*
X75319Y-41872D01*
X75375Y-41844D01*
X75403Y-41816D01*
X75684Y-41479D02*
X75684Y-41872D01*
X75684Y-41535D02*
X75712Y-41507D01*
X75769Y-41479D01*
X75853Y-41479D01*
X75909Y-41507D01*
X75937Y-41563D01*
X75937Y-41872D01*
X76134Y-41479D02*
X76359Y-41479D01*
X76219Y-41282D02*
X76219Y-41788D01*
X76247Y-41844D01*
X76303Y-41872D01*
X76359Y-41872D01*
X76781Y-41844D02*
X76725Y-41872D01*
X76612Y-41872D01*
X76556Y-41844D01*
X76528Y-41788D01*
X76528Y-41563D01*
X76556Y-41507D01*
X76612Y-41479D01*
X76725Y-41479D01*
X76781Y-41507D01*
X76809Y-41563D01*
X76809Y-41619D01*
X76528Y-41676D01*
X77315Y-41872D02*
X77315Y-41282D01*
X77315Y-41844D02*
X77259Y-41872D01*
X77147Y-41872D01*
X77090Y-41844D01*
X77062Y-41816D01*
X77034Y-41760D01*
X77034Y-41591D01*
X77062Y-41535D01*
X77090Y-41507D01*
X77147Y-41479D01*
X77259Y-41479D01*
X77315Y-41507D01*
X78131Y-41872D02*
X78075Y-41844D01*
X78046Y-41816D01*
X78018Y-41760D01*
X78018Y-41591D01*
X78046Y-41535D01*
X78075Y-41507D01*
X78131Y-41479D01*
X78215Y-41479D01*
X78271Y-41507D01*
X78300Y-41535D01*
X78328Y-41591D01*
X78328Y-41760D01*
X78300Y-41816D01*
X78271Y-41844D01*
X78215Y-41872D01*
X78131Y-41872D01*
X78581Y-41479D02*
X78581Y-41872D01*
X78581Y-41535D02*
X78609Y-41507D01*
X78665Y-41479D01*
X78750Y-41479D01*
X78806Y-41507D01*
X78834Y-41563D01*
X78834Y-41872D01*
X79565Y-41872D02*
X79565Y-41479D01*
X79565Y-41591D02*
X79593Y-41535D01*
X79621Y-41507D01*
X79678Y-41479D01*
X79734Y-41479D01*
X80156Y-41844D02*
X80099Y-41872D01*
X79987Y-41872D01*
X79931Y-41844D01*
X79902Y-41788D01*
X79902Y-41563D01*
X79931Y-41507D01*
X79987Y-41479D01*
X80099Y-41479D01*
X80156Y-41507D01*
X80184Y-41563D01*
X80184Y-41619D01*
X79902Y-41676D01*
X80690Y-41872D02*
X80690Y-41563D01*
X80662Y-41507D01*
X80606Y-41479D01*
X80493Y-41479D01*
X80437Y-41507D01*
X80690Y-41844D02*
X80634Y-41872D01*
X80493Y-41872D01*
X80437Y-41844D01*
X80409Y-41788D01*
X80409Y-41732D01*
X80437Y-41676D01*
X80493Y-41647D01*
X80634Y-41647D01*
X80690Y-41619D01*
X80971Y-41872D02*
X80971Y-41479D01*
X80971Y-41591D02*
X80999Y-41535D01*
X81027Y-41507D01*
X81084Y-41479D01*
X81140Y-41479D01*
X81871Y-41282D02*
X81871Y-41422D01*
X81730Y-41366D02*
X81871Y-41422D01*
X82012Y-41366D01*
X81787Y-41535D02*
X81871Y-41422D01*
X81955Y-41535D01*
X82321Y-41282D02*
X82321Y-41422D01*
X82180Y-41366D02*
X82321Y-41422D01*
X82462Y-41366D01*
X82237Y-41535D02*
X82321Y-41422D01*
X82405Y-41535D01*
X62552Y-43818D02*
X62495Y-43790D01*
X62439Y-43734D01*
X62355Y-43650D01*
X62298Y-43622D01*
X62242Y-43622D01*
X62270Y-43762D02*
X62214Y-43734D01*
X62158Y-43678D01*
X62130Y-43565D01*
X62130Y-43368D01*
X62158Y-43256D01*
X62214Y-43200D01*
X62270Y-43172D01*
X62383Y-43172D01*
X62439Y-43200D01*
X62495Y-43256D01*
X62523Y-43368D01*
X62523Y-43565D01*
X62495Y-43678D01*
X62439Y-43734D01*
X62383Y-43762D01*
X62270Y-43762D01*
X63030Y-43368D02*
X63030Y-43762D01*
X62776Y-43368D02*
X62776Y-43678D01*
X62805Y-43734D01*
X62861Y-43762D01*
X62945Y-43762D01*
X63001Y-43734D01*
X63030Y-43706D01*
X63536Y-43734D02*
X63480Y-43762D01*
X63367Y-43762D01*
X63311Y-43734D01*
X63283Y-43678D01*
X63283Y-43453D01*
X63311Y-43397D01*
X63367Y-43368D01*
X63480Y-43368D01*
X63536Y-43397D01*
X63564Y-43453D01*
X63564Y-43509D01*
X63283Y-43565D01*
X63817Y-43762D02*
X63817Y-43368D01*
X63817Y-43481D02*
X63845Y-43425D01*
X63873Y-43397D01*
X63929Y-43368D01*
X63986Y-43368D01*
X64183Y-43762D02*
X64183Y-43368D01*
X64183Y-43172D02*
X64154Y-43200D01*
X64183Y-43228D01*
X64211Y-43200D01*
X64183Y-43172D01*
X64183Y-43228D01*
X64689Y-43734D02*
X64633Y-43762D01*
X64520Y-43762D01*
X64464Y-43734D01*
X64436Y-43678D01*
X64436Y-43453D01*
X64464Y-43397D01*
X64520Y-43368D01*
X64633Y-43368D01*
X64689Y-43397D01*
X64717Y-43453D01*
X64717Y-43509D01*
X64436Y-43565D01*
X64942Y-43734D02*
X64998Y-43762D01*
X65111Y-43762D01*
X65167Y-43734D01*
X65195Y-43678D01*
X65195Y-43650D01*
X65167Y-43593D01*
X65111Y-43565D01*
X65026Y-43565D01*
X64970Y-43537D01*
X64942Y-43481D01*
X64942Y-43453D01*
X64970Y-43397D01*
X65026Y-43368D01*
X65111Y-43368D01*
X65167Y-43397D01*
X65448Y-43706D02*
X65476Y-43734D01*
X65448Y-43762D01*
X65420Y-43734D01*
X65448Y-43706D01*
X65448Y-43762D01*
X65448Y-43397D02*
X65476Y-43425D01*
X65448Y-43453D01*
X65420Y-43425D01*
X65448Y-43397D01*
X65448Y-43453D01*
X66432Y-43734D02*
X66376Y-43762D01*
X66264Y-43762D01*
X66207Y-43734D01*
X66179Y-43706D01*
X66151Y-43650D01*
X66151Y-43481D01*
X66179Y-43425D01*
X66207Y-43397D01*
X66264Y-43368D01*
X66376Y-43368D01*
X66432Y-43397D01*
X66770Y-43762D02*
X66714Y-43734D01*
X66685Y-43706D01*
X66657Y-43650D01*
X66657Y-43481D01*
X66685Y-43425D01*
X66714Y-43397D01*
X66770Y-43368D01*
X66854Y-43368D01*
X66910Y-43397D01*
X66938Y-43425D01*
X66967Y-43481D01*
X66967Y-43650D01*
X66938Y-43706D01*
X66910Y-43734D01*
X66854Y-43762D01*
X66770Y-43762D01*
X67220Y-43368D02*
X67220Y-43762D01*
X67220Y-43425D02*
X67248Y-43397D01*
X67304Y-43368D01*
X67388Y-43368D01*
X67445Y-43397D01*
X67473Y-43453D01*
X67473Y-43762D01*
X67670Y-43368D02*
X67895Y-43368D01*
X67754Y-43172D02*
X67754Y-43678D01*
X67782Y-43734D01*
X67838Y-43762D01*
X67895Y-43762D01*
X68345Y-43762D02*
X68345Y-43453D01*
X68316Y-43397D01*
X68260Y-43368D01*
X68148Y-43368D01*
X68091Y-43397D01*
X68345Y-43734D02*
X68288Y-43762D01*
X68148Y-43762D01*
X68091Y-43734D01*
X68063Y-43678D01*
X68063Y-43622D01*
X68091Y-43565D01*
X68148Y-43537D01*
X68288Y-43537D01*
X68345Y-43509D01*
X68879Y-43734D02*
X68823Y-43762D01*
X68710Y-43762D01*
X68654Y-43734D01*
X68626Y-43706D01*
X68598Y-43650D01*
X68598Y-43481D01*
X68626Y-43425D01*
X68654Y-43397D01*
X68710Y-43368D01*
X68823Y-43368D01*
X68879Y-43397D01*
X69048Y-43368D02*
X69273Y-43368D01*
X69132Y-43172D02*
X69132Y-43678D01*
X69160Y-43734D01*
X69216Y-43762D01*
X69273Y-43762D01*
X69891Y-43734D02*
X69947Y-43762D01*
X70060Y-43762D01*
X70116Y-43734D01*
X70144Y-43678D01*
X70144Y-43650D01*
X70116Y-43593D01*
X70060Y-43565D01*
X69976Y-43565D01*
X69919Y-43537D01*
X69891Y-43481D01*
X69891Y-43453D01*
X69919Y-43397D01*
X69976Y-43368D01*
X70060Y-43368D01*
X70116Y-43397D01*
X70397Y-43762D02*
X70397Y-43368D01*
X70397Y-43172D02*
X70369Y-43200D01*
X70397Y-43228D01*
X70426Y-43200D01*
X70397Y-43172D01*
X70397Y-43228D01*
X70679Y-43762D02*
X70679Y-43368D01*
X70679Y-43425D02*
X70707Y-43397D01*
X70763Y-43368D01*
X70847Y-43368D01*
X70904Y-43397D01*
X70932Y-43453D01*
X70932Y-43762D01*
X70932Y-43453D02*
X70960Y-43397D01*
X71016Y-43368D01*
X71100Y-43368D01*
X71157Y-43397D01*
X71185Y-43453D01*
X71185Y-43762D01*
X71550Y-43762D02*
X71494Y-43734D01*
X71466Y-43706D01*
X71438Y-43650D01*
X71438Y-43481D01*
X71466Y-43425D01*
X71494Y-43397D01*
X71550Y-43368D01*
X71635Y-43368D01*
X71691Y-43397D01*
X71719Y-43425D01*
X71747Y-43481D01*
X71747Y-43650D01*
X71719Y-43706D01*
X71691Y-43734D01*
X71635Y-43762D01*
X71550Y-43762D01*
X72000Y-43368D02*
X72000Y-43762D01*
X72000Y-43425D02*
X72028Y-43397D01*
X72085Y-43368D01*
X72169Y-43368D01*
X72225Y-43397D01*
X72253Y-43453D01*
X72253Y-43762D01*
X72900Y-43481D02*
X72872Y-43453D01*
X72816Y-43425D01*
X72760Y-43425D01*
X72703Y-43453D01*
X72675Y-43481D01*
X72647Y-43537D01*
X72647Y-43593D01*
X72675Y-43650D01*
X72703Y-43678D01*
X72760Y-43706D01*
X72816Y-43706D01*
X72872Y-43678D01*
X72900Y-43650D01*
X72900Y-43425D02*
X72900Y-43650D01*
X72928Y-43678D01*
X72956Y-43678D01*
X73013Y-43650D01*
X73041Y-43593D01*
X73041Y-43453D01*
X72985Y-43368D01*
X72900Y-43312D01*
X72788Y-43284D01*
X72675Y-43312D01*
X72591Y-43368D01*
X72535Y-43453D01*
X72507Y-43565D01*
X72535Y-43678D01*
X72591Y-43762D01*
X72675Y-43818D01*
X72788Y-43847D01*
X72900Y-43818D01*
X72985Y-43762D01*
X73547Y-43734D02*
X73491Y-43762D01*
X73378Y-43762D01*
X73322Y-43734D01*
X73294Y-43706D01*
X73266Y-43650D01*
X73266Y-43481D01*
X73294Y-43425D01*
X73322Y-43397D01*
X73378Y-43368D01*
X73491Y-43368D01*
X73547Y-43397D01*
X73772Y-43734D02*
X73828Y-43762D01*
X73941Y-43762D01*
X73997Y-43734D01*
X74025Y-43678D01*
X74025Y-43650D01*
X73997Y-43593D01*
X73941Y-43565D01*
X73856Y-43565D01*
X73800Y-43537D01*
X73772Y-43481D01*
X73772Y-43453D01*
X73800Y-43397D01*
X73856Y-43368D01*
X73941Y-43368D01*
X73997Y-43397D01*
X74278Y-43706D02*
X74306Y-43734D01*
X74278Y-43762D01*
X74250Y-43734D01*
X74278Y-43706D01*
X74278Y-43762D01*
X74559Y-43762D02*
X74559Y-43172D01*
X74559Y-43397D02*
X74616Y-43368D01*
X74728Y-43368D01*
X74784Y-43397D01*
X74812Y-43425D01*
X74841Y-43481D01*
X74841Y-43650D01*
X74812Y-43706D01*
X74784Y-43734D01*
X74728Y-43762D01*
X74616Y-43762D01*
X74559Y-43734D01*
X75094Y-43762D02*
X75094Y-43368D01*
X75094Y-43481D02*
X75122Y-43425D01*
X75150Y-43397D01*
X75206Y-43368D01*
X75262Y-43368D01*
X75459Y-43762D02*
X75459Y-43368D01*
X75459Y-43172D02*
X75431Y-43200D01*
X75459Y-43228D01*
X75487Y-43200D01*
X75459Y-43172D01*
X75459Y-43228D01*
X75712Y-43734D02*
X75769Y-43762D01*
X75881Y-43762D01*
X75937Y-43734D01*
X75965Y-43678D01*
X75965Y-43650D01*
X75937Y-43593D01*
X75881Y-43565D01*
X75797Y-43565D01*
X75741Y-43537D01*
X75712Y-43481D01*
X75712Y-43453D01*
X75741Y-43397D01*
X75797Y-43368D01*
X75881Y-43368D01*
X75937Y-43397D01*
X76219Y-43706D02*
X76247Y-43734D01*
X76219Y-43762D01*
X76190Y-43734D01*
X76219Y-43706D01*
X76219Y-43762D01*
X76753Y-43762D02*
X76753Y-43453D01*
X76725Y-43397D01*
X76669Y-43368D01*
X76556Y-43368D01*
X76500Y-43397D01*
X76753Y-43734D02*
X76697Y-43762D01*
X76556Y-43762D01*
X76500Y-43734D01*
X76472Y-43678D01*
X76472Y-43622D01*
X76500Y-43565D01*
X76556Y-43537D01*
X76697Y-43537D01*
X76753Y-43509D01*
X77287Y-43734D02*
X77231Y-43762D01*
X77118Y-43762D01*
X77062Y-43734D01*
X77034Y-43706D01*
X77006Y-43650D01*
X77006Y-43481D01*
X77034Y-43425D01*
X77062Y-43397D01*
X77118Y-43368D01*
X77231Y-43368D01*
X77287Y-43397D01*
X77540Y-43706D02*
X77568Y-43734D01*
X77540Y-43762D01*
X77512Y-43734D01*
X77540Y-43706D01*
X77540Y-43762D01*
X78075Y-43368D02*
X78075Y-43762D01*
X77821Y-43368D02*
X77821Y-43678D01*
X77850Y-43734D01*
X77906Y-43762D01*
X77990Y-43762D01*
X78046Y-43734D01*
X78075Y-43706D01*
X78356Y-43762D02*
X78356Y-43172D01*
X78412Y-43537D02*
X78581Y-43762D01*
X78581Y-43368D02*
X78356Y-43593D01*
M02*
